SplineFontDB: 3.2
FontName: fontello
FullName: fontello
FamilyName: fontello
Weight: Regular
ItalicAngle: 0
UnderlinePosition: 0
UnderlineWidth: 0
Ascent: 850
Descent: 150
InvalidEm: 0
LayerCount: 2
Layer: 0 0 "Arri+AOgA-re" 1
Layer: 1 0 "Avant" 0
XUID: [1021 138 -569599452 15478]
OS2Version: 0
OS2_WeightWidthSlopeOnly: 0
OS2_UseTypoMetrics: 0
CreationTime: 1591529804
ModificationTime: 1591530289
PfmFamily: 17
TTFWeight: 400
TTFWidth: 5
LineGap: 90
VLineGap: 90
Panose: 2 0 5 3 0 0 0 0 0 0
OS2TypoAscent: 0
OS2TypoAOffset: 1
OS2TypoDescent: 0
OS2TypoDOffset: 1
OS2TypoLinegap: 90
OS2WinAscent: 0
OS2WinAOffset: 1
OS2WinDescent: 0
OS2WinDOffset: 1
HheadAscent: 0
HheadAOffset: 1
HheadDescent: 0
HheadDOffset: 1
OS2Vendor: 'PfEd'
DEI: 91125
Encoding: Original
UnicodeInterp: none
NameList: AGL For New Fonts
DisplaySize: -48
AntiAlias: 1
FitToEm: 0
WinInfo: 0 39 14
BeginChars: 89 88

StartChar: avant-daller-plus-loin_b
Encoding: 1 59392 0
Width: 1000
LayerCount: 2
Fore
SplineSet
498 -114 m 0
 245 -114 39 93 39 347 c 0
 39 601 245 807 498 807 c 0
 751 807 957 601 957 347 c 0
 957 93 752 -114 498 -114 c 0
677 619 m 1
 626 654 565 673 498 673 c 0
 319 673 173 527 173 347 c 0
 173 281 193 220 227 169 c 1
 677 619 l 1
771 523 m 1
 321 74 l 1
 372 40 433 20 498 20 c 0
 677 20 823 167 823 347 c 0
 823 412 804 473 771 523 c 1
EndSplineSet
EndChar

StartChar: ampoule
Encoding: 2 59393 1
Width: 1000
LayerCount: 2
Fore
SplineSet
562.912 738.527 m 1
 422.968 738.527 l 1
 412.97288 738.527 l 1
 412.97288 728.53188 l 1
 412.97288 695.60318 l 1
 412.97288 685.60709 l 1
 422.968 685.60709 l 1
 562.324 685.60709 l 1
 572.32009 685.60709 l 1
 572.32009 695.60318 l 1
 572.32009 728.53188 l 1
 572.32009 738.527 l 1
 562.91189 738.527 l 1
 562.912 738.527 l 1
556.443 792.036 m 1
 429.436 792.036 l 1
 419.43991 792.036 l 1
 419.43991 782.03991 l 1
 419.43991 754.40321 l 1
 419.43991 744.40712 l 1
 429.436 744.40712 l 1
 556.443 744.40712 l 1
 566.44007 744.40712 l 1
 566.44007 754.40321 l 1
 566.44007 782.03991 l 1
 566.44007 792.036 l 1
 556.443 792.036 l 1
279.496 228.144 m 1
 275.96768 226.38033 271.85245 224.02779 268.912 221.08834 c 1
 268.912 221.08834 l 1
 213.6395 165.81684 l 1
 213.6395 165.81684 l 1
 213.6395 165.81684 l 1
 207.1727 159.34809 204.23227 151.11664 204.23227 142.88424 c 0
 204.23227 134.65279 207.1727 126.42034 213.6395 119.95264 c 1
 213.6395 119.95264 l 1
 213.6395 119.95264 l 1
 220.10727 113.48389 228.3397 110.54444 236.5721 110.54444 c 0
 244.80355 110.54444 253.036 113.48389 259.5037 119.95264 c 1
 259.5037 119.95264 l 1
 314.7762 175.22414 l 2
 321.24397 181.69289 324.18343 189.92434 324.18343 198.15674 c 0
 324.18343 206.38819 321.24398 214.62064 314.7762 221.08834 c 0
 311.83577 224.02779 308.30745 226.38033 304.1922 228.144 c 0
 300.07599 229.90767 295.95978 230.49654 291.8436 230.49654 c 0
 287.1395 230.49654 283.02329 229.907673 279.4959 228.144 c 1
 279.496 228.144 l 1
706.384 228.732 m 1
 702.26779 230.49567 698.15255 231.08356 694.0363 231.08356 c 0
 689.92009 231.08356 685.80388 230.495669 681.6877 228.732 c 0
 678.16036 226.96735 674.63301 225.20368 671.1037 221.67536 c 1
 671.1037 221.67536 l 1
 664.63593 215.20759 661.69647 206.97616 661.69647 198.74376 c 0
 661.69647 190.51231 664.63592 182.27986 671.1037 175.81216 c 2
 726.3762 120.53966 l 1
 726.3762 120.53966 l 1
 732.84397 114.07189 741.0764 111.13243 749.3078 111.13243 c 0
 757.54022 111.13243 765.7726 114.07188 772.2404 120.53966 c 1
 772.2404 120.53966 l 1
 772.2404 120.53966 l 1
 778.70817 127.00743 781.64763 135.23986 781.64763 143.47226 c 0
 781.64763 151.70371 778.70818 159.93616 772.2404 166.40296 c 1
 772.2404 166.40296 l 1
 716.9679 221.67546 l 2
 713.44056 224.61589 709.91224 226.96745 706.3839 228.7321 c 1
 706.384 228.732 l 1
213.64 634.452 m 1
 268.9125 579.1795 l 1
 268.9125 579.1795 l 1
 269.500391 578.592586 l 2
 275.380271 572.711726 283.612691 569.772276 291.844191 569.772276 c 0
 300.076611 569.772276 307.720191 572.711726 314.187991 578.592586 c 2
 314.776858 579.1795 l 1
 314.776858 579.1795 l 1
 321.244628 585.64727 324.184088 593.8797 324.184088 602.1121 c 0
 324.184088 610.34355 321.244638 618.576 314.776858 625.0437 c 2
 259.504358 680.3162 l 2
 256.563928 683.25565 253.036588 685.60722 248.920358 687.37186 c 0
 244.804148 689.13553 240.687938 689.72342 236.572658 689.72342 c 0
 232.456448 689.72342 228.340238 689.135529 224.224058 687.37186 c 0
 220.696718 685.60721 216.580508 683.25565 213.640058 680.3162 c 1
 213.640058 680.3162 l 1
 207.173258 673.84745 204.232828 665.616 204.232828 657.3836 c 0
 204.232828 648.56329 207.173258 640.3318 213.640058 634.452 c 1
 213.640058 634.452 l 1
 213.64 634.452 l 1
777.532 368.088 m 1
 855.7361 368.088 l 2
 864.55641 368.088 872.7879 371.61632 878.0799 377.4962 c 0
 883.95978 383.37608 887.48713 391.6075 887.48713 400.4278 c 0
 887.48713 409.2481 883.95979 417.4805 878.0799 422.7725 c 0
 872.20002 428.65238 863.9676 432.17973 855.1473 432.17973 c 2
 776.9432 432.17973 l 2
 768.12386 432.17973 759.8924 428.65239 754.5994 422.7725 c 0
 748.71952 416.89262 745.19217 408.6602 745.19217 399.8399 c 0
 745.19217 391.0196 748.71951 382.7881 754.5994 377.4961 c 0
 760.48026 371.61622 768.7117 368.0879 777.532 368.0879 c 1
 777.532 368.088 l 1
230.692 377.496 m 1
 236.57188 383.37588 240.09923 391.6073 240.09923 400.4276 c 0
 240.09923 409.2479 236.57189 417.4803 230.692 423.3602 c 0
 224.81212 429.24008 217.1676 432.76743 207.7594 432.76743 c 2
 130.1432 432.76743 l 2
 121.32386 432.76743 113.0924 429.24009 107.7994 423.3602 c 0
 101.91952 417.48032 98.39217 409.2479 98.39217 400.4276 c 0
 98.39217 391.6073 101.91951 383.3758 107.7994 378.0838 c 0
 113.67928 372.20392 121.9117 368.6756 130.732 368.6756 c 2
 208.9361 368.6756 l 2
 217.16755 368.087709 224.8121 371.61603 230.692 377.49591 c 1
 230.692 377.496 l 1
515.284 138.18 m 1
 509.40314 144.05988 501.1727 147.5882 492.3524 147.5882 c 0
 483.5321 147.5882 475.2997 144.05988 469.4198 138.18 c 0
 463.5399 132.30012 460.01257 124.6566 460.01257 115.8362 c 2
 460.01257 37.6331 l 2
 460.01257 28.81279 463.53991 20.5804 469.4198 14.7005 c 0
 475.29969 8.8206 482.9432 5.2923 492.3524 5.2923 c 0
 501.17271 5.2923 509.4032 8.82062 514.6962 14.7005 c 0
 520.57608 20.58038 524.10343 28.8128 524.10343 37.6331 c 2
 524.10343 115.8362 l 2
 524.692297 124.65651 521.16398 132.3001 515.28409 138.18 c 1
 515.284 138.18 l 1
699.916 400.428 m 1
 699.916 428.0637 694.62401 453.9368 684.6279 478.0442 c 0
 674.63278 502.7405 659.9326 525.0842 641.7041 544.4876 c 1
 641.7041 544.4876 l 1
 629.3564 557.4241 619.3603 571.5364 611.7158 587.4124 c 0
 604.07225 603.2884 598.7803 620.3401 595.8398 637.3929 c 1
 595.8398 637.3929 l 1
 594.07613 647.9769 588.78414 656.7962 581.7275 663.264 c 0
 574.08395 669.73275 564.6757 673.26009 554.0927 673.26009 c 2
 431.1997 673.26009 l 2
 420.6157 673.26009 411.2075 669.73275 403.563 663.264 c 0
 395.91945 656.79623 390.6275 647.9769 389.4517 637.3929 c 1
 389.4517 637.3929 l 1
 386.51225 619.7523 381.21928 602.7005 373.5757 586.8245 c 0
 365.93215 570.9475 355.9361 556.8362 343.5874 543.9007 c 1
 343.5874 543.9007 l 1
 325.3599 525.0843 311.2476 503.3275 301.2515 478.6331 c 0
 291.8433 455.1126 285.9634 429.2405 285.9634 402.1927 c 2
 285.9634 401.603833 l 1
 285.9634 401.603833 l 1
 285.375509 343.980833 308.3072 292.236833 345.3521 254.603833 c 0
 382.396 216.972933 434.1392 193.452433 491.1751 192.864533 c 2
 491.762991 192.864533 l 1
 493.526661 192.864533 l 2
 550.562761 192.864533 602.306661 215.796133 639.351661 252.840133 c 0
 676.982561 289.884033 699.915161 341.628233 700.503061 398.664133 c 0
 699.91517 402.780343 699.91517 397.487373 699.91517 400.427803 c 2
 699.916 400.428 l 1
522.34 834.372 m 1
 514.10758 839.66399 504.1125 843.19231 492.9406 843.19231 c 0
 482.3566 843.19231 472.3605 839.66399 463.5402 834.372 c 0
 454.71989 828.49212 448.2521 820.2597 444.1359 810.8525 c 2
 438.25602 797.3271 l 1
 452.95622 797.3271 l 1
 532.33612 797.3271 l 1
 547.03632 797.3271 l 1
 541.15644 810.8525 l 2
 537.62812 820.25973 530.57244 828.4921 522.34004 834.372 c 1
 522.34 834.372 l 1
694.036 569.772 m 2
 702.26745 569.772 710.4999 572.71145 716.9676 579.17923 c 1
 716.9676 579.17923 l 1
 772.2401 634.45173 l 1
 772.2401 634.45173 l 1
 772.2401 634.45173 l 1
 778.70787 640.9195 781.64733 649.15193 781.64733 657.38333 c 0
 781.64733 665.61575 778.70788 673.84723 772.2401 680.31593 c 1
 772.2401 680.31593 l 1
 769.29967 683.25538 765.77233 685.60695 761.6561 687.37159 c 0
 757.53989 689.13526 753.42368 689.72315 749.3075 689.72315 c 0
 745.19227 689.72315 741.07605 689.135259 736.9598 687.37159 c 0
 733.43246 685.60694 729.31625 683.25538 726.3758 680.31593 c 2
 671.1033 625.04343 l 2
 664.63553 618.57566 661.69607 610.34323 661.69607 602.11183 c 0
 661.69607 593.87941 664.63552 585.64703 671.1033 579.17923 c 0
 677.57205 572.71146 685.8035 569.772 694.0359 569.772 c 2
 694.036 569.772 l 2
EndSplineSet
EndChar

StartChar: actualiser-son-potentiel_n
Encoding: 3 59394 2
Width: 1000
LayerCount: 2
Fore
SplineSet
553 -117 m 0
 552 -117 551 -117 550 -116 c 0
 539 -114 531 -104 533 -93 c 0
 537 -68 548 -49 567 -35 c 0
 611 -3 683 -16 727 -23 c 0
 746 -26 761 -22 770 -13 c 0
 778 -4 781 13 776 31 c 0
 773 45 766 71 783 86 c 0
 788 91 794 93 798 94 c 1
 798 106 l 2
 795 117 801 128 811 131 c 0
 814 132 818 134 821 135 c 1
 820 137 819 138 819 139 c 0
 816 150 812 163 810 176 c 0
 809 189 813 197 817 202 c 0
 827 213 842 215 853 216 c 0
 861 216 871 217 873 221 c 0
 876 227 872 247 817 321 c 0
 794 352 800 396 806 440 c 0
 809 461 811 482 810 499 c 0
 806 577 771 683 633 740 c 0
 477 804 290 707 288 706 c 0
 281 702 116 617 122 399 c 1
 122 399 l 1
 122 399 141 287 186 239 c 0
 244 178 236 -28 174 -94 c 0
 166 -103 153 -103 145 -95 c 0
 137 -88 136 -75 144 -67 c 0
 193 -15 201 164 157 212 c 0
 102 269 83 391 82 396 c 0
 75 642 262 738 269 742 c 0
 277 746 475 849 649 777 c 0
 772 726 843 628 851 501 c 0
 852 480 849 457 846 434 c 0
 841 399 837 363 850 345 c 0
 893 288 929 234 907 199 c 0
 895 178 872 176 857 175 c 2
 851 175 l 1
 853 167 855 159 858 152 c 0
 862 143 869 129 861 116 c 0
 856 109 848 103 839 99 c 1
 839 89 837 80 837 80 c 2
 833 61 820 56 812 55 c 1
 813 51 814 45 815 43 c 0
 823 9 818 -21 799 -41 c 0
 781 -60 753 -68 720 -63 c 0
 685 -57 621 -46 591 -68 c 0
 581 -75 575 -85 573 -99 c 0
 571 -109 563 -117 553 -117 c 0
828 139 m 1
 828 139 l 1
 828 139 l 1
462 372 m 2
 454 372 447 377 445 386 c 2
 392 622 l 2
 389 631 395 640 405 642 c 0
 414 645 424 639 426 629 c 2
 479 393 l 2
 482 384 476 375 466 372 c 2
 462 372 l 2
336 250 m 0
 332 250 327 251 324 255 c 0
 317 261 317 272 323 279 c 2
 445 406 l 2
 452 413 463 413 470 406 c 0
 477 400 477 389 471 382 c 2
 349 255 l 2
 345 252 341 250 336 250 c 0
462 372 m 0
 460 372 459 372 457 373 c 2
 310 421 l 2
 301 424 296 434 299 443 c 0
 302 452 312 457 321 454 c 2
 468 406 l 2
 477 403 482 393 479 384 c 0
 477 377 470 372 462 372 c 0
458 376 m 0
 451 376 445 380 442 386 c 0
 438 395 442 406 451 410 c 2
 662 507 l 2
 671 511 681 507 685 498 c 0
 689 489 685 479 677 475 c 2
 465 378 l 2
 463 377 460 376 458 376 c 0
564 263 m 0
 559 263 554 265 551 268 c 2
 445 382 l 2
 439 389 439 400 446 407 c 0
 453 413 464 413 471 406 c 2
 576 292 l 2
 583 285 583 274 576 267 c 0
 572 264 568 263 564 263 c 0
EndSplineSet
EndChar

StartChar: etau
Encoding: 4 59395 3
Width: 1000
LayerCount: 2
Fore
SplineSet
576 379 m 2
 576 379 575 379 575 378 c 0
 575 376 575 377 576 376 c 0
 576 375 579 374 581 372 c 0
 582 370 583 368 583 366 c 0
 583 364 582 362 581 360 c 1
 590 360 599 361 606 361 c 2
 607 361 l 2
 608 363 610 364 610 365 c 0
 612 366 612 365 612 367 c 0
 612 368 612 367 611 369 c 0
 610 369 608 371 606 373 c 0
 605 374 604 376 604 379 c 0
 604 382 606 385 608 386 c 0
 610 388 612 388 612 389 c 2
 613 390 l 2
 613 392 613 391 612 392 c 0
 611 393 609 394 607 397 c 0
 606 398 605 400 605 402 c 0
 605 406 607 408 609 410 c 0
 611 411 613 412 613 413 c 2
 613 414 l 1
 613 416 l 2
 612 417 610 418 608 420 c 0
 606 422 606 424 606 426 c 0
 606 429 608 432 610 433 c 0
 612 435 613 435 613 436 c 2
 613 436 614 437 614 438 c 2
 614 438 614 439 613 439 c 2
 613 439 613 440 612 440 c 0
 610 441 609 442 608 444 c 2
 581 444 l 1
 581 444 582 444 582 443 c 0
 583 442 584 440 584 438 c 0
 584 434 582 431 580 430 c 0
 578 429 576 428 576 427 c 2
 576 426 l 1
 576 424 l 2
 577 423 579 422 581 419 c 0
 583 418 583 416 583 414 c 0
 583 410 581 408 579 406 c 0
 577 405 576 404 576 404 c 1
 576 404 575 403 575 402 c 0
 575 401 575 401 576 400 c 0
 576 399 579 398 581 396 c 0
 582 394 583 392 583 390 c 0
 583 387 581 384 579 383 c 0
 578 381 576 380 576 379 c 2
576 254 m 2
 576 254 575 254 575 253 c 0
 575 251 575 252 576 251 c 0
 576 250 579 249 581 247 c 0
 582 245 583 243 583 241 c 0
 583 239 582 237 581 235 c 1
 590 235 599 236 606 236 c 2
 607 236 l 2
 608 238 610 239 610 240 c 0
 612 241 612 240 612 242 c 0
 612 243 612 242 611 244 c 0
 610 244 608 246 606 248 c 0
 605 249 604 251 604 254 c 0
 604 257 606 260 608 261 c 0
 610 263 612 263 612 264 c 2
 613 265 l 2
 613 267 613 266 612 267 c 0
 611 268 609 269 607 272 c 0
 606 273 605 275 605 277 c 0
 605 281 607 283 609 285 c 0
 611 286 613 287 613 288 c 2
 613 289 l 1
 613 291 l 2
 612 292 610 293 608 295 c 0
 606 297 606 299 606 301 c 0
 606 304 608 307 610 308 c 0
 612 310 613 310 613 311 c 2
 613 311 614 312 614 313 c 2
 614 313 614 314 613 314 c 2
 613 314 613 315 612 315 c 0
 610 316 609 317 608 319 c 2
 581 319 l 1
 581 319 582 319 582 318 c 0
 583 317 584 315 584 313 c 0
 584 309 582 306 580 305 c 2
 576 301 l 1
 576 301 575 301 575 300 c 0
 575 299 575 299 576 298 c 0
 576 297 579 296 581 294 c 0
 582 292 583 290 583 288 c 0
 583 285 581 282 579 281 c 0
 576 279 575 279 575 278 c 2
 575 278 574 277 574 276 c 0
 574 275 574 276 575 274 c 0
 576 274 578 272 580 270 c 0
 581 269 582 267 582 265 c 0
 582 261 580 258 578 257 c 0
 578 256 576 255 576 254 c 2
640 466 m 2
 549 466 l 2
 545 466 541 463 541 458 c 2
 541 448 l 2
 541 444 544 440 549 440 c 2
 640 440 l 2
 644 440 648 444 648 448 c 1
 648 448 l 1
 648 458 l 2
 648 463 644 466 640 466 c 2
471 219 m 2
 468 219 465 219 464 222 c 0
 459 231 449 236 437 236 c 0
 436 236 435 236 434 235 c 0
 433 234 432 232 431 230 c 0
 429 225 427 218 427 211 c 0
 427 206 428 201 429 197 c 0
 431 192 433 189 434 188 c 0
 435 187 435 186 437 186 c 0
 449 186 460 192 464 200 c 0
 465 202 468 204 471 203 c 0
 472 202 474 202 475 202 c 2
 534 202 l 1
 534 207 l 2
 534 211 535 215 536 219 c 1
 474 219 l 1
 471 219 l 2
633 233 m 2
 556 233 l 2
 554 231 553 229 553 229 c 2
 549 222 546 213 546 207 c 2
 546 199 l 2
 546 197 547 194 549 192 c 0
 551 191 554 190 558 190 c 2
 631 190 l 2
 635 190 638 191 640 192 c 0
 642 194 643 197 643 199 c 2
 643 207 l 2
 643 214 640 222 636 229 c 2
 636 229 635 231 633 233 c 2
648 675 m 2
 628 675 l 1
 628 706 l 1
 585 725 538 735 489 735 c 0
 440 735 392 725 349 706 c 1
 320 639 306 574 306 510 c 0
 306 445 320 381 349 314 c 1
 390 298 439 290 489 290 c 0
 517 290 544 292 571 297 c 1
 571 299 l 1
 577 299 l 2
 594 302 612 307 627 313 c 1
 627 368 l 1
 622 367 615 367 606 367 c 0
 593 367 577 367 561 366 c 0
 529 365 497 365 488 365 c 0
 463 365 438 368 416 373 c 0
 414 374 413 375 412 376 c 0
 397 422 389 466 389 510 c 0
 389 555 397 599 414 647 c 0
 415 648 416 649 418 650 c 0
 440 656 465 660 490 660 c 0
 499 660 515 659 531 658 c 1
 531 654 l 2
 531 649 535 645 541 645 c 2
 649 645 l 2
 654 645 658 649 658 654 c 2
 658 667 l 2
 658 671 654 675 648 675 c 2
760 226 m 0
 758 230 756 233 755 235 c 0
 754 235 754 236 752 236 c 0
 740 236 730 230 725 222 c 0
 724 220 721 219 718 219 c 0
 717 220 715 220 715 220 c 1
 653 220 l 1
 654 216 655 212 655 208 c 2
 655 203 l 1
 714 203 l 2
 715 203 717 203 718 204 c 0
 721 204 724 204 725 201 c 0
 730 192 740 187 752 187 c 0
 753 187 754 187 755 188 c 0
 756 189 757 191 758 193 c 0
 760 198 762 205 762 212 c 0
 761 216 761 222 760 226 c 0
495 -10 m 1
 496 -39 l 1
 495 -57 l 1
 601 -55 727 -15 727 14 c 2
 727 51 l 1
 722 47 715 42 701 34 c 0
 677 20 604 -8 495 -10 c 1
679 98 m 0
 647 107 603 113 554 116 c 2
 549 116 l 1
 549 149 l 1
 462 93 l 1
 549 37 l 1
 549 69 l 1
 554 69 l 2
 615 67 669 58 701 45 c 1
 717 52 726 60 727 67 c 1
 727 67 l 1
 727 67 l 1
 727 67 l 1
 727 67 l 1
 727 67 l 1
 727 67 l 1
 727 79 710 89 679 98 c 0
845 560 m 2
 719 560 l 1
 719 609 l 2
 719 613 717 615 713 615 c 2
 484 615 l 2
 481 615 478 613 478 609 c 2
 478 560 l 1
 156 560 l 2
 151 560 148 557 148 553 c 2
 148 472 l 2
 148 468 151 465 156 465 c 2
 845 465 l 2
 849 465 853 468 853 472 c 2
 853 553 l 2
 853 557 849 560 845 560 c 2
490 603 m 1
 706 603 l 1
 706 561 l 1
 490 561 l 1
 490 603 l 1
838 481 m 1
 163 481 l 1
 163 545 l 1
 838 545 l 1
 838 481 l 1
EndSplineSet
EndChar

StartChar: inhalation
Encoding: 5 59396 4
Width: 1000
LayerCount: 2
Fore
SplineSet
364 630 m 0
 381 599 410 565 438 533 c 0
 478 486 519 438 512 411 c 0
 506 390 490 379 459 371 c 2
 456 370 l 2
 428 363 390 354 391 315 c 0
 392 306 394 297 397 288 c 0
 398 282 399 277 401 272 c 0
 401 269 403 260 400 253 c 0
 398 247 402 241 408 240 c 1
 408 240 l 1
 414 238 420 240 422 246 c 0
 425 254 426 264 424 275 c 0
 422 281 421 287 419 292 c 0
 417 301 415 308 415 315 c 0
 414 337 432 343 463 351 c 1
 467 351 l 1
 491 357 524 369 535 406 c 0
 545 442 502 492 456 546 c 0
 409 601 360 658 377 692 c 0
 379 697 375 704 368 706 c 1
 368 706 l 1
 363 708 357 706 355 701 c 0
 345 683 349 659 364 630 c 0
363 351 m 1
 363 351 l 1
 364 356 361 362 356 364 c 0
 333 372 319 383 314 394 c 0
 307 410 316 431 327 449 c 0
 330 454 329 460 323 463 c 1
 323 463 l 1
 317 467 310 465 307 460 c 0
 293 438 282 412 292 388 c 0
 300 369 318 356 348 344 c 0
 354 342 361 345 363 351 c 1
356 376 m 1
 374 425 482 426 451 392 c 0
 422 358 377 400 356 376 c 1
508 -26 m 0
 392 -26 283 31 215 125 c 0
 171 187 148 259 148 335 c 0
 148 533 309 694 508 694 c 0
 706 694 867 533 867 335 c 0
 867 137 706 -26 508 -26 c 0
508 661 m 0
 328 661 181 515 181 335 c 0
 181 266 203 201 242 145 c 0
 304 60 403 8 508 8 c 0
 688 8 834 155 834 335 c 0
 834 515 688 661 508 661 c 0
640 181 m 0
 639 183 636 181 636 179 c 0
 637 176 637 170 638 167 c 0
 638 165 640 165 641 165 c 0
 642 165 642 166 642 167 c 0
 644 169 645 169 648 169 c 0
 649 169 649 170 650 170 c 0
 651 171 651 173 650 174 c 0
 649 176 643 179 640 181 c 0
623 174 m 0
 626 178 628 183 626 187 c 0
 622 196 615 197 608 191 c 0
 599 185 594 178 601 169 c 0
 607 160 618 169 623 174 c 0
651 191 m 0
 659 192 672 198 667 208 c 0
 663 218 654 217 644 213 c 0
 635 209 634 204 639 195 c 0
 642 190 647 190 651 191 c 0
712 290 m 2
 695 318 660 328 627 315 c 1
 627 316 l 1
 619 330 l 2
 613 341 598 344 588 338 c 2
 537 308 l 2
 526 302 522 288 529 277 c 2
 537 263 l 1
 538 263 l 1
 506 240 495 200 513 170 c 2
 620 1 l 1
 804 147 l 1
 712 290 l 2
583 169 m 0
 572 179 560 199 562 215 c 0
 567 255 609 279 647 264 c 0
 661 258 673 238 676 222 c 0
 677 216 674 210 679 205 c 0
 685 198 688 194 682 188 c 0
 676 180 662 179 673 168 c 0
 675 166 678 163 676 160 c 0
 669 148 651 138 638 138 c 0
 633 138 633 141 631 144 c 0
 627 160 619 148 610 147 c 0
 601 145 600 149 597 158 c 0
 594 164 589 165 583 169 c 0
740 106 m 0
 731 106 730 113 722 116 c 0
 717 117 697 117 676 115 c 1
 665 97 654 81 653 76 c 0
 651 68 657 63 652 55 c 0
 647 47 635 49 633 58 c 0
 633 62 631 63 628 63 c 0
 619 62 613 72 618 79 c 0
 624 86 631 83 638 88 c 0
 641 90 649 100 659 113 c 1
 643 112 629 110 626 108 c 0
 619 104 617 96 609 94 c 0
 599 93 594 104 599 111 c 0
 601 114 601 116 599 118 c 0
 592 124 596 135 605 136 c 0
 614 137 617 129 624 126 c 0
 628 125 648 126 669 127 c 1
 681 144 691 161 692 165 c 0
 693 173 688 179 692 187 c 0
 698 195 709 192 711 183 c 0
 712 181 713 179 717 179 c 0
 726 180 732 170 726 163 c 0
 721 156 713 158 707 154 c 0
 704 152 695 142 685 129 c 1
 701 131 715 133 719 134 c 0
 726 138 727 146 735 147 c 0
 745 149 750 138 745 131 c 0
 744 129 743 126 746 124 c 0
 754 118 749 107 740 106 c 0
EndSplineSet
EndChar

StartChar: laver-mains
Encoding: 6 59397 5
Width: 1000
LayerCount: 2
Fore
SplineSet
606 29 m 1
 606 29 l 1
 581 29 557 39 539 56 c 1
 521 39 497 29 472 29 c 0
 444 29 418 41 399 61 c 0
 390 71 383 82 379 94 c 0
 375 94 370 93 365 93 c 0
 331 93 303 121 303 156 c 0
 303 190 331 218 365 218 c 0
 372 218 379 217 385 215 c 0
 386 215 386 216 387 217 c 1
 368 228 356 248 356 270 c 0
 356 304 384 333 419 333 c 0
 423 333 427 332 431 331 c 1
 438 379 479 416 529 416 c 0
 565 416 597 397 615 366 c 1
 625 370 636 372 647 372 c 0
 694 372 733 334 733 287 c 0
 733 276 731 266 727 256 c 1
 752 241 768 213 768 183 c 0
 768 142 739 108 699 99 c 1
 694 83 685 69 672 57 c 0
 655 39 631 29 606 29 c 1
539 81 m 1
 546 73 l 2
 561 56 583 47 606 47 c 1
 606 47 l 1
 626 47 646 54 660 68 c 0
 672 79 680 92 684 107 c 2
 685 113 l 1
 691 113 l 1
 724 117 750 147 750 181 c 0
 750 206 735 231 711 242 c 2
 703 246 l 1
 707 254 l 2
 712 264 714 274 714 285 c 0
 714 322 683 353 646 353 c 0
 635 353 624 350 614 344 c 2
 606 340 l 1
 601 349 l 2
 588 377 559 396 528 396 c 0
 483 396 448 361 447 317 c 2
 446 305 l 1
 434 310 l 2
 429 312 423 313 417 313 c 0
 393 313 373 293 373 269 c 0
 373 250 385 233 403 227 c 2
 416 222 l 1
 406 213 l 2
 402 208 399 204 397 199 c 2
 394 190 l 1
 386 194 l 2
 380 198 373 199 366 199 c 0
 342 199 322 179 322 155 c 0
 322 131 342 110 366 110 c 0
 372 110 377 112 382 114 c 2
 391 117 l 1
 394 108 l 2
 397 94 404 83 413 73 c 0
 428 56 449 47 472 47 c 0
 493 47 513 54 527 68 c 0
 529 69 531 72 533 74 c 2
 539 81 l 1
840 192 m 0
 823 216 790 223 765 206 c 2
 735 186 l 1
 729 183 l 1
 640 122 l 1
 522 122 l 1
 522 151 l 1
 559 151 l 2
 583 151 604 171 604 194 c 0
 604 218 583 238 559 238 c 2
 469 238 l 1
 372 238 l 1
 361 238 l 2
 347 238 334 230 324 217 c 2
 322 215 l 1
 160 87 l 1
 304 -31 l 1
 452 16 l 1
 655 16 l 2
 663 16 671 18 678 21 c 1
 679 20 l 1
 715 44 l 1
 715 43 l 1
 826 117 l 2
 849 133 856 167 840 192 c 0
671 565 m 0
 645 626 599 638 576 708 c 1
 576 710 l 1
 576 710 l 1
 576 710 l 1
 576 708 l 1
 554 639 508 626 482 565 c 0
 474 547 472 516 483 492 c 0
 495 462 540 435 576 436 c 0
 613 435 656 462 670 492 c 0
 681 515 679 547 671 565 c 0
539 526 m 1
 506 526 l 1
 504 542 508 568 517 582 c 0
 532 608 554 620 580 634 c 1
 549 608 541 566 539 526 c 1
EndSplineSet
EndChar

StartChar: manches-repliees
Encoding: 7 59398 6
Width: 1000
LayerCount: 2
Fore
SplineSet
792 630 m 2
 729 646 l 1
 679 683 l 2
 677 684 674 685 672 685 c 2
 518 685 l 2
 515 685 513 685 510 683 c 2
 461 646 l 1
 397 630 l 2
 340 615 300 565 300 506 c 2
 300 390 l 1
 288 390 l 2
 280 390 274 384 274 376 c 0
 274 369 280 363 288 363 c 2
 300 363 l 1
 300 306 l 2
 300 299 306 294 313 294 c 2
 390 294 l 1
 390 43 l 2
 390 36 395 31 402 31 c 2
 485 31 l 1
 485 31 l 1
 786 31 l 2
 793 31 799 36 799 43 c 2
 799 104 l 1
 876 104 l 2
 883 104 888 110 888 117 c 2
 888 506 l 2
 890 564 849 615 792 630 c 2
676 653 m 1
 708 629 l 1
 677 537 l 1
 631 561 l 1
 676 653 l 1
651 660 m 1
 594 547 l 1
 538 660 l 1
 651 660 l 1
513 653 m 1
 559 561 l 1
 513 537 l 1
 482 629 l 1
 513 653 l 1
326 318 m 1
 326 361 l 1
 390 361 l 1
 390 318 l 1
 326 318 l 1
864 129 m 1
 800 129 l 1
 800 480 l 2
 800 487 794 492 788 492 c 0
 781 492 775 487 775 480 c 2
 775 54 l 1
 537 54 l 1
 537 54 l 1
 415 54 l 1
 415 480 l 2
 415 487 410 492 403 492 c 0
 396 492 390 487 390 480 c 2
 390 390 l 1
 326 390 l 1
 326 506 l 2
 326 553 358 594 404 605 c 2
 459 619 l 1
 494 515 l 2
 497 507 505 504 512 507 c 2
 572 538 l 1
 583 515 l 1
 583 442 l 2
 583 435 588 429 595 429 c 0
 602 429 608 435 608 442 c 2
 608 515 l 1
 619 538 l 1
 679 507 l 2
 685 504 694 507 697 515 c 2
 731 619 l 1
 786 605 l 2
 832 594 864 553 864 506 c 2
 864 129 l 1
EndSplineSet
EndChar

StartChar: nettoyer
Encoding: 8 59399 7
Width: 1000
LayerCount: 2
Fore
SplineSet
245 702 m 1
 242 702 l 1
 235 650 220 609 142 601 c 1
 142 599 l 1
 220 591 235 550 242 498 c 1
 245 498 l 1
 252 550 267 591 345 599 c 1
 345 601 l 1
 267 609 252 650 245 702 c 1
227 446 m 1
 226 446 l 1
 222 413 212 388 163 383 c 1
 163 381 l 1
 212 376 221 351 226 319 c 1
 227 319 l 1
 231 351 241 377 290 381 c 1
 290 383 l 1
 241 388 231 413 227 446 c 1
822 468 m 0
 774 544 820 620 757 597 c 0
 694 574 622 703 579 638 c 0
 537 572 424 606 366 575 c 0
 308 544 341 471 313 397 c 0
 289 330 267 290 354 227 c 1
 357 199 363 167 376 149 c 0
 383 140 385 110 385 93 c 2
 385 29 l 1
 385 15 l 1
 395 5 l 2
 421 -22 467 -37 517 -37 c 0
 541 -37 586 -33 617 -6 c 2
 628 4 l 1
 628 81 l 2
 631 100 643 112 663 128 c 0
 671 134 679 141 687 149 c 0
 689 151 691 154 694 157 c 0
 725 160 745 163 745 163 c 1
 787 175 809 224 804 257 c 0
 791 326 874 385 822 468 c 0
739 274 m 0
 705 236 685 195 663 172 c 0
 640 148 599 130 594 83 c 1
 594 18 l 1
 555 -17 456 -10 418 27 c 1
 418 92 l 1
 418 92 419 143 403 167 c 0
 389 188 383 247 383 279 c 1
 365 401 l 2
 361 411 366 422 376 424 c 0
 385 428 397 422 401 413 c 2
 417 325 l 1
 429 333 l 1
 424 487 l 2
 423 500 431 508 442 509 c 0
 453 510 464 504 465 491 c 2
 476 347 l 1
 476 347 490 350 493 349 c 1
 504 517 l 2
 504 531 515 538 528 538 c 0
 540 537 549 527 549 514 c 2
 549 514 546 409 547 349 c 0
 549 348 561 346 563 344 c 1
 591 476 l 2
 595 487 608 493 620 489 c 0
 632 485 639 472 635 461 c 2
 635 461 617 340 618 313 c 0
 618 287 633 256 655 273 c 0
 677 290 722 322 742 306 c 0
 756 294 752 285 739 274 c 0
EndSplineSet
EndChar

StartChar: pas-courir
Encoding: 9 59400 8
Width: 1000
LayerCount: 2
Fore
SplineSet
498 -19 m 0
 383 -19 274 38 206 132 c 0
 161 194 138 266 138 342 c 0
 138 540 299 701 498 701 c 0
 697 701 858 540 858 342 c 0
 858 142 697 -19 498 -19 c 0
498 667 m 0
 318 667 172 521 172 341 c 0
 172 272 193 207 233 151 c 0
 294 66 393 15 498 15 c 1
 498 15 l 1
 678 15 824 162 824 342 c 0
 824 521 679 667 498 667 c 0
533 269 m 2
 527 245 l 1
 528 245 570 247 591 248 c 0
 593 248 622 274 634 285 c 0
 637 288 692 285 713 284 c 0
 733 283 752 285 772 293 c 0
 781 299 786 304 788 315 c 0
 789 325 787 335 782 345 c 0
 774 360 766 374 758 388 c 0
 744 410 726 427 703 438 c 0
 702 439 701 439 701 440 c 1
 534 310 l 1
 537 296 537 283 533 269 c 2
727 383 m 0
 733 383 738 379 738 373 c 0
 738 367 733 363 727 363 c 0
 721 363 716 367 717 374 c 0
 717 379 722 383 727 383 c 0
432 357 m 0
 428 356 424 356 419 355 c 1
 419 355 431 363 438 364 c 0
 455 367 471 367 486 361 c 1
 559 418 l 1
 533 432 506 443 476 445 c 0
 459 447 442 446 426 444 c 0
 400 440 376 431 354 415 c 0
 340 406 327 395 317 381 c 0
 300 358 290 332 286 304 c 0
 284 290 283 276 286 263 c 0
 287 258 288 253 290 247 c 1
 267 253 250 245 245 226 c 0
 240 210 249 193 265 188 c 1
 476 352 l 1
 462 358 447 359 432 357 c 0
465 551 m 0
 459 551 456 548 455 542 c 0
 455 539 455 535 456 532 c 0
 460 519 469 510 480 504 c 0
 499 490 519 481 541 473 c 0
 561 466 582 459 603 452 c 1
 638 479 l 1
 632 483 626 488 620 491 c 0
 597 507 571 521 545 533 c 0
 531 540 515 547 499 549 c 0
 488 551 476 553 465 551 c 0
617 190 m 2
 640 190 l 2
 651 191 655 197 651 208 c 0
 649 214 645 219 640 224 c 0
 633 228 625 231 617 233 c 0
 602 236 586 235 570 235 c 0
 550 234 531 233 510 231 c 2
 504 231 l 1
 504 233 504 234 505 235 c 0
 509 249 515 262 517 275 c 0
 519 283 519 290 519 297 c 1
 367 179 l 1
 375 176 383 174 392 173 c 0
 417 169 442 171 468 174 c 0
 494 178 519 182 544 185 c 0
 569 189 593 190 617 190 c 2
EndSplineSet
EndChar

StartChar: pas-jeter-dans-evier
Encoding: 10 59401 9
Width: 1000
LayerCount: 2
Fore
SplineSet
782 318 m 2
 782 319 l 1
 782 320 l 1
 782 321 l 2
 781 322 781 323 781 324 c 1
 781 324 l 1
 780 325 779 326 777 326 c 1
 777 326 l 1
 631 371 l 1
 633 438 l 1
 633 438 l 1
 635 479 l 1
 635 479 l 1
 635 481 l 1
 635 481 635 482 634 482 c 1
 634 483 l 1
 633 483 l 1
 633 484 633 485 632 485 c 2
 631 485 l 2
 630 486 630 486 629 486 c 1
 629 486 l 1
 627 486 l 1
 626 486 l 1
 626 486 l 1
 624 486 l 1
 623 485 l 1
 622 485 l 1
 540 439 l 2
 539 439 539 438 539 438 c 1
 538 438 l 1
 538 437 l 1
 538 435 l 1
 537 434 l 1
 537 433 l 1
 537 431 l 1
 537 429 l 1
 537 429 537 428 538 427 c 2
 538 426 l 1
 538 426 538 425 539 425 c 1
 539 425 l 1
 554 406 l 1
 555 406 l 2
 556 405 556 404 557 404 c 2
 558 404 l 1
 558 403 560 403 560 403 c 1
 560 403 l 1
 560 403 l 1
 561 403 562 403 563 404 c 1
 563 404 l 1
 563 404 l 1
 575 408 l 1
 574 385 l 1
 496 409 l 2
 483 413 470 411 459 404 c 2
 298 304 l 1
 298 304 l 1
 298 304 297 304 297 303 c 0
 297 302 296 301 295 301 c 2
 294 300 l 1
 294 297 l 2
 293 267 293 199 315 189 c 2
 600 57 l 2
 606 54 612 53 618 53 c 0
 632 53 645 60 655 72 c 2
 763 213 l 1
 783 229 783 297 782 318 c 2
310 283 m 1
 613 150 l 2
 616 149 620 147 624 147 c 0
 633 147 642 151 647 158 c 2
 765 295 l 1
 765 263 760 231 753 226 c 0
 752 226 751 225 751 224 c 2
 642 82 l 2
 633 70 619 67 606 72 c 2
 321 204 l 2
 316 208 310 241 310 283 c 1
581 432 m 1
 563 425 l 1
 558 431 l 1
 618 465 l 1
 617 446 l 1
 581 432 l 1
 581 432 l 1
616 426 m 1
 614 372 l 1
 613 371 l 1
 613 371 l 1
 607 364 599 358 595 358 c 0
 594 358 592 361 590 365 c 2
 592 417 l 1
 616 426 l 1
574 360 m 1
 579 346 587 342 592 341 c 2
 596 341 l 2
 606 341 616 349 622 356 c 1
 758 314 l 1
 635 170 l 2
 631 165 624 163 619 166 c 2
 321 297 l 1
 468 392 l 2
 475 397 483 397 492 395 c 2
 574 370 l 1
 574 363 l 1
 574 360 l 1
534 264 m 0
 524 266 513 264 506 259 c 0
 501 256 499 251 497 244 c 0
 494 230 507 215 525 212 c 0
 528 211 531 211 533 211 c 0
 541 211 548 213 553 217 c 0
 558 221 560 226 562 232 c 0
 564 246 552 260 534 264 c 0
545 234 m 0
 545 233 544 232 543 231 c 0
 540 229 534 228 528 229 c 0
 518 231 513 238 513 241 c 0
 513 242 514 243 515 244 c 0
 517 245 521 247 525 247 c 0
 526 247 529 247 531 246 c 0
 540 244 546 238 545 234 c 0
332 442 m 0
 330 442 329 443 327 444 c 0
 319 451 307 465 302 474 c 0
 300 479 301 483 305 485 c 0
 309 488 314 486 316 483 c 0
 320 476 331 463 337 457 c 0
 340 454 341 449 338 446 c 0
 336 443 334 442 332 442 c 0
313 422 m 0
 312 422 310 423 308 424 c 0
 300 429 287 445 283 454 c 0
 281 458 282 463 286 465 c 0
 290 467 295 465 297 461 c 0
 300 455 312 441 317 438 c 0
 321 435 322 430 319 426 c 0
 318 423 316 422 313 422 c 0
291 401 m 0
 289 401 288 402 285 404 c 0
 277 410 267 424 263 432 c 0
 261 436 263 441 267 443 c 0
 271 445 276 444 278 440 c 0
 281 433 290 421 297 415 c 0
 300 413 300 407 297 404 c 0
 296 402 294 401 291 401 c 0
355 463 m 1
 332 485 317 512 317 533 c 0
 317 544 321 553 327 559 c 0
 347 579 388 567 421 535 c 0
 440 516 453 492 455 473 c 1
 438 472 l 1
 435 488 425 508 408 524 c 0
 381 552 349 560 338 549 c 0
 334 545 333 540 333 534 c 0
 333 517 346 493 365 474 c 1
 355 463 l 1
306 356 m 0
 290 356 274 364 260 379 c 0
 232 408 224 439 240 456 c 2
 326 560 l 1
 338 549 l 1
 252 444 l 2
 242 435 251 411 271 390 c 0
 288 373 306 368 321 377 c 2
 381 419 l 1
 390 406 l 1
 329 364 l 2
 322 358 314 356 306 356 c 0
419 332 m 0
 405 332 392 338 386 349 c 0
 379 360 379 375 386 391 c 0
 398 417 395 430 373 444 c 0
 363 451 353 459 352 469 c 0
 352 475 355 481 361 485 c 0
 385 503 434 492 453 480 c 1
 455 478 l 1
 482 443 465 404 450 376 c 0
 449 374 448 368 447 363 c 0
 444 351 442 332 419 332 c 0
397 478 m 0
 386 478 377 476 371 472 c 0
 369 470 369 469 369 469 c 1
 369 469 369 466 382 458 c 0
 410 439 416 417 401 384 c 0
 396 373 395 363 399 357 c 0
 403 351 410 348 419 348 c 0
 426 348 429 351 431 366 c 0
 431 372 433 379 435 385 c 0
 449 409 462 440 442 467 c 1
 431 473 413 478 397 478 c 0
508 -24 m 0
 392 -24 283 32 215 126 c 0
 171 188 148 260 148 336 c 0
 148 535 309 696 508 696 c 0
 706 696 867 535 867 336 c 0
 867 137 706 -24 508 -24 c 0
508 663 m 0
 328 663 181 516 181 336 c 0
 181 267 203 202 242 147 c 0
 304 60 403 10 508 10 c 0
 688 10 834 156 834 336 c 0
 834 516 688 663 508 663 c 0
EndSplineSet
EndChar

StartChar: pas-nourriture
Encoding: 11 59402 10
Width: 1000
LayerCount: 2
Fore
SplineSet
758 178 m 2
 472 178 l 2
 460 178 451 187 451 198 c 2
 451 204 l 2
 451 215 460 224 472 224 c 2
 488 224 l 2
 517 224 545 218 572 207 c 0
 589 199 601 193 608 189 c 0
 611 187 617 187 621 189 c 0
 629 194 647 202 679 213 c 0
 701 220 725 224 748 224 c 2
 755 224 l 1
 756 224 l 2
 767 224 776 215 776 204 c 2
 776 197 l 2
 777 186 768 178 758 178 c 2
474 165 m 1
 756 165 l 1
 756 138 734 117 707 117 c 2
 522 117 l 2
 495 117 474 138 474 165 c 1
440 197 m 2
 440 183 449 171 461 167 c 1
 461 165 l 2
 461 145 471 127 485 116 c 1
 349 116 l 2
 342 116 336 119 332 124 c 1
 440 208 l 1
 440 202 l 1
 440 197 l 2
395 623 m 2
 397 627 402 629 407 628 c 2
 479 596 l 2
 485 593 489 588 489 581 c 2
 489 510 l 1
 460 510 l 1
 460 569 l 2
 460 572 459 574 457 575 c 2
 396 602 l 2
 392 604 390 609 391 614 c 2
 395 623 l 2
330 446 m 2
 330 463 l 2
 330 469 335 474 342 474 c 2
 379 474 l 1
 379 486 l 2
 379 492 384 498 391 498 c 2
 451 498 l 1
 454 498 l 1
 461 498 l 1
 490 498 l 1
 493 498 l 1
 499 498 l 1
 558 498 l 2
 565 498 570 493 570 486 c 2
 570 474 l 1
 604 474 l 2
 607 474 609 474 611 472 c 1
 577 438 l 1
 338 438 l 2
 333 438 330 441 330 446 c 2
452 197 m 2
 452 203 l 2
 452 214 461 223 472 223 c 2
 489 223 l 2
 517 223 546 217 572 206 c 0
 590 199 601 192 608 188 c 0
 612 186 617 186 622 188 c 0
 630 193 648 201 680 212 c 0
 702 219 726 223 749 223 c 2
 756 223 l 1
 757 223 l 2
 768 223 777 214 777 203 c 2
 777 197 l 2
 777 186 768 177 757 177 c 2
 472 177 l 2
 460 178 452 186 452 197 c 2
756 165 m 1
 756 138 734 117 707 117 c 2
 522 117 l 2
 495 117 474 138 474 165 c 1
 756 165 l 1
756 235 m 1
 473 235 l 1
 473 242 l 1
 582 326 l 1
 598 330 592 333 613 333 c 0
 760 332 756 235 756 235 c 1
511 -18 m 0
 396 -18 287 38 219 133 c 0
 174 194 151 267 151 342 c 0
 151 541 313 702 511 702 c 0
 710 702 871 541 871 342 c 0
 871 143 710 -18 511 -18 c 0
511 668 m 0
 331 668 185 522 185 342 c 0
 185 273 206 208 246 152 c 0
 308 67 406 15 511 15 c 0
 691 15 838 162 838 342 c 0
 838 522 691 668 511 668 c 0
EndSplineSet
EndChar

StartChar: pas-verres-contact
Encoding: 12 59403 11
Width: 1000
LayerCount: 2
Fore
SplineSet
394 227 m 0
 393 227 392 227 390 228 c 0
 363 236 124 308 106 314 c 0
 99 317 94 326 97 334 c 0
 100 342 109 346 117 343 c 0
 129 338 292 290 399 258 c 0
 407 255 412 247 409 238 c 0
 408 231 401 227 394 227 c 0
837 300 m 0
 822 320 799 332 769 335 c 0
 674 344 402 261 390 258 c 2
 388 257 l 1
 385 255 l 2
 384 254 348 224 369 165 c 0
 372 156 381 153 390 156 c 0
 398 158 402 167 399 176 c 0
 388 207 399 224 404 229 c 0
 436 239 683 312 767 304 c 0
 788 302 802 295 813 282 c 0
 829 260 829 229 828 214 c 1
 693 168 l 1
 693 170 693 172 692 175 c 2
 692 175 686 197 699 214 c 0
 713 231 742 241 784 241 c 2
 785 241 l 2
 793 241 800 248 800 256 c 0
 800 265 793 272 785 272 c 0
 731 272 694 258 674 232 c 0
 652 202 662 167 663 166 c 0
 663 163 665 161 667 160 c 1
 413 74 l 1
 301 91 139 42 132 40 c 0
 124 38 119 29 122 21 c 0
 124 14 130 10 136 10 c 2
 140 10 l 2
 142 11 307 60 410 42 c 1
 415 42 l 1
 855 190 l 1
 856 199 l 2
 857 201 867 260 837 300 c 0
736 344 m 1
 738 344 l 2
 760 344 785 355 792 376 c 2
 795 384 l 1
 778 390 l 1
 775 382 l 2
 771 370 751 363 736 363 c 2
 727 363 l 1
 726 345 l 1
 736 344 l 1
361 668 m 0
 278 668 210 601 210 517 c 0
 210 434 278 367 361 367 c 0
 444 367 512 434 512 517 c 0
 512 601 444 668 361 668 c 0
361 392 m 0
 292 392 235 448 235 517 c 0
 235 587 292 643 361 643 c 0
 431 643 487 587 487 517 c 0
 487 448 431 392 361 392 c 0
906 444 m 0
 906 479 794 488 727 488 c 0
 660 488 549 479 549 444 c 0
 549 437 554 431 564 425 c 0
 564 422 565 419 568 417 c 0
 581 409 591 402 604 392 c 0
 616 383 625 374 635 363 c 0
 641 356 647 350 654 343 c 0
 670 328 692 319 717 317 c 0
 723 316 729 316 735 316 c 0
 758 316 778 321 793 329 c 0
 811 340 819 351 828 362 c 0
 831 365 833 369 835 372 c 0
 851 390 867 404 888 419 c 0
 890 421 891 423 892 425 c 0
 901 431 906 437 906 444 c 0
727 472 m 0
 827 472 885 454 889 444 c 1
 885 435 827 417 727 417 c 0
 626 417 568 435 565 444 c 1
 568 454 626 472 727 472 c 0
821 383 m 0
 817 380 815 376 813 372 c 0
 805 362 798 353 783 344 c 0
 768 335 745 332 719 334 c 0
 697 336 680 343 667 356 c 0
 660 362 655 368 649 374 c 0
 639 385 629 396 615 406 c 0
 614 407 613 408 611 409 c 1
 648 402 694 399 728 399 c 0
 763 399 810 402 847 409 c 1
 838 402 829 393 821 383 c 0
748 329 m 1024
EndSplineSet
EndChar

StartChar: pas-vetements-amples
Encoding: 13 59404 12
Width: 1000
LayerCount: 2
Fore
SplineSet
498 -25 m 0
 383 -25 274 31 206 126 c 0
 161 188 138 260 138 335 c 0
 138 534 299 695 498 695 c 0
 697 695 858 534 858 335 c 0
 858 136 697 -25 498 -25 c 0
498 661 m 0
 318 661 172 515 172 335 c 0
 172 266 193 201 233 145 c 0
 294 60 393 8 498 8 c 1
 498 8 l 1
 678 8 824 155 824 335 c 0
 824 515 679 661 498 661 c 0
506 298 m 1
 500 298 496 294 496 288 c 0
 496 283 500 279 506 279 c 0
 512 279 515 283 515 288 c 0
 515 294 511 298 506 298 c 1
 506 298 l 1
732 139 m 1
 694 139 l 1
 694 158 l 1
 732 158 l 1
 732 139 l 1
 732 139 l 1
633 367 m 1
 633 407 638 444 644 479 c 1
 713 365 724 257 729 198 c 0
 729 190 730 183 731 177 c 1
 691 177 l 1
 633 367 l 1
 633 367 l 1
622 224 m 1
 594 231 572 258 572 288 c 0
 572 294 568 298 563 298 c 2
 543 298 l 2
 538 298 533 294 533 288 c 0
 533 283 538 279 543 279 c 2
 554 279 l 1
 558 240 587 209 625 203 c 1
 626 198 626 194 627 193 c 0
 628 187 623 178 618 177 c 2
 617 177 l 1
 393 177 l 1
 392 177 l 2
 388 178 383 188 383 194 c 0
 384 197 384 200 385 204 c 0
 423 210 453 241 457 279 c 1
 467 279 l 2
 473 279 477 283 477 289 c 0
 477 294 473 299 467 299 c 2
 448 299 l 2
 442 299 438 294 438 289 c 0
 438 258 417 231 388 224 c 1
 394 272 400 319 399 372 c 0
 398 414 392 456 381 501 c 1
 397 515 l 1
 408 499 437 488 457 483 c 1
 457 365 l 2
 457 360 461 356 467 356 c 0
 473 356 476 360 476 365 c 2
 476 478 l 1
 485 476 497 474 505 474 c 0
 511 474 519 475 533 478 c 1
 533 365 l 2
 533 360 538 356 543 356 c 0
 548 356 553 360 553 365 c 2
 553 482 l 1
 574 488 602 498 613 515 c 1
 629 500 l 1
 619 460 614 415 613 366 c 1
 613 366 l 1
 613 366 l 1
 613 307 618 255 622 224 c 1
 622 224 l 1
611 139 m 1
 400 139 l 1
 400 158 l 1
 611 158 l 1
 611 139 l 1
 611 139 l 1
413 531 m 1
 413 531 l 1
 424 565 l 1
 447 547 463 525 479 497 c 1
 461 500 421 510 413 525 c 0
 412 528 413 529 413 531 c 1
 413 531 l 1
506 592 m 1
 530 592 554 588 573 579 c 1
 541 556 523 529 508 494 c 1
 503 494 l 1
 485 529 466 557 438 579 c 1
 457 587 481 592 506 592 c 1
 506 592 l 1
598 531 m 1
 598 531 l 1
 599 529 599 528 597 526 c 0
 589 510 547 500 530 497 c 1
 543 524 559 547 586 565 c 1
 598 531 l 1
 598 531 l 1
320 177 m 1
 281 177 l 1
 287 229 289 351 367 479 c 1
 374 443 379 408 380 373 c 1
 320 177 l 1
 320 177 l 1
317 139 m 1
 279 139 l 1
 279 158 l 1
 317 158 l 1
 317 139 l 1
 317 139 l 1
751 168 m 1
 751 172 750 165 747 200 c 0
 744 231 740 278 726 331 c 0
 710 395 684 454 649 508 c 0
 647 511 647 509 616 540 c 1
 601 583 l 2
 601 585 599 588 597 589 c 0
 573 604 540 611 506 611 c 0
 472 611 438 604 415 589 c 0
 413 588 410 585 410 583 c 2
 395 540 l 1
 363 510 364 510 363 509 c 0
 327 456 301 396 285 331 c 0
 271 277 267 231 264 200 c 0
 261 169 260 170 260 168 c 2
 260 130 l 2
 260 124 265 120 270 120 c 2
 328 120 l 2
 333 120 338 124 338 130 c 2
 338 167 l 1
 379 300 l 1
 376 266 371 232 366 197 c 0
 365 184 371 169 382 162 c 1
 382 129 l 2
 382 124 386 119 392 119 c 2
 622 119 l 2
 627 119 631 124 631 129 c 2
 631 162 l 1
 644 169 649 188 647 198 c 0
 644 211 638 254 635 298 c 1
 676 167 l 1
 676 130 l 2
 676 124 680 120 685 120 c 2
 743 120 l 2
 749 120 753 124 753 130 c 2
 751 168 l 1
 751 168 l 1
 751 168 l 1
EndSplineSet
EndChar

StartChar: pichenote
Encoding: 14 59405 13
Width: 1000
LayerCount: 2
Fore
SplineSet
356 173 m 0
 359 167 366 163 374 158 c 0
 383 153 393 149 400 145 c 0
 407 142 411 140 418 134 c 0
 424 128 434 118 447 110 c 0
 461 102 479 96 498 91 c 0
 517 86 538 82 557 78 c 0
 576 74 595 69 615 67 c 2
 628 67 l 2
 644 66 663 67 685 69 c 0
 714 72 750 77 775 81 c 0
 800 85 815 88 831 88 c 0
 846 88 863 85 879 81 c 0
 896 76 912 71 922 69 c 0
 931 69 934 72 940 85 c 0
 947 97 956 117 965 142 c 0
 975 167 984 198 989 216 c 0
 994 235 994 242 994 250 c 0
 994 258 994 267 992 273 c 0
 990 278 985 279 976 280 c 0
 967 281 956 283 943 285 c 0
 931 287 919 289 905 293 c 0
 890 297 874 304 856 315 c 0
 838 327 820 345 804 362 c 0
 788 379 774 394 760 408 c 0
 746 422 732 434 721 446 c 0
 710 458 701 469 694 482 c 0
 688 494 683 508 678 522 c 0
 673 535 667 548 663 558 c 0
 658 567 653 573 644 582 c 0
 636 591 624 604 616 612 c 0
 608 621 602 626 596 630 c 0
 590 634 583 638 576 638 c 0
 570 639 565 638 559 638 c 0
 553 639 546 640 540 640 c 0
 535 640 531 638 529 636 c 0
 527 634 527 631 527 630 c 0
 527 629 528 627 528 626 c 1
 526 627 523 628 519 629 c 0
 516 631 510 633 501 635 c 0
 491 637 476 640 463 642 c 0
 449 645 437 647 424 649 c 0
 410 651 394 652 381 654 c 0
 367 655 355 657 344 658 c 0
 334 660 326 660 322 654 c 0
 317 649 316 636 319 627 c 0
 322 617 330 610 337 606 c 0
 344 601 351 599 360 597 c 0
 369 594 381 592 390 590 c 0
 400 588 409 585 419 583 c 0
 429 580 440 575 449 572 c 0
 458 568 465 566 471 563 c 0
 476 560 481 558 481 557 c 1
 479 558 476 558 469 559 c 0
 463 560 456 560 449 560 c 0
 443 560 438 560 424 559 c 0
 410 558 388 558 369 557 c 0
 363 557 357 556 351 556 c 0
 338 556 327 554 317 553 c 0
 301 551 285 548 271 546 c 0
 256 544 240 544 229 543 c 0
 217 542 208 541 204 537 c 0
 199 533 199 525 200 517 c 0
 201 508 206 500 213 494 c 0
 221 488 231 484 242 482 c 0
 254 480 265 480 276 479 c 0
 288 479 300 477 313 476 c 0
 325 474 338 473 353 472 c 0
 368 470 385 469 398 467 c 2
 401 466 l 2
 413 465 419 463 426 460 c 0
 433 458 440 455 448 451 c 0
 456 447 466 441 474 438 c 0
 483 433 490 431 493 429 c 0
 496 428 494 427 490 426 c 0
 485 426 479 425 470 424 c 0
 461 422 450 420 440 416 c 0
 438 415 435 414 433 413 c 0
 426 409 420 404 416 397 c 0
 410 388 408 376 407 361 c 0
 406 346 404 329 402 312 c 0
 400 295 398 281 396 267 c 0
 394 254 391 241 390 233 c 0
 389 225 389 222 388 218 c 0
 388 215 387 213 386 211 c 0
 385 210 380 209 376 208 c 0
 373 208 369 206 365 203 c 0
 362 200 358 196 356 190 c 0
 354 185 354 179 356 173 c 0
441 211 m 0
 442 213 447 219 452 226 c 0
 457 232 461 240 463 247 c 0
 465 254 465 258 467 263 c 0
 469 267 473 272 477 277 c 0
 481 283 485 290 487 296 c 0
 489 301 490 305 494 306 c 1
 494 306 l 1
 498 306 505 305 513 305 c 0
 522 305 531 306 538 307 c 0
 545 308 549 310 554 310 c 0
 560 310 567 308 573 305 c 2
 591 296 l 2
 597 294 605 292 608 291 c 0
 611 289 610 287 609 285 c 0
 608 283 607 281 605 276 c 0
 603 272 599 265 597 258 c 0
 594 251 591 245 588 238 c 0
 584 231 581 224 575 218 c 0
 569 213 563 210 554 208 c 0
 552 208 551 207 549 207 c 0
 541 204 530 204 519 204 c 0
 508 204 496 204 488 203 c 0
 479 202 475 201 471 202 c 0
 467 203 464 204 460 206 c 0
 457 207 452 208 448 208 c 0
 444 209 440 209 441 211 c 0
480 560 m 1
 481 559 482 558 481 558 c 1
 488 554 497 548 505 543 c 0
 517 535 528 528 543 521 c 0
 558 514 574 508 587 505 c 0
 600 501 610 499 618 498 c 0
 626 497 629 496 624 499 c 0
 619 501 605 506 590 511 c 0
 577 517 563 523 545 531 c 0
 528 538 508 547 495 554 c 0
 488 556 483 558 480 560 c 1
529 628 m 1
 529 628 l 1
 530 626 534 624 541 620 c 0
 549 615 561 608 572 599 c 0
 582 590 592 579 600 569 c 0
 610 556 616 543 627 531 c 0
 632 526 636 522 640 519 c 0
 644 516 648 514 647 517 c 0
 645 519 638 526 632 534 c 0
 626 542 621 549 614 559 c 0
 607 569 606 572 597 581 c 0
 588 591 580 599 572 605 c 0
 564 611 556 615 551 618 c 0
 545 621 540 623 536 624 c 0
 533 626 530 627 529 628 c 1
494 429 m 1
 494 429 l 1
 496 429 497 428 495 427 c 1
 500 426 510 425 522 425 c 0
 535 425 550 426 563 428 c 0
 576 430 587 433 594 435 c 0
 602 438 606 440 602 440 c 0
 598 440 585 439 573 438 c 0
 561 436 549 435 538 433 c 0
 526 432 514 431 505 429 c 0
 501 430 497 429 494 429 c 1
440 210 m 0
 438 209 435 206 429 202 c 0
 423 199 415 196 408 194 c 0
 401 194 396 195 392 198 c 0
 389 201 388 205 387 207 c 0
 386 209 386 210 386 210 c 1
 386 209 385 208 385 205 c 0
 385 202 387 197 390 194 c 0
 392 191 396 189 400 188 c 0
 404 188 408 188 413 190 c 0
 418 191 423 194 428 197 c 0
 432 200 436 204 438 206 c 0
 440 210 441 211 440 210 c 0
149 26 m 0
 116 19 83 38 71 67 c 0
 68 74 72 82 79 83 c 2
 81 83 l 2
 86 85 92 81 94 76 c 0
 103 57 124 46 147 51 c 0
 169 58 183 81 179 104 c 0
 172 139 188 173 204 208 c 0
 222 246 241 285 235 331 c 0
 227 387 175 426 120 414 c 0
 73 404 41 360 45 313 c 0
 46 307 42 301 35 300 c 1
 35 300 l 1
 29 299 21 304 20 311 c 0
 15 371 56 427 117 439 c 0
 185 452 250 403 259 333 c 0
 266 281 245 237 226 198 c 0
 210 165 197 136 203 108 c 0
 210 71 186 34 149 26 c 0
198 303 m 0
 197 301 194 299 191 298 c 2
 190 298 l 2
 185 297 179 300 176 305 c 0
 176 306 175 308 174 308 c 0
 159 345 117 321 109 285 c 0
 106 274 108 260 114 249 c 0
 115 248 115 247 115 247 c 2
 117 244 119 242 120 239 c 1
 120 239 l 1
 122 238 122 235 124 234 c 0
 125 231 127 229 129 226 c 0
 144 197 147 174 144 158 c 0
 143 153 142 148 140 144 c 0
 134 131 124 121 113 115 c 0
 112 115 111 114 110 114 c 0
 103 111 94 117 94 124 c 0
 93 130 96 135 101 137 c 0
 107 140 113 145 117 154 c 0
 123 170 119 191 107 215 c 0
 106 217 104 219 103 222 c 0
 97 230 91 239 83 248 c 0
 54 283 62 310 69 322 c 0
 82 346 113 359 144 355 c 0
 169 351 189 338 199 316 c 0
 201 311 201 306 198 303 c 0
121 239 m 1
 119 242 117 244 116 247 c 1
 117 244 119 242 121 239 c 1
354 215 m 2
 349 215 l 1
 222 261 l 2
 215 264 211 272 214 279 c 0
 217 285 224 290 231 287 c 2
 359 241 l 2
 366 238 370 231 367 224 c 0
 365 218 360 215 354 215 c 2
242 181 m 1
 238 181 233 185 233 190 c 0
 233 196 237 200 242 201 c 2
 329 205 l 2
 335 205 339 201 340 196 c 0
 340 190 335 186 331 185 c 2
 242 181 l 1
 243 181 243 181 242 181 c 1
EndSplineSet
EndChar

StartChar: porter-sarrau
Encoding: 15 59406 14
Width: 1000
LayerCount: 2
Fore
SplineSet
484 -33 m 2
 313 -33 l 2
 310 -33 308 -31 306 -29 c 0
 304 -27 303 -24 303 -22 c 2
 313 353 l 1
 238 256 l 2
 234 251 229 250 224 253 c 2
 139 301 l 2
 136 302 135 304 134 307 c 0
 133 310 133 313 135 315 c 0
 257 531 329 592 333 594 c 0
 335 597 340 598 343 597 c 0
 347 595 349 592 350 589 c 2
 364 531 l 1
 377 538 l 2
 382 540 388 539 391 534 c 2
 494 394 l 2
 495 392 496 390 496 388 c 2
 496 -23 l 2
 494 -28 490 -33 484 -33 c 2
324 -11 m 1
 473 -11 l 1
 473 385 l 1
 379 515 l 1
 361 505 l 2
 358 504 355 504 351 505 c 0
 349 506 346 509 345 513 c 2
 333 565 l 1
 308 539 247 467 159 315 c 1
 226 276 l 1
 315 392 l 2
 318 395 323 397 327 395 c 0
 331 394 334 390 334 385 c 2
 324 -11 l 1
447 113 m 2
 352 113 l 2
 346 113 342 117 342 123 c 2
 342 222 l 2
 342 226 344 231 349 232 c 2
 444 263 l 2
 448 264 451 263 454 261 c 0
 457 259 458 256 458 252 c 2
 458 122 l 2
 458 117 454 113 447 113 c 2
363 134 m 1
 437 134 l 1
 437 238 l 1
 363 214 l 1
 363 134 l 1
701 -33 m 2
 530 -33 l 2
 524 -33 519 -29 519 -23 c 2
 519 388 l 2
 519 390 520 392 522 394 c 2
 624 534 l 2
 628 538 633 540 638 538 c 2
 651 531 l 1
 665 589 l 2
 666 592 669 595 672 597 c 0
 676 598 680 597 683 594 c 0
 685 592 758 530 880 316 c 0
 881 313 882 310 881 308 c 0
 880 305 878 303 876 301 c 2
 790 253 l 2
 785 250 780 251 776 256 c 2
 701 352 l 1
 711 -22 l 2
 711 -25 710 -28 708 -30 c 0
 706 -32 704 -33 701 -33 c 2
541 -12 m 1
 690 -12 l 1
 679 384 l 2
 679 389 682 393 686 394 c 0
 690 396 695 394 698 391 c 2
 787 276 l 1
 854 314 l 1
 767 466 706 538 681 565 c 1
 668 512 l 2
 667 508 665 506 662 504 c 0
 659 503 656 503 652 504 c 2
 635 513 l 1
 541 384 l 1
 541 -12 l 1
662 112 m 2
 567 112 l 2
 560 112 556 117 556 122 c 2
 556 252 l 2
 556 256 558 259 560 261 c 0
 563 263 567 264 570 263 c 2
 665 231 l 2
 669 230 673 226 673 221 c 2
 673 122 l 2
 672 117 667 112 662 112 c 2
577 133 m 1
 651 133 l 1
 651 213 l 1
 577 238 l 1
 577 133 l 1
502 432 m 1
 502 432 l 1
 499 432 495 434 493 437 c 2
 415 574 l 1
 389 564 l 2
 386 563 383 563 381 565 c 0
 378 566 376 568 376 571 c 2
 359 635 l 2
 358 640 360 645 365 647 c 0
 371 650 523 715 640 647 c 0
 643 644 645 640 644 636 c 2
 635 567 l 2
 634 564 633 561 630 560 c 0
 629 558 625 558 622 559 c 2
 596 567 l 1
 510 436 l 2
 508 433 506 432 502 432 c 1
419 597 m 0
 423 597 426 594 429 592 c 2
 503 461 l 1
 583 585 l 2
 586 588 590 590 595 589 c 2
 617 582 l 1
 624 633 l 1
 532 682 413 644 381 632 c 1
 393 587 l 1
 416 596 l 2
 417 596 418 597 419 597 c 0
EndSplineSet
EndChar

StartChar: port-lunettes
Encoding: 16 59407 15
Width: 1000
LayerCount: 2
Fore
SplineSet
862 429 m 2
 859 429 l 2
 858 431 856 432 855 434 c 0
 831 461 777 523 729 523 c 2
 725 523 l 1
 666 518 633 476 632 475 c 0
 626 468 628 457 635 451 c 0
 642 446 653 447 658 454 c 0
 660 456 685 486 728 489 c 0
 741 490 766 481 812 433 c 1
 791 445 765 450 732 447 c 0
 708 445 675 440 640 434 c 0
 590 426 533 417 497 417 c 0
 466 417 416 426 368 434 c 0
 335 440 303 445 280 447 c 0
 274 448 268 448 263 448 c 0
 235 448 213 442 194 429 c 1
 191 429 l 1
 228 469 256 489 276 489 c 2
 279 489 l 2
 322 486 347 456 347 454 c 0
 353 447 363 446 371 451 c 0
 378 457 379 467 374 475 c 0
 372 477 339 518 281 522 c 0
 231 526 174 461 149 434 c 0
 147 432 146 430 144 429 c 0
 129 425 119 412 119 397 c 2
 119 294 l 2
 119 276 133 261 152 261 c 2
 159 261 l 1
 159 249 l 2
 159 213 210 186 254 170 c 0
 299 154 355 142 388 142 c 0
 403 142 413 144 419 148 c 0
 434 158 446 176 458 194 c 0
 468 212 483 235 493 235 c 0
 504 235 518 211 529 194 c 0
 541 175 553 157 567 147 c 0
 574 143 584 141 598 141 c 0
 667 141 846 195 851 260 c 1
 862 260 l 2
 880 260 895 275 895 294 c 2
 895 396 l 2
 895 415 880 429 862 429 c 2
844 396 m 1
 861 396 l 1
 861 294 l 1
 851 294 l 1
 851 358 l 2
 851 372 849 385 844 396 c 1
749 415 m 0
 779 415 816 406 818 363 c 1
 720 370 616 374 507 374 c 0
 399 374 290 370 192 363 c 1
 194 406 231 415 261 415 c 0
 266 415 271 415 276 414 c 0
 297 412 328 407 360 401 c 1
 363 401 l 1
 412 393 463 385 497 384 c 2
 498 384 l 2
 535 384 591 393 644 401 c 0
 679 407 711 412 734 414 c 0
 740 414 744 415 749 415 c 0
365 293 m 2
 367 297 367 301 367 306 c 0
 365 310 363 314 359 316 c 0
 355 318 351 319 347 318 c 0
 342 317 338 315 336 310 c 2
 269 200 l 1
 268 201 267 201 265 201 c 0
 213 221 193 240 193 249 c 2
 193 329 l 1
 290 337 399 341 508 341 c 0
 617 341 721 337 819 329 c 1
 819 265 l 2
 819 259 804 236 735 209 c 0
 725 205 713 201 701 197 c 1
 757 294 l 2
 762 301 759 312 751 317 c 0
 742 321 733 318 728 310 c 2
 655 183 l 1
 632 178 612 175 598 175 c 0
 588 175 585 176 585 176 c 1
 577 182 567 197 558 213 c 0
 540 240 522 269 493 269 c 0
 465 269 447 240 429 213 c 0
 420 197 410 182 402 176 c 1
 402 176 399 175 389 175 c 0
 368 175 335 181 303 190 c 1
 365 293 l 2
167 396 m 1
 162 385 159 372 159 359 c 2
 159 294 l 1
 152 294 l 1
 152 396 l 1
 167 396 l 1
EndSplineSet
EndChar

StartChar: position-adequate
Encoding: 17 59408 16
Width: 1000
LayerCount: 2
Fore
SplineSet
381 336 m 1
 398 376 l 1
 352 397 l 1
 340 376 l 2
 340 371 338 365 336 360 c 0
 333 353 328 347 321 342 c 2
 312 326 l 1
 333 315 l 1
 381 336 l 1
319 388 m 0
 317 393 313 398 308 400 c 2
 194 452 l 1
 254 542 l 2
 257 547 258 553 257 558 c 0
 256 565 252 569 247 573 c 0
 242 576 236 577 231 576 c 0
 224 575 219 572 216 567 c 2
 142 455 l 2
 139 449 138 442 140 436 c 0
 142 430 146 424 152 422 c 2
 289 358 l 2
 292 357 297 356 300 356 c 0
 308 357 315 362 319 369 c 0
 322 376 322 382 319 388 c 0
427 592 m 1
 422 598 417 604 412 611 c 0
 386 647 374 683 385 692 c 1
 380 679 397 648 426 619 c 0
 447 597 471 582 486 578 c 0
 493 576 499 576 502 580 c 0
 513 590 496 625 464 657 c 0
 463 658 462 659 460 660 c 0
 460 682 452 704 435 720 c 0
 402 754 348 754 315 721 c 0
 281 688 281 633 314 600 c 0
 345 569 394 567 427 592 c 1
356 13 m 1
 327 169 l 2
 327 175 326 181 324 187 c 2
 233 367 l 1
 233 367 l 1
 145 407 l 2
 135 412 127 421 124 432 c 0
 120 443 122 455 129 465 c 2
 202 576 l 2
 208 586 219 592 231 594 c 0
 240 594 249 592 256 588 c 0
 274 576 279 551 267 533 c 2
 219 460 l 1
 256 443 l 1
 259 453 263 463 267 472 c 0
 271 482 276 492 279 502 c 1
 327 430 l 1
 424 385 l 1
 420 375 l 1
 445 363 l 1
 288 599 l 2
 287 600 286 601 285 601 c 0
 281 607 276 611 270 614 c 0
 240 629 190 620 160 569 c 0
 148 549 138 529 130 510 c 0
 111 468 102 427 97 368 c 0
 97 324 117 304 142 293 c 1
 126 181 l 1
 94 -10 l 2
 90 -23 92 -38 98 -49 c 0
 100 -58 110 -65 123 -70 c 1
 123 -70 l 1
 124 -70 l 2
 132 -73 141 -74 151 -74 c 0
 181 -74 205 -60 205 -44 c 0
 205 -35 198 -26 187 -21 c 1
 215 160 l 2
 218 167 219 175 217 183 c 2
 219 205 l 1
 249 162 l 1
 279 -5 l 1
 278 -26 294 -44 317 -44 c 2
 320 -44 l 2
 326 -45 331 -46 337 -46 c 0
 367 -46 391 -32 391 -15 c 0
 392 -2 376 9 356 13 c 1
EndSplineSet
EndChar

StartChar: suggestions-outils
Encoding: 18 59409 17
Width: 1000
LayerCount: 2
Fore
SplineSet
634 669 m 0
 631 672 627 673 624 672 c 2
 524 631 l 1
 551 735 l 2
 552 738 551 742 548 745 c 0
 545 748 541 748 538 747 c 2
 511 733 l 2
 504 730 499 724 495 717 c 2
 441 597 l 1
 382 572 l 1
 372 579 360 582 348 581 c 0
 339 580 331 578 323 574 c 0
 294 560 280 528 292 504 c 0
 299 488 317 478 337 478 c 2
 341 478 l 2
 350 479 358 481 366 485 c 0
 385 494 398 510 401 529 c 1
 444 547 l 1
 451 540 l 1
 440 495 l 1
 422 490 407 475 400 455 c 0
 390 424 402 392 428 383 c 0
 432 382 437 381 441 381 c 2
 444 381 l 2
 465 383 485 399 493 424 c 0
 500 445 497 468 483 483 c 1
 500 545 l 1
 613 614 l 2
 619 618 624 624 626 631 c 2
 636 659 l 2
 638 663 637 667 634 669 c 0
456 484 m 2
 469 533 l 2
 471 533 472 532 474 533 c 2
 477 533 l 1
 463 482 l 2
 463 479 463 474 467 472 c 0
 477 463 481 446 475 429 c 0
 468 409 450 397 435 401 c 0
 419 406 413 427 419 448 c 0
 424 463 435 474 449 476 c 0
 452 478 455 481 456 484 c 2
479 554 m 2
 476 553 474 552 472 552 c 0
 466 551 461 555 459 560 c 2
 458 563 l 2
 458 565 456 567 453 569 c 2
 445 569 l 1
 388 545 l 2
 384 544 381 540 381 536 c 0
 381 523 372 510 357 503 c 0
 351 500 345 499 339 498 c 0
 325 497 314 503 309 513 c 0
 302 527 312 547 331 556 c 0
 337 559 343 560 349 561 c 0
 359 562 368 559 374 554 c 0
 377 551 381 550 385 551 c 2
 611 644 l 1
 608 637 l 2
 608 634 606 631 603 630 c 2
 479 554 l 2
527 719 m 1
 501 621 l 1
 468 608 l 1
 513 708 l 2
 515 711 517 714 519 715 c 2
 527 719 l 1
424 426 m 0
 426 419 431 415 437 413 c 0
 440 413 442 412 444 413 c 1
 444 413 l 1
 455 413 464 422 468 433 c 0
 473 447 467 463 455 467 c 0
 452 467 450 468 447 467 c 0
 437 467 428 458 424 447 c 0
 422 440 422 433 424 426 c 0
432 444 m 0
 435 451 441 458 448 458 c 0
 449 458 451 458 452 457 c 0
 460 454 463 444 460 434 c 0
 457 426 451 420 444 420 c 0
 442 420 441 420 440 421 c 0
 436 422 433 425 432 429 c 0
 431 433 431 439 432 444 c 0
466 583 m 1
 466 583 l 1
 459 579 457 571 461 565 c 0
 464 560 468 558 473 558 c 0
 475 558 478 558 480 560 c 0
 487 563 489 572 485 579 c 0
 481 586 473 588 466 583 c 1
346 554 m 0
 342 554 338 553 334 551 c 0
 320 544 313 529 319 517 c 0
 323 509 332 504 342 505 c 0
 347 505 351 506 354 508 c 0
 361 512 366 517 369 523 c 0
 372 529 372 536 369 542 c 0
 365 550 356 555 346 554 c 0
360 526 m 0
 358 522 355 518 350 516 c 0
 347 515 344 514 341 514 c 0
 334 513 329 516 326 522 c 0
 322 529 327 539 337 543 c 0
 340 544 343 545 346 545 c 0
 353 546 358 543 361 538 c 0
 363 535 363 531 360 526 c 0
820 550 m 2
 808 569 l 2
 806 572 803 572 799 572 c 2
 760 558 l 2
 758 558 757 557 756 555 c 2
 744 535 l 1
 641 467 l 1
 640 467 l 1
 615 471 l 2
 604 472 594 470 585 465 c 2
 479 394 l 2
 470 388 464 379 462 368 c 0
 460 358 462 347 468 338 c 2
 476 325 l 2
 483 316 492 310 502 308 c 0
 505 307 508 307 510 307 c 0
 518 307 526 309 533 314 c 2
 640 385 l 2
 648 391 654 400 657 410 c 2
 663 435 l 1
 663 435 l 1
 767 504 l 1
 789 507 l 2
 790 507 792 508 793 509 c 2
 820 540 l 2
 822 544 822 547 820 550 c 2
506 328 m 0
 500 329 496 332 492 337 c 2
 484 349 l 2
 481 354 480 359 481 365 c 0
 483 370 485 374 490 378 c 2
 597 449 l 2
 601 451 605 452 609 452 c 2
 613 452 l 1
 634 449 l 1
 642 436 l 1
 638 415 l 2
 636 410 633 406 629 403 c 2
 521 331 l 2
 517 328 511 326 506 328 c 0
759 517 m 2
 656 449 l 1
 651 456 l 1
 754 524 l 1
 756 526 l 1
 767 545 l 1
 799 556 l 1
 805 546 l 1
 783 521 l 1
 761 518 l 1
 761 519 760 518 759 517 c 2
513 371 m 1
 511 371 510 372 510 373 c 0
 508 375 509 378 511 379 c 2
 590 432 l 2
 592 433 595 433 597 431 c 0
 598 429 597 426 595 424 c 2
 516 372 l 2
 515 371 513 370 513 371 c 1
527 349 m 2
 526 349 525 349 524 351 c 0
 523 353 524 356 526 357 c 2
 604 409 l 2
 606 410 609 410 610 408 c 0
 612 406 611 403 609 401 c 2
 530 349 l 1
 527 349 l 2
408 358 m 0
 392 369 380 369 372 367 c 1
 367 378 360 388 349 398 c 0
 326 419 288 405 264 393 c 1
 265 418 268 469 268 525 c 0
 268 560 260 582 245 591 c 0
 229 601 212 591 211 590 c 0
 209 589 208 587 207 585 c 0
 207 584 193 534 189 491 c 0
 188 474 183 453 178 430 c 0
 170 395 162 356 160 319 c 0
 160 283 170 229 180 181 c 0
 187 149 192 121 192 106 c 0
 192 97 192 87 190 76 c 0
 189 76 188 76 186 75 c 0
 183 73 180 70 179 67 c 2
 158 -3 l 2
 157 -6 158 -10 160 -14 c 0
 162 -17 165 -20 169 -21 c 2
 329 -65 l 1
 333 -65 l 1
 333 -65 338 -65 340 -63 c 0
 343 -61 346 -58 347 -55 c 2
 367 15 l 2
 369 18 368 22 366 26 c 0
 364 29 361 32 357 33 c 2
 332 40 l 1
 333 62 333 76 333 82 c 0
 333 90 337 94 354 111 c 0
 356 114 360 117 364 122 c 0
 390 148 392 176 392 179 c 1
 392 179 l 1
 392 180 l 1
 392 182 l 1
 392 208 l 2
 392 242 401 263 401 264 c 2
 415 302 l 2
 422 315 429 342 408 358 c 0
373 208 m 0
 373 192 373 185 374 180 c 1
 374 180 l 1
 374 179 l 1
 374 179 l 1
 374 179 373 156 351 135 c 0
 347 131 344 127 341 124 c 0
 324 108 315 99 315 82 c 0
 315 77 315 65 314 45 c 1
 209 74 l 1
 210 85 212 97 212 108 c 0
 212 124 206 153 199 186 c 0
 189 233 179 285 179 319 c 0
 180 354 188 392 196 426 c 0
 201 449 206 472 207 490 c 0
 210 524 220 563 223 576 c 0
 226 576 231 577 235 575 c 0
 240 572 249 562 249 526 c 0
 249 445 244 379 243 378 c 0
 243 376 244 374 244 372 c 1
 244 372 l 1
 244 372 l 1
 245 372 246 371 247 370 c 2
 247 369 l 1
 247 369 l 1
 247 369 263 359 271 340 c 0
 280 319 281 299 281 299 c 2
 281 295 284 292 287 290 c 2
 287 290 310 281 319 276 c 0
 324 274 329 275 332 279 c 2
 332 279 338 290 346 303 c 2
 348 306 l 2
 352 313 356 320 359 326 c 2
 360 327 l 1
 360 329 l 1
 365 338 l 1
 365 338 367 341 372 344 c 0
 373 346 374 347 374 348 c 0
 379 351 387 349 396 343 c 0
 408 334 399 313 397 310 c 2
 383 271 l 2
 384 269 373 246 373 208 c 0
330 -45 m 1
 178 -4 l 1
 197 58 l 1
 349 17 l 1
 330 -45 l 1
350 347 m 2
 344 335 l 1
 331 313 l 1
 330 312 l 2
 326 306 323 300 321 296 c 1
 315 299 308 302 302 304 c 1
 333 331 332 351 331 353 c 0
 331 356 330 358 328 359 c 0
 326 360 324 361 321 361 c 0
 316 360 312 356 313 351 c 2
 313 351 313 340 296 324 c 1
 294 331 292 339 288 347 c 0
 283 359 275 369 269 375 c 1
 293 388 322 396 335 384 c 0
 345 374 352 365 354 356 c 0
 354 353 351 350 350 347 c 2
858 328 m 1
 735 310 l 1
 742 331 l 1
 512 297 l 2
 482 293 462 265 466 235 c 0
 468 221 476 208 488 200 c 0
 494 195 501 192 509 190 c 0
 513 190 516 189 519 189 c 0
 522 189 525 189 528 190 c 2
 708 217 l 1
 714 236 l 1
 815 251 l 1
 858 328 l 1
715 308 m 1
 693 233 l 1
 525 208 l 2
 516 207 506 209 499 215 c 0
 491 220 486 229 485 238 c 0
 482 257 495 274 515 278 c 2
 715 308 l 1
725 245 m 1
 740 301 l 1
 843 317 l 1
 810 258 l 1
 725 245 l 1
524 232 m 2
 529 232 l 1
 548 235 l 2
 549 233 549 231 551 231 c 0
 553 229 555 229 557 229 c 2
 600 235 l 2
 602 235 604 237 606 239 c 0
 607 240 607 242 607 244 c 2
 685 256 l 1
 694 281 l 1
 604 268 l 1
 602 272 599 274 594 274 c 2
 552 267 l 2
 548 266 545 263 545 258 c 1
 526 256 l 2
 522 255 519 254 518 251 c 0
 516 248 515 245 516 242 c 0
 517 238 518 235 521 234 c 0
 521 233 523 233 524 232 c 2
EndSplineSet
EndChar

StartChar: tenir-xacto
Encoding: 19 59410 18
Width: 1000
LayerCount: 2
Fore
SplineSet
498 -27 m 0
 383 -27 274 29 206 124 c 0
 161 185 138 258 138 333 c 0
 138 532 299 693 498 693 c 0
 697 693 858 532 858 333 c 0
 858 135 697 -27 498 -27 c 0
498 660 m 0
 318 660 172 513 172 333 c 0
 172 265 193 199 233 144 c 0
 294 58 393 7 498 7 c 1
 498 7 l 1
 678 7 824 154 824 333 c 0
 824 513 679 660 498 660 c 0
316 533 m 0
 291 532 230 504 219 499 c 0
 218 498 194 497 194 497 c 2
 187 497 181 491 181 484 c 0
 181 477 188 472 194 472 c 2
 217 472 l 2
 222 472 226 474 231 476 c 0
 249 485 300 507 317 508 c 0
 339 508 483 513 483 513 c 2
 486 513 495 513 501 508 c 0
 508 501 506 490 506 488 c 2
 435 485 l 2
 428 485 422 479 423 472 c 1
 423 472 l 1
 423 465 429 460 436 460 c 2
 548 465 l 2
 554 463 558 460 559 455 c 0
 562 447 560 438 557 435 c 1
 557 435 l 1
 456 432 l 2
 449 432 443 426 444 419 c 0
 444 412 450 406 457 406 c 2
 457 406 572 410 573 410 c 0
 579 410 595 398 583 379 c 1
 458 376 l 2
 451 376 446 369 446 363 c 0
 446 356 452 350 459 350 c 2
 592 354 l 2
 601 354 609 350 609 340 c 0
 610 327 604 325 597 324 c 0
 590 324 427 319 422 319 c 0
 410 318 406 301 417 294 c 2
 440 281 l 2
 465 267 499 247 500 231 c 2
 500 230 l 2
 500 225 498 222 498 221 c 0
 497 219 494 215 479 219 c 0
 475 221 454 232 435 242 c 0
 394 265 361 283 350 287 c 0
 342 290 311 299 304 303 c 0
 280 314 240 348 235 353 c 0
 232 356 229 357 225 357 c 2
 199 356 l 2
 192 356 186 350 186 343 c 0
 186 336 192 331 199 331 c 2
 221 331 l 1
 236 317 273 289 293 280 c 0
 303 276 334 265 342 263 c 0
 352 260 394 237 424 220 c 0
 458 201 467 197 470 195 c 0
 497 186 510 196 517 204 c 1
 547 173 l 2
 552 168 558 169 563 170 c 1
 604 125 l 2
 606 122 610 121 614 121 c 2
 713 122 l 2
 718 122 723 125 724 130 c 0
 726 135 725 140 722 143 c 2
 646 227 l 1
 648 232 647 237 644 241 c 2
 590 300 l 1
 596 300 600 301 601 301 c 0
 624 303 636 318 635 342 c 0
 634 360 623 373 608 378 c 1
 610 383 610 390 610 395 c 0
 610 414 598 429 583 435 c 1
 585 444 585 454 581 464 c 0
 576 479 564 488 549 490 c 2
 528 490 l 1
 531 495 526 519 517 526 c 0
 504 538 485 538 481 538 c 1
 482 539 338 534 316 533 c 0
685 147 m 1
 619 146 l 1
 594 174 l 1
 610 176 l 2
 615 176 617 179 619 182 c 2
 633 205 l 1
 685 147 l 1
557 299 m 1
 619 231 l 1
 600 200 l 1
 560 195 l 1
 524 233 l 1
 522 260 492 279 463 297 c 1
 489 297 528 298 557 299 c 1
EndSplineSet
EndChar

StartChar: xacto
Encoding: 20 59411 19
Width: 1000
LayerCount: 2
Fore
SplineSet
749 214 m 1
 633 331 l 1
 638 331 642 333 646 337 c 2
 659 350 l 2
 663 354 665 358 665 363 c 1
 760 267 l 1
 749 214 l 1
 749 214 l 1
603 380 m 1
 599 376 597 372 597 367 c 1
 516 447 l 1
 548 479 l 1
 629 399 l 1
 624 398 619 396 616 392 c 2
 603 380 l 1
 603 380 l 1
404 551 m 1
 390 536 367 536 353 551 c 0
 339 566 338 588 353 602 c 0
 367 617 390 617 404 602 c 0
 418 588 418 565 404 551 c 1
 404 551 l 1
736 360 m 1
 464 633 l 2
 425 672 361 672 322 633 c 0
 283 594 283 530 322 491 c 0
 351 463 392 455 427 467 c 1
 635 260 l 2
 647 248 664 245 679 251 c 1
 764 165 l 1
 787 275 l 1
 745 317 l 1
 751 331 748 349 736 360 c 1
 736 360 l 1
9 166 m 1
 9 -1 l 1
 990 -1 l 1
 990 166 l 1
 9 166 l 1
972 16 m 1
 26 16 l 1
 26 149 l 1
 58 149 l 1
 58 95 l 1
 69 95 l 1
 69 149 l 1
 116 149 l 1
 116 95 l 1
 128 95 l 1
 128 149 l 1
 174 149 l 1
 174 95 l 1
 185 95 l 1
 185 149 l 1
 232 149 l 1
 232 95 l 1
 244 95 l 1
 244 149 l 1
 290 149 l 1
 290 95 l 1
 302 95 l 1
 302 149 l 1
 349 149 l 1
 349 95 l 1
 360 95 l 1
 360 149 l 1
 407 149 l 1
 407 95 l 1
 419 95 l 1
 419 149 l 1
 465 149 l 1
 465 95 l 1
 477 95 l 1
 477 149 l 1
 524 149 l 1
 524 95 l 1
 535 95 l 1
 535 149 l 1
 581 149 l 1
 581 95 l 1
 593 95 l 1
 593 149 l 1
 639 149 l 1
 639 95 l 1
 651 95 l 1
 651 149 l 1
 697 149 l 1
 697 95 l 1
 709 95 l 1
 709 149 l 1
 756 149 l 1
 756 95 l 1
 767 95 l 1
 767 149 l 1
 814 149 l 1
 814 95 l 1
 826 95 l 1
 826 149 l 1
 872 149 l 1
 872 95 l 1
 884 95 l 1
 884 149 l 1
 931 149 l 1
 931 95 l 1
 942 95 l 1
 942 149 l 1
 972 149 l 1
 972 16 l 1
EndSplineSet
EndChar

StartChar: chaussures-adequates
Encoding: 21 59412 20
Width: 1000
LayerCount: 2
Fore
SplineSet
498 698 m 0
 299 698 138 537 138 338 c 0
 138 263 162 190 206 129 c 0
 274 34 383 -22 498 -22 c 0
 697 -22 858 139 858 338 c 0
 858 536 697 698 498 698 c 0
172 338 m 0
 172 517 318 664 498 664 c 0
 601 664 692 616 752 542 c 1
 238 142 l 1
 237 144 235 146 233 148 c 0
 193 204 172 269 172 338 c 0
498 11 m 1
 498 11 l 1
 408 11 321 49 259 115 c 1
 772 514 l 1
 805 463 824 402 824 337 c 0
 824 158 679 11 498 11 c 1
788 394 m 0
 766 433 707 465 636 481 c 1
 623 494 608 505 594 510 c 0
 548 526 513 527 502 526 c 1
 468 560 413 613 371 592 c 0
 347 580 332 559 332 538 c 0
 332 519 342 490 394 462 c 0
 406 456 416 449 425 444 c 1
 426 430 433 390 496 376 c 1
 511 360 530 342 558 322 c 0
 598 294 645 279 688 279 c 0
 703 279 717 281 729 285 c 0
 759 293 781 310 792 335 c 0
 799 354 799 375 788 394 c 0
606 487 m 1
 604 487 601 488 599 488 c 2
 598 488 l 1
 598 488 556 491 522 510 c 1
 538 509 561 505 588 495 c 0
 594 493 600 490 606 487 c 1
346 538 m 0
 346 556 362 571 376 579 c 0
 381 581 385 582 391 582 c 0
 424 582 466 540 493 514 c 0
 530 479 592 473 597 472 c 0
 608 471 618 469 629 467 c 1
 655 440 678 403 688 384 c 1
 656 383 571 381 507 390 c 0
 506 390 504 391 502 391 c 0
 499 394 496 397 493 401 c 0
 476 419 461 436 435 454 c 1
 435 454 434 454 434 455 c 0
 424 462 413 469 399 476 c 0
 365 495 346 516 346 538 c 0
441 430 m 1
 454 419 464 409 474 399 c 1
 454 408 445 420 441 430 c 1
776 341 m 0
 767 321 749 306 724 299 c 0
 676 286 615 301 565 335 c 0
 546 349 531 361 519 373 c 1
 558 369 600 367 635 367 c 0
 672 367 701 369 701 369 c 2
 704 369 706 370 707 373 c 0
 708 375 708 378 707 381 c 0
 706 383 683 425 654 461 c 1
 710 445 756 418 773 388 c 0
 783 372 783 356 776 341 c 0
652 195 m 2
 651 195 l 1
 651 195 l 1
 651 195 606 204 576 213 c 0
 552 221 488 242 433 332 c 0
 379 423 310 445 308 446 c 1
 308 446 l 1
 306 446 305 447 304 446 c 1
 304 446 l 1
 303 446 303 446 302 445 c 0
 299 443 230 401 241 338 c 1
 241 337 l 1
 241 337 l 1
 260 268 254 155 254 154 c 0
 254 151 254 149 256 147 c 0
 257 146 259 145 261 145 c 2
 262 145 l 1
 288 148 l 2
 290 148 292 149 294 151 c 0
 295 152 296 155 295 157 c 0
 288 203 306 232 315 243 c 1
 337 226 357 215 363 211 c 0
 367 205 385 177 399 133 c 0
 399 131 408 89 493 89 c 0
 506 89 520 90 537 92 c 0
 606 101 646 114 656 129 c 0
 658 133 659 135 659 137 c 0
 667 191 656 194 652 195 c 2
419 324 m 0
 471 239 531 212 571 199 c 0
 584 194 599 191 613 188 c 1
 600 184 585 181 568 178 c 0
 546 175 524 175 506 181 c 0
 479 192 440 236 409 279 c 0
 408 281 406 283 404 285 c 0
 397 297 388 310 380 323 c 0
 376 331 372 338 369 344 c 0
 356 372 338 401 325 421 c 1
 349 407 387 379 419 324 c 0
301 254 m 1
 291 240 272 210 277 163 c 1
 268 163 l 1
 269 184 270 240 264 291 c 1
 270 283 278 276 285 268 c 0
 290 263 296 258 301 254 c 1
642 140 m 2
 642 139 l 2
 641 136 628 122 533 109 c 0
 423 94 412 138 412 139 c 0
 396 192 374 222 372 224 c 2
 370 226 l 2
 369 226 329 249 297 281 c 0
 274 305 258 337 255 343 c 0
 248 385 285 417 301 429 c 1
 310 412 331 369 367 317 c 0
 375 302 386 285 399 268 c 0
 429 221 458 181 500 167 c 1
 500 167 l 1
 500 167 l 1
 501 167 l 1
 501 167 l 1
 520 160 544 160 569 164 c 0
 602 167 633 176 646 180 c 1
 647 171 645 155 642 140 c 2
EndSplineSet
EndChar

StartChar: cheveux
Encoding: 22 59413 21
Width: 1000
LayerCount: 2
Fore
SplineSet
145 137 m 0
 156 137 169 139 175 142 c 0
 190 148 206 158 217 169 c 0
 244 193 259 219 267 255 c 0
 274 290 274 319 274 354 c 0
 274 384 275 415 281 444 c 0
 286 467 297 490 310 510 c 0
 332 541 357 524 356 523 c 2
 356 523 337 493 377 474 c 1
 377 474 244 321 430 140 c 0
 438 132 445 126 451 122 c 0
 451 120 451 119 450 118 c 2
 450 118 431 27 422 -1 c 0
 399 -71 638 -142 647 -114 c 2
 647 -114 629 44 690 38 c 0
 725 35 787 32 799 35 c 0
 824 42 826 66 822 76 c 0
 815 89 820 94 824 96 c 0
 838 106 836 113 831 116 c 0
 828 117 826 118 824 119 c 1
 826 119 829 120 833 122 c 0
 838 126 839 130 839 133 c 2
 838 135 l 1
 823 154 824 162 826 165 c 2
 826 165 827 166 828 166 c 0
 860 181 862 192 860 197 c 2
 860 197 860 198 859 199 c 0
 813 253 804 284 801 290 c 1
 804 290 l 2
 806 291 809 293 813 294 c 0
 815 296 818 298 821 300 c 0
 823 302 825 305 826 307 c 0
 827 308 827 309 828 310 c 2
 828 313 l 1
 828 315 l 1
 826 315 l 1
 826 313 l 1
 826 313 825 313 824 312 c 0
 824 311 823 310 822 310 c 1
 822 309 821 308 819 308 c 1
 819 307 817 306 816 306 c 0
 815 306 814 306 813 305 c 0
 811 305 810 304 808 304 c 2
 801 304 l 1
 803 314 809 322 813 327 c 0
 816 333 818 339 819 344 c 1
 829 348 837 352 844 358 c 0
 849 361 849 371 850 380 c 0
 853 499 735 515 735 515 c 1
 735 515 610 622 446 533 c 1
 446 533 416 579 391 558 c 1
 394 560 351 586 349 588 c 0
 322 600 310 608 281 610 c 0
 198 617 155 555 147 479 c 0
 139 404 157 334 168 262 c 0
 172 235 181 195 167 170 c 0
 161 160 154 153 144 147 c 0
 137 145 139 137 145 137 c 0
823 117 m 1
 820 117 820 118 823 117 c 1
 823 117 l 1
EndSplineSet
EndChar

StartChar: choix-outils
Encoding: 23 59414 22
Width: 1000
LayerCount: 2
Fore
SplineSet
768 307 m 1
 767 308 l 2
 766 308 765 308 765 307 c 2
 655 198 l 1
 654 197 l 2
 654 196 654 195 655 195 c 2
 739 111 l 2
 751 99 767 93 783 93 c 0
 799 93 814 99 826 111 c 2
 852 137 l 2
 864 149 870 165 870 181 c 0
 870 197 864 213 852 224 c 2
 768 307 l 1
710 348 m 0
 710 349 710 349 709 349 c 2
 687 372 l 2
 683 376 676 379 671 380 c 0
 665 381 661 379 658 376 c 2
 586 304 l 2
 583 301 582 297 582 291 c 0
 583 285 585 279 590 275 c 2
 613 253 l 2
 613 252 613 252 614 252 c 0
 615 252 615 252 615 253 c 2
 708 346 l 2
 710 347 710 347 710 348 c 0
333 572 m 0
 340 562 345 554 347 553 c 0
 358 542 372 538 386 541 c 2
 387 541 l 2
 389 542 392 542 393 540 c 1
 393 540 l 1
 592 340 l 1
 594 340 l 1
 595 340 l 1
 621 366 l 1
 622 367 l 2
 622 368 622 369 621 369 c 2
 423 568 l 1
 423 568 l 1
 423 569 l 1
 422 569 l 1
 422 569 l 1
 422 570 l 1
 422 570 l 1
 422 571 l 1
 422 571 l 1
 422 572 l 1
 422 572 l 1
 422 572 l 1
 422 572 l 1
 425 587 421 602 410 614 c 0
 408 615 401 621 391 628 c 0
 376 638 357 651 340 661 c 0
 330 668 320 674 315 677 c 1
 284 646 l 1
 289 638 299 622 311 604 c 0
 319 593 327 581 333 572 c 0
752 322 m 2
 752 323 752 324 751 324 c 2
 731 344 l 1
 730 344 l 1
 729 344 l 1
 619 234 l 2
 618 234 618 233 618 233 c 2
 618 232 618 231 619 231 c 2
 639 211 l 1
 640 210 l 2
 641 210 642 210 642 211 c 2
 751 320 l 2
 752 321 752 322 752 322 c 2
593 28 m 2
 587 22 l 2
 554 -10 501 -10 469 24 c 2
 261 238 l 2
 256 243 253 250 252 258 c 2
 249 279 l 2
 249 282 247 285 245 287 c 2
 163 361 l 1
 267 462 l 1
 339 378 l 2
 341 375 344 374 347 373 c 2
 368 369 l 2
 375 368 382 365 387 360 c 2
 595 145 l 2
 626 113 626 60 593 28 c 2
192 362 m 1
 258 301 l 2
 265 296 268 289 269 281 c 2
 272 260 l 2
 272 257 274 254 276 252 c 2
 484 38 l 2
 508 13 548 12 573 36 c 2
 579 42 l 2
 604 67 605 106 581 131 c 2
 372 346 l 2
 370 348 367 349 365 349 c 2
 344 353 l 2
 335 354 329 358 323 365 c 2
 265 432 l 1
 192 362 l 1
283 445 m 2
 179 345 l 2
 174 340 166 340 161 345 c 0
 156 350 156 358 161 363 c 2
 265 463 l 2
 269 468 277 468 282 463 c 0
 288 458 288 450 283 445 c 2
341 203 m 1
 492 46 l 2
 512 26 544 26 563 44 c 2
 569 51 l 2
 590 70 590 102 571 122 c 2
 419 279 l 1
 341 203 l 1
381 181 m 0
 374 188 375 199 382 206 c 0
 389 213 400 212 406 205 c 0
 413 198 413 187 406 181 c 0
 399 174 388 174 381 181 c 0
492 92 m 0
 488 88 482 88 478 92 c 0
 474 96 474 102 478 106 c 0
 482 110 488 110 492 106 c 0
 497 102 497 95 492 92 c 0
472 143 m 0
 467 139 461 139 457 143 c 0
 453 147 453 154 457 158 c 0
 461 162 467 162 472 158 c 0
 476 154 476 147 472 143 c 0
556 89 m 0
 551 84 542 84 538 89 c 0
 533 94 533 103 538 108 c 0
 543 113 551 113 556 108 c 0
 562 103 562 94 556 89 c 0
463 197 m 0
 459 193 453 193 449 197 c 0
 444 201 444 208 449 212 c 0
 453 216 459 216 463 212 c 0
 467 208 467 201 463 197 c 0
EndSplineSet
EndChar

StartChar: couper-avec-xacto
Encoding: 24 59415 23
Width: 1000
LayerCount: 2
Fore
SplineSet
233 26 m 1
 137 75 l 2
 136 76 135 76 136 77 c 2
 165 133 l 1
 165 133 166 134 167 133 c 2
 263 85 l 2
 263 84 264 83 263 83 c 2
 235 27 l 2
 234 26 233 26 233 26 c 1
 233 26 l 1
365 342 m 0
 363 344 360 344 357 344 c 0
 354 344 351 344 349 342 c 0
 347 341 346 339 344 336 c 0
 342 333 341 330 335 315 c 0
 330 299 320 272 315 258 c 0
 309 244 308 244 308 244 c 2
 307 244 307 246 312 262 c 0
 317 278 329 308 334 325 c 0
 340 342 341 345 342 349 c 0
 342 352 342 355 341 358 c 0
 340 361 338 364 335 366 c 0
 333 368 329 369 326 369 c 0
 322 369 319 367 317 365 c 0
 315 363 313 360 311 358 c 0
 310 355 308 351 304 335 c 0
 299 320 289 292 284 279 c 0
 279 265 278 264 277 264 c 0
 276 264 276 265 279 277 c 0
 283 290 291 313 295 327 c 0
 300 341 301 346 302 349 c 0
 303 354 304 356 303 360 c 0
 302 363 301 365 299 367 c 0
 297 369 294 371 292 372 c 0
 289 372 286 372 284 371 c 0
 281 370 279 368 277 366 c 0
 275 364 274 361 272 358 c 0
 271 354 269 351 264 335 c 0
 258 319 249 291 244 276 c 0
 238 262 238 260 237 260 c 0
 236 260 236 262 240 274 c 0
 243 286 251 309 255 324 c 0
 259 338 260 342 261 347 c 0
 261 351 260 354 258 356 c 0
 257 358 254 360 251 360 c 0
 249 361 246 360 243 359 c 0
 240 358 238 355 235 350 c 0
 232 346 230 340 227 333 c 0
 224 326 221 318 217 309 c 0
 214 300 210 291 206 281 c 0
 202 269 197 258 193 246 c 0
 189 235 185 224 182 216 c 0
 179 208 178 201 176 195 c 0
 175 189 174 182 174 175 c 0
 174 168 175 161 177 155 c 0
 179 150 181 146 183 142 c 2
 258 104 l 2
 263 104 268 104 273 105 c 0
 282 107 291 110 299 115 c 0
 307 120 315 126 322 132 c 0
 330 138 338 145 345 151 c 0
 353 158 359 163 366 169 c 0
 374 176 381 183 387 188 c 0
 392 194 394 198 395 201 c 0
 397 205 397 208 395 211 c 0
 394 214 392 217 388 218 c 0
 385 219 381 220 376 219 c 0
 371 217 365 215 357 210 c 0
 349 205 339 198 333 194 c 0
 327 190 325 190 324 191 c 0
 323 192 323 194 324 199 c 0
 326 205 329 214 334 227 c 0
 338 240 344 257 350 273 c 0
 356 289 361 304 365 315 c 0
 369 325 370 331 370 335 c 0
 370 336 368 340 365 342 c 0
729 383 m 2
 484 609 l 2
 481 613 475 613 472 610 c 2
 140 364 l 2
 138 362 136 360 135 356 c 0
 135 354 136 351 138 349 c 2
 386 114 l 2
 388 112 390 111 393 111 c 0
 395 111 397 112 399 113 c 2
 729 369 l 2
 731 371 732 373 733 376 c 0
 732 379 731 381 729 383 c 2
394 134 m 1
 161 355 l 1
 477 589 l 1
 707 376 l 1
 394 134 l 1
873 501 m 1
 867 379 l 1
 867 379 866 377 865 377 c 2
 794 381 l 1
 794 381 792 381 792 383 c 2
 799 505 l 2
 799 506 799 507 801 507 c 2
 871 504 l 2
 872 503 873 502 873 501 c 1
 873 501 l 1
783 390 m 1
 788 497 l 1
 738 514 697 547 640 561 c 1
 606 504 l 1
 609 504 667 488 650 468 c 0
 628 442 577 454 546 446 c 0
 520 440 524 415 555 408 c 0
 618 394 714 397 783 390 c 1
 783 390 l 1
467 466 m 1
 439 480 508 569 521 588 c 0
 527 597 535 601 546 604 c 1
 535 585 471 482 468 472 c 2
 467 466 l 1
 467 466 l 1
522 455 m 1
 561 517 l 1
 563 515 l 2
 565 514 567 515 568 517 c 2
 587 547 l 2
 588 549 588 551 585 552 c 2
 583 554 l 1
 594 570 l 2
 596 573 594 577 592 579 c 0
 589 581 585 580 583 577 c 2
 572 560 l 1
 570 562 l 2
 569 563 566 563 565 560 c 2
 547 530 l 2
 545 529 546 526 548 525 c 2
 550 524 l 1
 515 467 l 1
 522 455 l 1
568 557 m 1
 583 548 l 1
 581 544 l 1
 566 554 l 1
 568 557 l 1
563 549 m 1
 578 540 l 1
 576 537 l 1
 561 546 l 1
 563 549 l 1
558 541 m 1
 573 532 l 1
 571 529 l 1
 556 538 l 1
 558 541 l 1
554 533 m 1
 568 524 l 1
 566 521 l 1
 551 530 l 1
 554 533 l 1
517 431 m 0
 517 439 523 449 540 454 c 0
 546 455 553 456 560 456 c 1
 624 559 l 2
 635 576 629 599 612 610 c 1
 612 610 l 1
 594 621 572 615 561 598 c 2
 483 475 l 1
 490 465 l 1
 511 433 l 1
 515 427 l 1
 519 421 l 1
 528 407 l 1
 530 410 l 1
 522 415 517 422 517 431 c 0
548 525 m 2
 547 526 546 529 547 530 c 2
 565 560 l 2
 567 562 569 563 570 562 c 2
 572 560 l 1
 583 577 l 2
 585 580 589 581 592 579 c 0
 594 577 596 573 594 570 c 2
 583 554 l 1
 585 552 l 2
 587 551 588 549 587 547 c 2
 568 517 l 2
 567 515 565 515 563 515 c 2
 561 517 l 1
 522 455 l 1
 515 468 l 1
 549 524 l 1
 548 525 l 2
393 243 m 0
 389 243 385 245 384 249 c 0
 382 254 384 260 389 262 c 0
 394 266 429 299 460 329 c 0
 464 333 470 333 474 329 c 0
 478 325 478 319 474 315 c 0
 405 247 399 245 397 244 c 0
 396 243 394 243 393 243 c 0
EndSplineSet
EndChar

StartChar: bloc-argile_n
Encoding: 25 59416 24
Width: 1000
LayerCount: 2
Fore
SplineSet
744 466 m 2
 531 486 l 2
 522 487 508 488 494 488 c 0
 480 488 467 487 457 486 c 2
 244 466 l 2
 218 464 195 439 194 413 c 2
 190 285 l 2
 191 284 192 282 193 281 c 2
 276 254 l 2
 278 254 282 253 288 253 c 0
 299 253 309 256 312 257 c 2
 368 285 l 2
 381 292 403 310 412 322 c 2
 431 349 l 2
 447 369 469 381 493 381 c 0
 517 381 540 369 555 349 c 2
 574 322 l 2
 583 310 605 292 618 285 c 2
 674 257 l 2
 678 256 687 253 698 253 c 0
 704 253 708 254 710 254 c 2
 793 281 l 2
 794 282 796 284 796 285 c 2
 792 413 l 2
 792 439 769 464 744 466 c 2
322 458 m 1
 379 439 l 1
 322 458 l 1
436 419 m 1
 493 401 l 1
 436 419 l 1
436 533 m 1
 493 515 l 1
 436 533 l 1
550 496 m 1
 607 476 l 1
 550 496 l 1
550 610 m 1
 607 591 l 1
 550 610 l 1
664 572 m 1
 721 553 l 1
 664 572 l 1
550 705 m 1
 322 553 l 1
 94 401 l 1
 474 286 l 1
 702 439 l 1
 931 591 l 1
 550 705 l 1
931 591 m 1
 931 306 l 1
 702 154 l 1
 474 1 l 1
 94 115 l 1
 94 401 l 1
 931 591 l 1
474 286 m 1
 474 1 l 1
 474 286 l 1
EndSplineSet
EndChar

StartChar: ce-travai-compte_n
Encoding: 26 59417 25
Width: 1000
LayerCount: 2
Fore
SplineSet
573 285 m 2
 400 112 l 1
 367 79 l 2
 363 75 357 73 351 73 c 0
 345 73 339 75 335 79 c 2
 302 112 l 1
 215 199 l 2
 211 203 209 209 209 215 c 0
 209 221 211 227 215 231 c 2
 248 264 l 2
 252 268 258 271 264 271 c 0
 270 271 276 268 281 264 c 2
 351 193 l 1
 508 351 l 2
 512 355 518 357 524 357 c 0
 530 357 536 355 541 351 c 2
 573 318 l 2
 578 314 580 308 580 302 c 0
 580 296 577 290 573 285 c 2
941 592 m 0
 941 462 836 357 706 357 c 0
 576 357 471 463 471 592 c 0
 471 721 577 827 706 827 c 0
 835 827 941 722 941 592 c 0
750 741 m 2
 750 743 750 745 747 746 c 0
 746 748 743 749 740 749 c 2
 673 749 l 2
 670 749 667 748 665 746 c 0
 663 745 662 743 662 741 c 2
 668 551 l 2
 668 547 672 543 678 543 c 2
 735 543 l 2
 740 543 745 547 745 551 c 2
 750 741 l 2
746 504 m 2
 746 509 741 514 736 514 c 2
 677 514 l 2
 672 514 667 509 667 504 c 2
 667 446 l 2
 667 440 672 436 677 436 c 2
 736 436 l 2
 741 436 746 440 746 446 c 2
 746 504 l 2
645 -11 m 1
 645 -43 620 -68 588 -68 c 2
 180 -68 l 2
 149 -68 123 -43 123 -11 c 2
 123 525 l 2
 123 557 149 582 180 582 c 2
 420 582 l 1
 420 592 l 2
 420 610 421 627 424 643 c 1
 180 643 l 2
 115 643 62 590 62 525 c 2
 62 -11 l 2
 62 -76 115 -129 180 -129 c 2
 588 -129 l 2
 653 -129 706 -76 706 -11 c 2
 706 305 l 1
 686 305 665 308 646 312 c 1
 646 -11 l 1
 645 -11 l 1
EndSplineSet
EndChar

StartChar: collaboration_n
Encoding: 27 59418 26
Width: 1000
LayerCount: 2
Fore
SplineSet
984 224 m 2
 939 562 l 2
 939 567 936 571 932 574 c 0
 928 578 923 579 918 578 c 2
 789 560 l 2
 782 559 777 554 774 548 c 1
 773 549 771 550 770 550 c 0
 758 555 474 667 360 582 c 1
 213 575 l 1
 85 594 l 2
 80 594 75 593 71 590 c 0
 67 587 64 582 64 577 c 2
 19 239 l 2
 18 234 20 229 23 224 c 0
 27 220 32 218 37 218 c 2
 167 216 l 2
 175 216 182 221 185 229 c 2
 194 255 l 1
 424 100 l 2
 424 99 425 99 426 98 c 0
 443 90 468 82 492 82 c 0
 514 82 536 89 550 108 c 1
 560 105 570 103 580 103 c 0
 583 103 587 103 590 104 c 0
 610 106 627 117 640 134 c 0
 644 139 645 146 643 151 c 1
 646 151 l 1
 653 151 l 2
 680 153 702 167 719 191 c 0
 721 194 722 197 723 200 c 0
 735 201 747 205 756 214 c 1
 757 214 l 1
 768 222 786 246 800 265 c 1
 800 265 l 1
 800 264 800 264 801 263 c 2
 818 213 l 2
 821 205 828 200 836 200 c 1
 836 200 l 1
 965 202 l 2
 971 202 976 205 980 209 c 0
 984 213 985 218 984 224 c 2
756 515 m 0
 760 513 764 513 768 515 c 1
 765 460 779 372 790 316 c 1
 785 311 l 2
 780 303 774 295 768 287 c 1
 756 312 733 330 713 345 c 0
 651 388 502 481 496 485 c 0
 492 488 487 489 482 488 c 2
 429 477 l 2
 424 477 420 474 417 470 c 0
 385 423 359 408 348 410 c 0
 339 412 335 424 334 429 c 0
 325 462 339 515 379 549 c 0
 456 614 677 547 756 515 c 0
59 256 m 1
 99 553 l 1
 196 539 l 1
 203 490 182 364 166 290 c 1
 153 254 l 1
 59 256 l 1
650 189 m 0
 620 187 584 214 573 224 c 0
 573 225 572 225 572 226 c 2
 515 271 l 2
 506 278 494 277 488 268 c 0
 482 259 483 248 491 241 c 2
 547 196 l 2
 552 192 578 169 610 157 c 1
 609 157 l 1
 603 148 595 143 585 142 c 0
 559 138 526 160 515 169 c 2
 458 215 l 2
 449 221 437 220 431 212 c 0
 424 204 426 192 434 185 c 2
 491 140 l 2
 493 138 501 132 513 125 c 1
 491 112 451 129 444 132 c 2
 206 293 l 1
 215 337 240 470 234 538 c 1
 323 542 l 1
 295 501 288 453 297 419 c 0
 304 393 320 377 341 373 c 0
 363 369 398 378 444 441 c 1
 482 449 l 1
 512 430 637 352 691 313 c 0
 710 300 732 282 738 261 c 0
 740 254 736 248 733 244 c 0
 731 242 725 237 717 239 c 0
 676 248 627 280 586 323 c 0
 578 331 566 331 559 324 c 0
 551 316 551 304 558 297 c 0
 577 276 626 230 685 209 c 1
 675 197 663 190 650 189 c 0
850 239 m 1
 837 274 l 1
 821 349 800 474 807 524 c 1
 904 538 l 1
 944 240 l 1
 850 239 l 1
EndSplineSet
EndChar

StartChar: communiquer_n
Encoding: 28 59419 27
Width: 1000
LayerCount: 2
Fore
SplineSet
562 69 m 0
 541 69 531 57 497 57 c 0
 463 57 452 69 431 69 c 0
 377 69 333 25 333 -29 c 2
 333 -48 l 2
 333 -67 349 -83 368 -83 c 2
 625 -83 l 2
 644 -83 660 -67 660 -48 c 2
 660 -29 l 2
 660 25 616 69 562 69 c 0
497 96 m 0
 555 96 602 143 602 201 c 0
 602 259 555 306 497 306 c 0
 439 306 392 259 392 201 c 0
 392 143 439 96 497 96 c 0
254 69 m 0
 233 69 223 57 189 57 c 0
 155 57 144 69 123 69 c 0
 69 69 25 25 25 -29 c 2
 25 -48 l 2
 25 -67 41 -83 60 -83 c 2
 317 -83 l 2
 336 -83 352 -67 352 -48 c 2
 352 -29 l 2
 352 25 308 69 254 69 c 0
189 96 m 0
 247 96 294 143 294 201 c 0
 294 259 247 306 189 306 c 0
 131 306 84 259 84 201 c 0
 84 143 131 96 189 96 c 0
870 69 m 0
 849 69 839 57 805 57 c 0
 770 57 760 69 739 69 c 0
 685 69 641 25 641 -29 c 2
 641 -48 l 2
 641 -67 657 -83 676 -83 c 2
 933 -83 l 2
 953 -83 968 -67 968 -48 c 2
 968 -29 l 2
 968 25 924 69 870 69 c 0
805 96 m 0
 863 96 910 143 910 201 c 0
 910 259 863 306 805 306 c 0
 747 306 700 259 700 201 c 0
 700 143 747 96 805 96 c 0
638 389 m 1
 639 388 l 1
 661 372 696 354 740 354 c 0
 746 354 751 357 753 363 c 0
 755 369 754 374 750 378 c 2
 750 378 727 403 715 433 c 2
 714 436 l 1
 716 437 l 1
 741 464 754 495 754 529 c 0
 754 612 671 679 568 679 c 0
 465 679 382 612 382 529 c 0
 382 446 465 378 568 378 c 0
 591 378 614 381 636 388 c 2
 638 389 l 1
709 386 m 1
 699 389 l 2
 684 394 669 401 655 411 c 2
 642 420 l 1
 627 415 l 2
 608 409 588 406 568 406 c 0
 481 406 410 461 410 529 c 0
 410 597 481 651 568 651 c 0
 655 651 726 596 726 529 c 0
 726 496 709 471 696 457 c 2
 682 442 l 1
 689 424 l 2
 692 414 697 404 703 394 c 2
 709 386 l 1
403 544 m 1
 349 544 l 1
 265 480 l 1
 265 544 l 1
 226 544 l 2
 212 544 200 555 200 570 c 2
 200 726 l 2
 200 741 212 753 226 753 c 2
 501 753 l 2
 515 753 527 741 527 726 c 2
 527 663 l 1
 554 665 l 1
 554 726 l 2
 554 756 530 780 501 780 c 2
 226 780 l 2
 197 780 173 756 173 726 c 2
 173 570 l 2
 173 540 197 516 226 516 c 2
 238 516 l 1
 238 446 l 2
 238 440 243 436 248 436 c 0
 250 436 252 437 254 438 c 2
 358 516 l 1
 399 516 l 1
 403 544 l 1
EndSplineSet
EndChar

StartChar: consignes-audio_n
Encoding: 29 59420 28
Width: 1000
LayerCount: 2
Fore
SplineSet
524 175 m 0
 430 175 354 251 354 345 c 0
 354 439 430 515 524 515 c 0
 618 515 694 439 694 345 c 0
 694 251 617 175 524 175 c 0
580 274 m 2
 580 278 577 281 573 281 c 2
 552 281 l 1
 552 394 l 2
 552 398 549 402 545 402 c 2
 474 402 l 2
 470 402 467 398 467 394 c 2
 467 359 l 2
 467 355 470 352 474 352 c 2
 495 352 l 1
 495 281 l 1
 474 281 l 2
 470 281 467 278 467 274 c 2
 467 239 l 2
 467 235 470 232 474 232 c 2
 573 232 l 2
 577 232 580 235 580 239 c 2
 580 274 l 2
552 472 m 2
 552 476 549 479 545 479 c 2
 502 479 l 2
 498 479 495 476 495 472 c 2
 495 437 l 2
 495 433 498 430 502 430 c 2
 545 430 l 2
 549 430 552 433 552 437 c 2
 552 472 l 2
732 747 m 0
 720 747 711 736 711 724 c 0
 711 714 714 709 725 702 c 0
 729 699 732 698 736 696 c 0
 741 694 745 692 749 690 c 0
 766 680 782 670 795 659 c 0
 887 586 942 470 942 348 c 0
 942 226 887 109 795 37 c 0
 782 26 766 16 749 6 c 0
 745 3 741 1 736 -1 c 0
 732 -2 729 -4 725 -6 c 0
 714 -13 711 -19 711 -28 c 0
 711 -44 725 -56 741 -49 c 0
 889 19 985 175 985 348 c 0
 985 521 889 677 741 745 c 0
 738 746 735 747 732 747 c 0
677 610 m 0
 666 610 656 600 656 587 c 0
 656 581 657 572 670 565 c 2
 675 562 l 2
 688 555 701 548 713 539 c 0
 769 495 803 423 803 348 c 0
 803 272 769 201 713 157 c 0
 701 147 688 140 675 133 c 2
 670 130 l 2
 657 123 656 114 656 108 c 0
 656 96 666 85 678 85 c 0
 680 85 684 86 687 87 c 0
 782 131 846 235 846 348 c 0
 846 461 782 565 686 608 c 0
 684 609 680 610 677 610 c 0
254 122 m 0
 244 122 236 126 229 133 c 2
 122 240 l 1
 39 240 l 2
 20 240 5 256 5 275 c 2
 5 404 l 2
 5 423 20 438 39 438 c 2
 122 438 l 1
 229 546 l 2
 236 553 244 556 254 556 c 0
 273 556 288 541 288 522 c 2
 288 157 l 2
 288 138 273 122 254 122 c 0
EndSplineSet
EndChar

StartChar: consultable-sur-un-cellulaire_n
Encoding: 30 59421 29
Width: 1000
LayerCount: 2
Fore
SplineSet
682 356 m 0
 643 292 572 249 496 249 c 0
 420 249 350 292 311 356 c 0
 308 360 307 365 307 370 c 0
 307 375 308 381 311 385 c 0
 350 449 421 492 496 492 c 0
 571 492 643 449 682 385 c 0
 684 381 686 376 686 370 c 0
 686 364 684 360 682 356 c 0
578 445 m 1
 587 431 591 414 591 398 c 0
 591 345 549 303 496 303 c 0
 443 303 401 345 401 398 c 0
 401 414 406 431 414 445 c 1
 381 428 354 402 334 370 c 1
 370 315 428 276 496 276 c 0
 564 276 623 315 659 370 c 1
 639 402 611 428 578 445 c 1
496 462 m 0
 461 462 432 433 432 398 c 0
 432 392 437 387 442 387 c 0
 447 387 452 392 452 398 c 0
 452 422 472 442 496 442 c 0
 502 442 506 446 506 452 c 0
 506 458 502 462 496 462 c 0
785 -37 m 2
 785 -90 741 -133 688 -133 c 2
 302 -133 l 2
 250 -133 206 -90 206 -37 c 2
 206 735 l 2
 206 788 250 831 302 831 c 2
 688 831 l 2
 741 831 785 788 785 735 c 2
 785 -37 l 2
713 614 m 1
 713 627 701 639 688 639 c 2
 302 639 l 2
 290 639 278 627 278 614 c 2
 278 84 l 2
 278 71 290 60 302 60 c 2
 688 60 l 2
 701 60 712 71 712 84 c 2
 712 614 l 1
 713 614 l 1
556 735 m 2
 435 735 l 2
 428 735 423 730 423 723 c 0
 423 716 428 711 435 711 c 2
 556 711 l 2
 563 711 568 716 568 723 c 0
 568 730 563 735 556 735 c 2
495 24 m 0
 462 24 435 -4 435 -37 c 0
 435 -70 462 -97 495 -97 c 0
 529 -97 556 -70 556 -37 c 0
 556 -4 529 24 495 24 c 0
EndSplineSet
EndChar

StartChar: consultable-sur-une-tablette_n
Encoding: 31 59422 30
Width: 1000
LayerCount: 2
Fore
SplineSet
897 -22 m 2
 897 -82 848 -130 788 -130 c 2
 223 -130 l 2
 164 -130 115 -82 115 -22 c 2
 115 717 l 2
 115 777 164 826 223 826 c 2
 788 826 l 2
 848 826 897 777 897 717 c 2
 897 -22 l 2
810 717 m 2
 810 729 800 739 788 739 c 2
 223 739 l 2
 212 739 202 729 202 717 c 2
 202 65 l 2
 202 54 212 44 223 44 c 2
 788 44 l 2
 800 44 810 54 810 65 c 2
 810 717 l 2
506 0 m 0
 482 0 462 -20 462 -44 c 0
 462 -67 482 -87 506 -87 c 0
 530 -87 549 -67 549 -44 c 0
 549 -20 530 0 506 0 c 0
749 367 m 0
 696 279 599 220 496 220 c 0
 393 220 296 279 243 367 c 0
 239 373 237 379 237 387 c 0
 237 395 239 401 243 407 c 0
 296 494 394 553 496 553 c 0
 598 553 696 494 749 407 c 0
 753 401 755 394 755 387 c 0
 755 379 753 373 749 367 c 0
608 489 m 1
 620 469 626 447 626 424 c 0
 626 352 568 294 496 294 c 0
 424 294 367 352 367 424 c 0
 367 447 373 469 384 489 c 1
 339 466 302 429 274 387 c 1
 324 310 403 257 496 257 c 0
 589 257 669 310 718 387 c 1
 691 429 653 466 608 489 c 1
496 512 m 0
 448 512 408 472 408 424 c 0
 408 416 415 410 422 410 c 0
 429 410 436 416 436 424 c 0
 436 457 463 484 496 484 c 0
 504 484 510 490 510 498 c 0
 510 506 504 512 496 512 c 0
EndSplineSet
EndChar

StartChar: consultable-sur-un-ordi_n
Encoding: 32 59423 31
Width: 1000
LayerCount: 2
Fore
SplineSet
709 413 m 0
 667 344 591 297 510 297 c 0
 429 297 353 344 311 413 c 0
 308 417 306 423 306 428 c 0
 306 433 308 439 311 444 c 0
 353 513 429 559 510 559 c 0
 591 559 667 513 709 444 c 0
 712 439 714 434 714 428 c 0
 714 422 712 417 709 413 c 0
598 509 m 1
 607 493 612 475 612 457 c 0
 612 401 566 356 510 356 c 0
 454 356 408 401 408 457 c 0
 408 475 413 493 422 509 c 1
 386 490 357 462 335 428 c 1
 374 368 437 326 510 326 c 0
 583 326 646 368 685 428 c 1
 663 462 633 490 598 509 c 1
510 527 m 0
 472 527 441 495 441 457 c 0
 441 452 446 447 452 447 c 0
 458 447 463 452 463 457 c 0
 463 483 484 505 510 505 c 0
 516 505 521 510 521 516 c 0
 521 522 516 527 510 527 c 0
991 133 m 1
 991 84 l 2
 991 57 954 35 910 35 c 2
 92 35 l 2
 47 35 10 57 10 84 c 2
 10 133 l 1
 92 133 l 1
 910 133 l 1
 991 133 l 1
141 247 m 2
 141 607 l 2
 141 652 178 689 223 689 c 2
 779 689 l 2
 824 689 861 652 861 607 c 2
 861 247 l 2
 861 203 824 166 779 166 c 2
 223 166 l 2
 178 166 141 202 141 247 c 2
207 247 m 2
 207 239 214 231 223 231 c 2
 779 231 l 2
 787 231 795 239 795 247 c 2
 795 607 l 2
 795 616 787 623 779 623 c 2
 223 623 l 2
 214 623 207 616 207 607 c 2
 207 247 l 2
550 92 m 0
 550 97 546 100 542 100 c 2
 460 100 l 2
 455 100 452 97 452 92 c 0
 452 87 455 84 460 84 c 2
 542 84 l 2
 546 84 550 88 550 92 c 0
EndSplineSet
EndChar

StartChar: consulte-la-carte_n
Encoding: 33 59424 32
Width: 1000
LayerCount: 2
Fore
SplineSet
416 215 m 1
 276 271 l 1
 276 712 l 1
 476 632 l 1
 476 398 l 1
 483 406 490 414 498 421 c 1
 498 632 l 1
 687 707 l 1
 687 493 l 1
 702 493 717 491 731 489 c 1
 731 740 l 2
 731 748 728 755 722 759 c 0
 715 763 708 764 701 761 c 2
 487 675 l 1
 273 761 l 2
 268 763 262 763 256 761 c 2
 34 672 l 2
 26 669 20 661 20 652 c 2
 20 163 l 2
 20 155 24 148 30 144 c 0
 34 142 38 140 43 140 c 0
 45 140 48 141 51 142 c 2
 265 228 l 1
 423 164 l 1
 419 181 417 198 416 215 c 1
254 271 m 1
 65 196 l 1
 65 637 l 1
 254 712 l 1
 254 271 l 1
970 -5 m 2
 862 104 l 1
 888 140 901 185 901 229 c 0
 901 352 802 451 679 451 c 0
 556 451 458 352 458 229 c 0
 458 106 557 7 679 7 c 0
 724 7 768 21 805 47 c 1
 913 -61 l 2
 921 -69 931 -73 942 -73 c 0
 964 -73 982 -55 982 -33 c 0
 982 -22 978 -12 970 -5 c 2
679 72 m 0
 593 72 522 142 522 229 c 0
 522 316 593 387 679 387 c 0
 765 387 837 316 837 229 c 0
 837 142 766 72 679 72 c 0
EndSplineSet
EndChar

StartChar: consulte-le-diagramme_n
Encoding: 34 59425 33
Width: 1000
LayerCount: 2
Fore
SplineSet
306 796 m 1
 226 788 149 749 95 681 c 1
 339 484 l 1
 306 796 l 1
82 625 m 1
 -26 491 -5 295 129 187 c 1
 325 429 l 1
 82 625 l 1
433 203 m 0
 433 348 551 466 696 466 c 0
 700 466 704 465 708 465 c 1
 700 546 662 624 594 679 c 0
 526 733 443 755 363 746 c 1
 396 435 l 1
 202 194 l 1
 272 137 360 116 444 129 c 1
 437 152 433 177 433 203 c 0
985 -30 m 2
 878 78 l 1
 903 114 916 158 916 203 c 0
 916 325 818 424 696 424 c 0
 574 424 475 325 475 203 c 0
 475 81 574 -18 696 -18 c 0
 740 -18 784 -5 821 21 c 1
 928 -86 l 2
 936 -94 946 -98 957 -98 c 0
 979 -98 997 -80 997 -58 c 0
 997 -48 992 -37 985 -30 c 2
696 46 m 0
 609 46 539 116 539 203 c 0
 539 290 609 359 696 359 c 0
 783 359 852 289 852 203 c 0
 852 116 782 46 696 46 c 0
EndSplineSet
EndChar

StartChar: consulte-le-document_n
Encoding: 35 59426 34
Width: 1000
LayerCount: 2
Fore
SplineSet
484 512 m 2
 191 512 l 2
 184 512 178 506 178 499 c 2
 178 472 l 2
 178 465 184 459 191 459 c 2
 484 459 l 2
 492 459 497 465 497 472 c 2
 497 499 l 2
 497 506 492 512 484 512 c 2
191 299 m 2
 184 299 178 293 178 286 c 2
 178 259 l 2
 178 252 184 246 191 246 c 2
 360 246 l 1
 363 264 368 282 375 299 c 1
 191 299 l 2
361 139 m 1
 71 139 l 1
 71 778 l 1
 391 778 l 1
 391 605 l 2
 391 583 409 565 431 565 c 2
 604 565 l 1
 604 482 l 1
 618 484 631 485 646 485 c 2
 657 485 l 1
 657 605 l 2
 657 627 644 658 629 673 c 2
 499 803 l 2
 484 819 453 831 431 831 c 2
 58 831 l 2
 36 831 18 814 18 792 c 2
 18 126 l 2
 18 104 36 86 58 86 c 2
 377 86 l 1
 370 103 364 121 361 139 c 1
444 775 m 1
 451 772 458 769 461 766 c 2
 591 636 l 2
 594 633 598 626 600 619 c 1
 444 619 l 1
 444 775 l 1
178 366 m 2
 178 358 184 352 191 352 c 2
 402 352 l 1
 415 372 430 390 446 405 c 1
 191 405 l 2
 184 405 178 400 178 392 c 2
 178 366 l 2
965 -62 m 2
 847 57 l 1
 875 97 890 146 890 195 c 0
 890 330 780 439 646 439 c 0
 512 439 402 329 402 195 c 0
 402 61 511 -49 646 -49 c 0
 695 -49 744 -34 784 -6 c 1
 903 -125 l 2
 911 -133 922 -138 934 -138 c 0
 958 -138 978 -118 978 -94 c 0
 978 -82 973 -70 965 -62 c 2
646 22 m 0
 550 22 473 99 473 195 c 0
 473 291 550 368 646 368 c 0
 742 368 819 290 819 195 c 0
 819 100 741 22 646 22 c 0
EndSplineSet
EndChar

StartChar: consulte-le-graphique_n
Encoding: 36 59427 35
Width: 1000
LayerCount: 2
Fore
SplineSet
982 31 m 2
 872 140 l 1
 898 177 912 222 912 267 c 0
 912 391 811 491 688 491 c 0
 565 491 463 391 463 267 c 0
 463 143 564 43 688 43 c 0
 733 43 777 56 815 82 c 1
 924 -27 l 2
 931 -34 942 -39 953 -39 c 0
 975 -39 993 -20 993 2 c 0
 993 13 989 23 982 31 c 2
688 108 m 0
 600 108 529 179 529 267 c 0
 529 355 600 426 688 426 c 0
 776 426 847 355 847 267 c 0
 846 179 775 108 688 108 c 0
476 452 m 1
 476 567 l 1
 391 567 l 1
 391 310 l 1
 410 310 l 1
 418 364 442 413 476 452 c 1
605 536 m 1
 605 695 l 1
 519 695 l 1
 519 492 l 1
 545 511 574 526 605 536 c 1
406 267 m 1
 48 267 l 1
 48 738 l 1
 5 738 l 1
 5 224 l 1
 410 224 l 1
 408 238 406 252 406 267 c 1
262 652 m 1
 348 652 l 1
 348 310 l 1
 262 310 l 1
 262 652 l 1
134 481 m 1
 219 481 l 1
 219 310 l 1
 134 310 l 1
 134 481 l 1
EndSplineSet
EndChar

StartChar: consulte-le-tableau_n
Encoding: 37 59428 36
Width: 1000
LayerCount: 2
Fore
SplineSet
428 217 m 0
 428 222 429 227 429 232 c 1
 427 231 426 231 424 231 c 2
 290 231 l 2
 283 231 277 237 277 244 c 2
 277 325 l 2
 277 332 283 338 290 338 c 2
 424 338 l 2
 432 338 438 332 438 325 c 2
 438 286 l 1
 449 327 470 364 498 394 c 1
 494 396 491 400 491 405 c 2
 491 486 l 2
 491 493 497 499 505 499 c 2
 639 499 l 2
 646 499 652 493 652 486 c 2
 652 474 l 1
 664 476 676 477 688 477 c 0
 694 477 700 477 706 476 c 1
 706 700 l 2
 706 737 676 767 639 767 c 2
 76 767 l 2
 39 767 9 737 9 700 c 2
 9 244 l 2
 9 207 39 177 76 177 c 2
 431 177 l 1
 429 190 428 203 428 217 c 0
491 646 m 2
 491 654 497 660 505 660 c 2
 639 660 l 2
 646 660 652 654 652 646 c 2
 652 566 l 2
 652 558 646 553 639 553 c 2
 505 553 l 2
 497 553 491 558 491 566 c 2
 491 646 l 2
277 646 m 2
 277 654 283 660 290 660 c 2
 424 660 l 2
 432 660 438 654 438 646 c 2
 438 566 l 2
 438 558 432 553 424 553 c 2
 290 553 l 2
 283 553 277 558 277 566 c 2
 277 646 l 2
277 486 m 2
 277 493 283 499 290 499 c 2
 424 499 l 2
 432 499 438 493 438 486 c 2
 438 405 l 2
 438 398 432 392 424 392 c 2
 290 392 l 2
 283 392 277 398 277 405 c 2
 277 486 l 2
223 244 m 2
 223 237 217 231 210 231 c 2
 76 231 l 2
 68 231 62 237 62 244 c 2
 62 325 l 2
 62 332 68 338 76 338 c 2
 210 338 l 2
 217 338 223 332 223 325 c 2
 223 244 l 2
223 405 m 2
 223 398 217 392 210 392 c 2
 76 392 l 2
 68 392 62 398 62 405 c 2
 62 486 l 2
 62 493 68 499 76 499 c 2
 210 499 l 2
 217 499 223 493 223 486 c 2
 223 405 l 2
223 566 m 2
 223 558 217 553 210 553 c 2
 76 553 l 2
 68 553 62 558 62 566 c 2
 62 646 l 2
 62 654 68 660 76 660 c 2
 210 660 l 2
 217 660 223 654 223 646 c 2
 223 566 l 2
269 370 m 2
 269 363 274 358 281 358 c 2
 470 358 l 1
 481 375 495 391 510 406 c 1
 281 406 l 2
 274 406 269 400 269 394 c 2
 269 370 l 2
975 -13 m 2
 868 93 l 1
 893 129 907 173 907 217 c 0
 907 338 809 435 688 435 c 0
 567 435 470 338 470 217 c 0
 470 96 568 -2 688 -2 c 0
 732 -2 776 12 812 37 c 1
 919 -69 l 2
 926 -77 936 -81 946 -81 c 0
 968 -81 986 -63 986 -41 c 0
 986 -31 982 -21 975 -13 c 2
688 62 m 0
 603 62 533 131 533 217 c 0
 533 303 603 372 688 372 c 0
 773 372 843 302 843 217 c 0
 843 132 774 62 688 62 c 0
EndSplineSet
EndChar

StartChar: consulte-limage_n
Encoding: 38 59429 37
Width: 1000
LayerCount: 2
Fore
SplineSet
96 295 m 1
 426 295 l 1
 440 377 491 446 561 485 c 1
 446 600 l 1
 265 419 l 1
 209 476 l 1
 96 363 l 1
 96 295 l 1
422 250 m 1
 62 250 l 2
 56 250 51 255 51 261 c 2
 51 690 l 2
 51 696 56 702 62 702 c 2
 627 702 l 2
 633 702 638 696 638 690 c 2
 638 514 l 1
 653 517 668 519 683 519 c 1
 683 690 l 2
 683 721 658 747 627 747 c 2
 62 747 l 2
 31 747 6 721 6 690 c 2
 6 261 l 2
 6 230 31 205 62 205 c 2
 426 205 l 1
 424 219 422 234 422 250 c 1
973 24 m 2
 869 128 l 1
 893 164 907 207 907 250 c 0
 907 369 810 465 692 465 c 0
 574 465 477 369 477 250 c 0
 477 131 573 35 692 35 c 0
 735 35 778 48 813 73 c 1
 918 -32 l 2
 925 -39 935 -43 946 -43 c 0
 967 -43 985 -25 985 -4 c 0
 985 6 980 16 973 24 c 2
692 98 m 0
 608 98 539 166 539 250 c 0
 539 334 608 402 692 402 c 0
 776 402 844 334 844 250 c 0
 844 166 776 98 692 98 c 0
EndSplineSet
EndChar

StartChar: creativite_n
Encoding: 39 59430 38
Width: 1000
LayerCount: 2
Fore
SplineSet
895 599 m 2
 237 -59 l 2
 231 -65 223 -68 214 -68 c 0
 205 -68 197 -65 191 -59 c 2
 90 42 l 2
 84 49 80 57 80 66 c 0
 80 75 84 82 90 89 c 2
 748 747 l 2
 754 753 762 756 771 756 c 0
 780 756 788 753 794 747 c 2
 895 645 l 2
 901 639 904 631 904 622 c 0
 904 614 901 605 895 599 c 2
263 704 m 1
 213 689 l 1
 198 639 l 1
 182 689 l 1
 132 704 l 1
 182 719 l 1
 198 770 l 1
 213 719 l 1
 263 704 l 1
492 606 m 1
 392 575 l 1
 361 475 l 1
 331 575 l 1
 230 606 l 1
 331 637 l 1
 361 737 l 1
 392 637 l 1
 492 606 l 1
591 704 m 1
 541 689 l 1
 525 639 l 1
 510 689 l 1
 460 704 l 1
 510 719 l 1
 525 770 l 1
 541 719 l 1
 591 704 l 1
826 622 m 1
 771 677 l 1
 621 527 l 1
 676 472 l 1
 826 622 l 1
918 377 m 1
 868 361 l 1
 853 311 l 1
 837 361 l 1
 787 377 l 1
 837 392 l 1
 853 442 l 1
 868 392 l 1
 918 377 l 1
EndSplineSet
EndChar

StartChar: criteres-de-succes_n
Encoding: 40 59431 39
Width: 1000
LayerCount: 2
Fore
SplineSet
842 301 m 2
 842 224 748 139 622 133 c 1
 606 112 591 100 583 94 c 0
 562 75 556 54 556 29 c 0
 556 4 569 -23 608 -23 c 0
 647 -23 686 -49 686 -88 c 2
 686 -114 l 2
 686 -121 680 -127 673 -127 c 2
 336 -127 l 2
 329 -127 323 -121 323 -114 c 2
 323 -88 l 2
 323 -49 362 -23 401 -23 c 0
 440 -23 453 3 453 29 c 0
 453 55 447 75 425 94 c 0
 418 100 403 112 387 133 c 1
 261 139 167 224 167 301 c 2
 167 353 l 2
 167 374 185 392 206 392 c 2
 323 392 l 1
 323 430 l 2
 323 466 352 495 388 495 c 2
 621 495 l 2
 657 495 686 466 686 430 c 2
 686 392 l 1
 803 392 l 2
 824 392 842 374 842 353 c 2
 842 301 l 2
323 340 m 1
 219 340 l 1
 219 301 l 2
 219 261 273 206 353 189 c 1
 336 227 323 276 323 340 c 1
790 340 m 1
 686 340 l 1
 686 276 673 227 656 189 c 1
 736 206 790 261 790 301 c 2
 790 340 l 1
600 741 m 2
 554 696 l 1
 565 633 l 1
 565 630 l 2
 565 627 564 624 560 624 c 0
 558 624 557 624 555 625 c 2
 498 655 l 1
 442 625 l 2
 440 624 438 624 437 624 c 0
 433 624 431 627 431 630 c 0
 431 631 431 632 432 633 c 2
 442 696 l 1
 396 741 l 2
 395 742 393 744 393 747 c 0
 393 750 397 752 400 752 c 2
 464 762 l 1
 492 819 l 2
 493 822 495 824 498 824 c 0
 501 824 503 822 504 819 c 2
 533 762 l 1
 596 752 l 2
 599 752 603 750 603 747 c 0
 603 744 602 742 600 741 c 2
576 739 m 1
 522 747 l 1
 498 795 l 1
 474 747 l 1
 421 739 l 1
 460 702 l 1
 451 648 l 1
 498 673 l 1
 546 648 l 1
 537 702 l 1
 576 739 l 1
352 632 m 2
 307 587 l 1
 317 524 l 1
 317 521 l 2
 317 518 316 515 312 515 c 0
 311 515 309 516 307 516 c 2
 250 546 l 1
 194 516 l 2
 192 516 190 515 189 515 c 0
 185 515 183 518 183 521 c 0
 183 522 184 523 184 524 c 2
 194 587 l 1
 149 632 l 2
 147 633 145 635 145 638 c 0
 145 642 149 643 152 644 c 2
 216 653 l 1
 244 710 l 2
 245 713 248 715 250 715 c 0
 252 715 256 713 257 710 c 2
 285 653 l 1
 349 644 l 2
 352 643 356 642 356 638 c 0
 356 635 354 633 352 632 c 2
328 630 m 1
 274 638 l 1
 250 686 l 1
 227 638 l 1
 173 630 l 1
 212 593 l 1
 203 539 l 1
 250 565 l 1
 298 539 l 1
 289 593 l 1
 328 630 l 1
848 632 m 2
 802 587 l 1
 813 524 l 1
 813 521 l 2
 813 518 812 515 808 515 c 0
 806 515 804 516 803 516 c 2
 746 546 l 1
 689 516 l 2
 688 516 686 515 684 515 c 0
 681 515 679 518 679 521 c 2
 679 524 l 1
 690 587 l 1
 644 632 l 2
 643 633 641 635 641 638 c 0
 641 642 645 643 648 644 c 2
 712 653 l 1
 740 710 l 2
 741 713 743 715 746 715 c 0
 749 715 751 713 752 710 c 2
 781 653 l 1
 844 644 l 2
 847 643 851 642 851 638 c 0
 851 635 850 633 848 632 c 2
823 630 m 1
 770 638 l 1
 746 686 l 1
 722 638 l 1
 669 630 l 1
 708 593 l 1
 698 539 l 1
 746 565 l 1
 794 539 l 1
 785 593 l 1
 823 630 l 1
EndSplineSet
EndChar

StartChar: vivre-ensemble-et-citoyennete_n
Encoding: 41 59434 40
Width: 1000
LayerCount: 2
Fore
SplineSet
563 -110 m 2
 555 -110 l 1
 498 -105 446 -80 395 -56 c 0
 319 -21 248 12 166 -18 c 0
 162 -20 159 -21 155 -22 c 0
 123 -35 107 -36 83 5 c 0
 56 51 60 92 65 132 c 0
 67 149 69 167 68 185 c 0
 68 190 70 195 73 198 c 0
 77 202 81 203 86 204 c 0
 130 204 177 207 223 226 c 0
 261 241 319 260 376 247 c 0
 422 236 443 224 460 213 c 0
 483 199 500 189 599 193 c 0
 608 193 618 194 627 196 c 0
 645 198 661 200 673 197 c 0
 695 192 710 182 718 169 c 0
 725 158 727 144 724 131 c 0
 721 122 717 113 711 105 c 1
 728 115 745 126 761 136 c 0
 782 150 803 164 820 173 c 0
 828 177 836 180 842 182 c 2
 847 184 l 2
 851 185 855 187 860 188 c 0
 868 191 880 194 893 192 c 0
 901 191 908 189 914 184 c 0
 923 178 928 169 930 158 c 0
 932 139 922 116 899 88 c 0
 887 72 870 53 852 40 c 2
 841 33 l 1
 746 -34 630 -110 563 -110 c 2
232 30 m 0
 295 30 353 3 410 -24 c 0
 461 -47 508 -69 559 -74 c 0
 599 -78 687 -32 821 62 c 1
 831 70 l 2
 846 80 860 97 871 110 c 0
 895 140 894 152 894 154 c 2
 893 155 l 1
 893 155 892 156 889 157 c 0
 885 157 878 156 870 154 c 0
 866 152 862 151 859 150 c 2
 853 148 l 2
 849 147 843 144 837 141 c 0
 821 133 801 120 780 106 c 0
 756 91 728 73 701 58 c 2
 693 54 l 2
 668 40 639 24 608 21 c 0
 579 18 551 26 524 34 c 0
 514 36 504 39 495 41 c 0
 493 41 489 43 483 44 c 0
 473 47 446 54 437 55 c 0
 432 54 426 55 422 59 c 0
 414 65 413 77 419 84 c 0
 437 105 461 102 478 100 c 0
 491 98 502 96 514 94 c 0
 534 91 552 88 571 87 c 0
 596 86 628 87 655 103 c 0
 665 109 673 116 679 123 c 0
 684 129 688 134 689 139 c 0
 690 145 689 148 688 149 c 0
 686 152 681 158 665 162 c 0
 659 163 644 161 631 160 c 0
 621 158 610 157 601 157 c 0
 496 153 472 164 441 182 c 0
 426 192 409 202 368 212 c 0
 321 223 273 207 236 192 c 0
 191 174 146 169 104 168 c 1
 103 154 102 141 101 128 c 0
 97 91 93 59 114 23 c 0
 122 8 126 6 127 5 c 0
 128 5 136 8 142 11 c 0
 145 12 149 14 154 15 c 0
 181 26 207 30 232 30 c 0
545 801 m 1
 545 284 l 1
 545 801 l 1
803 543 m 1
 286 543 l 1
 803 543 l 1
766 673 m 1
 323 673 l 1
 766 673 l 1
766 408 m 1
 323 408 l 1
 766 408 l 1
EndSplineSet
EndChar

StartChar: utilise-suite-bureautique-en-ligne_n
Encoding: 42 59435 41
Width: 1000
LayerCount: 2
Fore
SplineSet
978 126 m 1
 978 78 l 2
 978 51 942 30 898 30 c 2
 96 30 l 2
 52 30 16 51 16 78 c 2
 16 126 l 1
 96 126 l 1
 898 126 l 1
 978 126 l 1
144 238 m 2
 144 590 l 2
 144 635 180 671 225 671 c 2
 769 671 l 2
 814 671 850 635 850 590 c 2
 850 238 l 2
 850 194 814 158 769 158 c 2
 225 158 l 2
 180 158 144 194 144 238 c 2
209 238 m 2
 209 229 216 222 225 222 c 2
 769 222 l 2
 778 222 785 229 785 238 c 2
 785 590 l 2
 785 599 778 607 769 607 c 2
 225 607 l 2
 216 607 209 599 209 590 c 2
 209 238 l 2
545 86 m 0
 545 90 542 94 537 94 c 2
 457 94 l 2
 452 94 449 90 449 86 c 0
 449 82 452 78 457 78 c 2
 537 78 l 2
 542 78 545 81 545 86 c 0
618 300 m 2
 390 300 l 2
 338 300 296 335 296 379 c 0
 296 410 318 437 350 449 c 0
 349 452 349 454 349 457 c 0
 349 506 397 546 457 546 c 0
 502 546 540 523 556 490 c 1
 565 497 577 501 591 501 c 0
 620 501 645 481 645 457 c 0
 645 448 641 439 636 433 c 1
 672 426 698 399 698 367 c 0
 698 330 662 300 618 300 c 2
EndSplineSet
EndChar

StartChar: univers_n
Encoding: 43 59436 42
Width: 1000
LayerCount: 2
Fore
SplineSet
499 490 m 1
 118 490 l 1
 499 718 l 1
 879 490 l 1
 499 490 l 1
181 81 m 0
 163 81 148 96 148 114 c 2
 148 431 l 2
 148 449 163 464 181 464 c 0
 199 464 214 449 214 431 c 2
 214 114 l 2
 214 96 199 81 181 81 c 0
287 81 m 0
 268 81 253 96 253 114 c 2
 253 431 l 2
 253 449 268 464 287 464 c 0
 305 464 320 449 320 431 c 2
 320 114 l 2
 320 96 305 81 287 81 c 0
392 81 m 0
 374 81 359 96 359 114 c 2
 359 431 l 2
 359 449 374 464 392 464 c 0
 410 464 425 449 425 431 c 2
 425 114 l 2
 425 96 410 81 392 81 c 0
498 81 m 0
 479 81 464 96 464 114 c 2
 464 431 l 2
 464 449 479 464 498 464 c 0
 516 464 531 449 531 431 c 2
 531 114 l 2
 531 96 516 81 498 81 c 0
603 81 m 0
 585 81 570 96 570 114 c 2
 570 431 l 2
 570 449 585 464 603 464 c 0
 621 464 636 449 636 431 c 2
 636 114 l 2
 636 96 621 81 603 81 c 0
709 81 m 0
 690 81 675 96 675 114 c 2
 675 431 l 2
 675 449 690 464 709 464 c 0
 727 464 742 449 742 431 c 2
 742 114 l 2
 742 96 727 81 709 81 c 0
814 81 m 0
 796 81 781 96 781 114 c 2
 781 431 l 2
 781 449 796 464 814 464 c 0
 832 464 847 449 847 431 c 2
 847 114 l 2
 847 96 832 81 814 81 c 0
65 122 m 1
 932 122 l 1
 932 67 l 1
 65 67 l 1
 65 122 l 1
18 33 m 1
 979 33 l 1
 979 -18 l 1
 18 -18 l 1
 18 33 l 1
EndSplineSet
EndChar

StartChar: televerse-la-piece_n
Encoding: 44 59437 43
Width: 1000
LayerCount: 2
Fore
SplineSet
992 53 m 2
 992 30 973 11 950 11 c 2
 312 11 l 2
 289 11 271 30 271 53 c 2
 271 191 l 2
 271 214 289 233 312 233 c 2
 498 233 l 1
 509 201 540 178 576 178 c 2
 687 178 l 2
 723 178 754 201 765 233 c 1
 951 233 l 2
 974 233 992 214 992 191 c 2
 992 53 l 2
826 455 m 2
 715 455 l 1
 715 261 l 2
 715 246 702 233 687 233 c 2
 576 233 l 2
 561 233 548 246 548 261 c 2
 548 455 l 1
 437 455 l 2
 426 455 416 462 412 472 c 0
 407 482 410 494 418 502 c 2
 612 696 l 2
 617 702 625 705 632 705 c 0
 639 705 646 702 651 696 c 2
 845 502 l 2
 853 494 856 482 851 472 c 0
 847 462 837 455 826 455 c 2
798 122 m 0
 783 122 770 109 770 94 c 0
 770 79 783 67 798 67 c 0
 813 67 826 79 826 94 c 0
 826 109 813 122 798 122 c 0
909 122 m 0
 894 122 881 109 881 94 c 0
 881 79 894 67 909 67 c 0
 924 67 937 79 937 94 c 0
 937 109 924 122 909 122 c 0
346 414 m 2
 346 383 300 372 276 372 c 0
 252 372 205 383 205 414 c 0
 205 445 252 456 276 456 c 0
 290 456 305 454 318 448 c 1
 318 566 l 1
 149 514 l 1
 149 357 l 2
 149 326 102 315 78 315 c 0
 54 315 7 326 7 357 c 0
 7 388 54 400 78 400 c 0
 92 400 107 397 120 391 c 1
 120 605 l 2
 120 614 126 622 135 625 c 2
 319 682 l 1
 325 682 l 2
 337 682 346 673 346 661 c 2
 346 414 l 2
EndSplineSet
EndChar

StartChar: telecharge-la-piece-suivante_n
Encoding: 45 59438 44
Width: 1000
LayerCount: 2
Fore
SplineSet
972 -32 m 2
 972 -62 948 -87 917 -87 c 2
 76 -87 l 2
 46 -87 21 -62 21 -32 c 2
 21 151 l 2
 21 181 46 206 76 206 c 2
 342 206 l 1
 419 128 l 2
 440 108 467 96 497 96 c 0
 527 96 553 108 574 128 c 2
 652 206 l 1
 917 206 l 2
 948 206 972 181 972 151 c 2
 972 -32 l 2
778 436 m 2
 522 180 l 2
 515 173 506 169 497 169 c 0
 488 169 478 173 471 180 c 2
 215 436 l 2
 204 447 201 463 207 476 c 0
 212 489 226 499 241 499 c 2
 387 499 l 1
 387 755 l 2
 387 775 403 791 423 791 c 2
 570 791 l 2
 590 791 606 775 606 755 c 2
 606 499 l 1
 753 499 l 2
 768 499 781 489 786 476 c 0
 792 463 789 447 778 436 c 2
716 60 m 0
 696 60 679 43 679 23 c 0
 679 3 696 -14 716 -14 c 0
 736 -14 753 3 753 23 c 0
 753 43 736 60 716 60 c 0
862 60 m 0
 842 60 826 43 826 23 c 0
 826 3 842 -14 862 -14 c 0
 882 -14 899 3 899 23 c 0
 899 43 882 60 862 60 c 0
EndSplineSet
EndChar

StartChar: techniques_n
Encoding: 46 59439 45
Width: 1000
LayerCount: 2
Fore
SplineSet
47 327 m 0
 47 71 196 -112 394 -112 c 0
 592 -112 754 95 754 351 c 0
 754 607 592 814 394 814 c 0
 280 814 503 586 356 519 c 0
 281 486 259 583 190 582 c 0
 90 580 47 387 47 327 c 0
646 560 m 0
 646 518 612 484 570 484 c 0
 528 484 494 518 494 560 c 0
 494 602 528 636 570 636 c 0
 612 636 646 602 646 560 c 0
566 285 m 0
 527 303 511 348 528 386 c 0
 545 424 591 441 629 424 c 0
 667 407 684 361 667 323 c 0
 650 285 604 268 566 285 c 0
491 215 m 0
 523 242 571 239 598 207 c 0
 625 175 622 127 590 99 c 0
 558 71 510 76 483 108 c 0
 455 140 459 188 491 215 c 0
348 111 m 0
 389 123 431 99 442 59 c 0
 454 18 430 -24 390 -35 c 0
 349 -47 307 -23 296 17 c 0
 285 57 308 100 348 111 c 0
155 376 m 0
 182 435 243 457 291 427 c 0
 338 396 354 317 328 258 c 0
 302 199 239 180 192 210 c 0
 144 241 129 317 155 376 c 0
815 399 m 2
 816 402 818 404 821 404 c 2
 903 404 l 2
 907 404 910 403 914 403 c 0
 917 403 919 401 920 398 c 2
 920 386 l 2
 920 384 919 382 918 381 c 0
 917 381 916 380 914 380 c 0
 887 380 860 381 832 381 c 2
 820 381 l 2
 818 381 815 383 815 386 c 2
 815 399 l 2
816 419 m 0
 816 416 817 415 818 414 c 0
 819 413 820 413 821 413 c 2
 833 413 l 1
 914 412 l 2
 917 412 919 415 919 418 c 2
 919 430 l 2
 919 433 917 436 914 436 c 2
 902 436 l 1
 822 436 l 2
 819 436 817 434 817 431 c 0
 816 427 816 423 816 419 c 0
823 445 m 2
 834 445 l 1
 836 445 l 2
 858 445 880 445 903 444 c 2
 913 444 l 1
 913 444 919 447 919 450 c 2
 918 451 l 1
 918 470 916 489 914 507 c 0
 912 531 909 557 899 580 c 0
 894 593 885 607 870 608 c 2
 869 608 l 1
 868 608 l 2
 861 608 854 604 849 599 c 0
 836 584 832 563 828 544 c 0
 822 515 819 484 817 454 c 2
 817 451 l 2
 817 448 820 445 823 445 c 2
914 371 m 2
 902 371 l 2
 875 372 847 372 820 372 c 0
 817 372 815 370 814 367 c 2
 814 327 l 2
 813 251 815 175 820 99 c 0
 823 62 826 26 830 -10 c 0
 833 -37 836 -65 843 -92 c 0
 845 -100 847 -109 850 -116 c 0
 852 -121 856 -127 861 -128 c 0
 874 -132 880 -109 882 -100 c 0
 890 -75 893 -49 897 -24 c 0
 902 11 905 46 908 81 c 0
 915 155 919 229 920 303 c 2
 920 366 l 2
 920 369 917 371 914 371 c 2
813 830 m 0
 808 830 805 823 810 820 c 0
 827 811 829 787 827 770 c 0
 826 760 822 750 819 740 c 0
 815 728 811 716 808 704 c 0
 804 684 804 662 815 644 c 0
 833 614 873 607 902 624 c 0
 922 636 936 657 941 679 c 0
 958 756 890 831 813 830 c 0
EndSplineSet
EndChar

StartChar: sante-et-bien-etre_n
Encoding: 47 59440 46
Width: 1000
LayerCount: 2
Fore
SplineSet
250 210 m 1
 374 325 l 1
 580 133 l 1
 684 230 l 1
 870 230 l 1
 880 292 874 374 809 459 c 0
 744 544 619 531 547 515 c 1
 547 533 546 552 542 570 c 1
 556 577 566 605 574 605 c 0
 582 605 600 593 610 590 c 0
 627 585 646 582 665 582 c 0
 694 582 724 589 750 601 c 0
 803 626 842 663 854 719 c 0
 857 730 858 742 858 753 c 0
 858 769 851 821 829 821 c 0
 813 821 808 813 797 804 c 0
 770 780 686 794 647 782 c 0
 592 765 543 724 543 667 c 0
 543 661 543 654 544 648 c 0
 545 645 550 635 550 633 c 0
 550 628 540 622 531 614 c 1
 514 663 488 710 459 756 c 0
 435 795 370 760 394 721 c 0
 435 655 478 586 472 509 c 1
 406 527 260 554 188 459 c 0
 116 364 117 275 131 210 c 1
 250 210 l 1
590 657 m 0
 635 703 679 729 747 729 c 0
 754 729 759 724 759 718 c 0
 759 712 754 706 747 706 c 0
 700 706 670 695 635 665 c 0
 625 657 617 648 607 641 c 0
 605 638 602 637 599 637 c 0
 592 637 586 642 586 649 c 0
 586 652 588 654 590 657 c 0
697 197 m 1
 580 88 l 1
 374 280 l 1
 263 177 l 1
 140 177 l 1
 142 170 144 163 147 157 c 0
 169 95 238 -102 397 -123 c 1
 397 -123 444 -139 499 -93 c 1
 553 -139 600 -123 600 -123 c 1
 759 -102 828 95 850 157 c 0
 855 168 859 182 863 197 c 1
 697 197 l 1
EndSplineSet
EndChar

StartChar: robotique_n
Encoding: 48 59441 47
Width: 1000
LayerCount: 2
Fore
SplineSet
739 -118 m 1
 739 -7 l 2
 739 10 726 24 709 24 c 2
 146 24 l 2
 129 24 116 10 116 -7 c 2
 116 -118 l 1
 739 -118 l 1
370 485 m 1
 333 431 271 396 201 396 c 0
 188 396 175 397 163 400 c 1
 259 57 l 1
 576 57 l 1
 370 485 l 1
201 763 m 0
 112 763 40 691 40 602 c 0
 40 513 112 442 201 442 c 0
 290 442 361 514 361 602 c 0
 361 690 289 763 201 763 c 0
201 557 m 0
 176 557 156 577 156 602 c 0
 156 627 176 647 201 647 c 0
 226 647 246 627 246 602 c 0
 246 577 226 557 201 557 c 0
754 483 m 1
 691 549 l 1
 691 585 l 1
 691 653 l 1
 691 690 l 1
 754 756 l 1
 897 716 l 1
 909 736 l 1
 739 816 l 1
 654 730 l 1
 570 730 l 1
 548 696 l 1
 361 696 l 1
 377 668 386 636 386 602 c 0
 386 581 382 561 376 543 c 1
 548 543 l 1
 548 543 548 508 570 508 c 2
 654 508 l 1
 739 422 l 1
 909 502 l 1
 897 522 l 1
 754 483 l 1
921 541 m 2
 826 541 l 2
 810 541 796 555 796 572 c 2
 796 666 l 2
 796 683 810 697 826 697 c 2
 921 697 l 2
 938 697 951 683 951 666 c 2
 951 572 l 2
 951 555 938 541 921 541 c 2
EndSplineSet
EndChar

StartChar: resoudre-un-probleme_n
Encoding: 49 59442 48
Width: 1000
Flags: H
LayerCount: 2
Fore
SplineSet
551 250 m 4
 551 331 623 396 712 396 c 4
 801 396 873 331 873 250 c 4
 873 169 801 104 712 104 c 4
 623 104 551 169 551 250 c 4
473 443 m 0
 454 422 429 393 427 363 c 1
 435 358 440 349 440 340 c 0
 440 334 437 327 433 323 c 1
 437 318 440 312 440 305 c 0
 440 296 435 288 427 283 c 1
 430 279 431 274 431 270 c 0
 431 252 417 243 401 243 c 1
 394 227 378 216 360 216 c 0
 342 216 327 227 319 243 c 1
 303 243 289 252 289 270 c 0
 289 274 291 279 293 283 c 1
 285 288 280 296 280 305 c 0
 280 312 283 318 287 323 c 1
 283 327 280 334 280 340 c 0
 280 350 285 358 293 363 c 1
 291 393 266 422 247 443 c 0
 228 464 218 489 218 518 c 0
 218 593 290 642 360 642 c 0
 430 642 502 593 502 518 c 0
 502 489 492 464 473 443 c 0
360 606 m 0
 310 606 254 573 254 518 c 0
 254 500 261 481 273 468 c 0
 278 462 284 456 289 450 c 0
 309 426 326 398 329 367 c 1
 392 367 l 1
 394 398 411 426 431 450 c 0
 436 456 442 462 448 468 c 0
 459 481 466 500 466 518 c 0
 467 573 410 606 360 606 c 0
413 509 m 0
 409 509 404 513 404 518 c 0
 404 537 375 544 360 544 c 0
 355 544 351 548 351 553 c 0
 351 558 355 562 360 562 c 0
 386 562 422 548 422 518 c 0
 422 513 418 509 413 509 c 0
545 162 m 1
 492 125 429 104 360 104 c 0
 181 104 35 250 35 429 c 0
 35 608 181 754 360 754 c 0
 539 754 685 609 685 429 c 1
 693 430 700 431 707 431 c 1
 706 622 551 776 360 776 c 0
 169 776 13 620 13 429 c 0
 13 238 169 82 360 82 c 0
 433 82 500 104 556 142 c 1
 552 148 548 155 545 162 c 1
982 -77 m 1
 972 5 902 68 818 68 c 2
 612 68 l 2
 528 68 459 5 448 -77 c 1
 982 -77 l 1
EndSplineSet
EndChar

StartChar: recommencer-avec-nouveaux-exercices_n
Encoding: 50 59443 49
Width: 1000
LayerCount: 2
Fore
SplineSet
312 34 m 0
 262 34 214 56 181 95 c 0
 179 98 179 102 182 105 c 2
 212 136 l 2
 214 137 216 138 218 138 c 0
 220 137 222 136 223 135 c 0
 244 107 277 91 312 91 c 0
 375 91 426 142 426 204 c 0
 426 266 375 318 312 318 c 0
 283 318 256 307 235 288 c 1
 266 257 l 2
 270 253 271 247 269 242 c 0
 266 236 261 233 256 233 c 2
 156 233 l 2
 148 233 142 239 142 247 c 2
 142 347 l 2
 142 352 145 357 151 360 c 0
 156 362 162 361 166 357 c 2
 195 328 l 1
 226 357 269 375 312 375 c 0
 406 375 483 298 483 204 c 0
 483 110 406 34 312 34 c 0
656 58 m 1
 656 15 l 2
 656 -16 631 -40 601 -40 c 2
 125 -40 l 2
 95 -40 71 -16 71 15 c 2
 71 670 l 2
 71 700 95 725 125 725 c 2
 365 725 l 1
 365 472 l 2
 365 458 376 444 393 444 c 2
 619 444 l 1
 657 444 l 1
 711 444 l 1
 711 487 l 1
 417 780 l 1
 125 781 l 2
 64 781 14 731 14 670 c 2
 14 15 l 2
 14 -46 64 -96 125 -96 c 2
 600 -96 l 2
 662 -96 711 -46 711 15 c 2
 711 58 l 1
 656 58 l 1
420 696 m 1
 619 497 l 1
 420 497 l 1
 420 696 l 1
984 703 m 0
 978 727 962 748 940 760 c 0
 918 773 893 776 868 770 c 0
 844 763 824 748 811 726 c 2
 551 276 l 2
 549 272 548 268 547 265 c 2
 529 101 l 2
 528 89 533 78 543 73 c 0
 548 70 552 69 558 69 c 0
 564 69 570 71 574 74 c 2
 707 172 l 2
 710 175 713 178 715 181 c 2
 975 631 l 2
 987 653 991 679 984 703 c 0
638 192 m 1
 593 159 l 1
 599 215 l 1
 638 192 l 1
880 582 m 1
 680 234 l 1
 615 272 l 1
 815 619 l 1
 880 582 l 1
925 660 m 2
 909 631 l 1
 844 669 l 1
 860 697 l 2
 865 706 874 712 883 715 c 0
 893 717 903 716 912 711 c 0
 921 706 927 698 929 688 c 0
 932 679 930 668 925 660 c 2
EndSplineSet
EndChar

StartChar: realite-virtuelle_n
Encoding: 51 59444 50
Width: 1000
LayerCount: 2
Fore
SplineSet
546 482 m 0
 558 463 560 442 552 423 c 1
 551 422 l 1
 754 331 l 1
 756 336 757 341 759 346 c 0
 789 473 711 602 584 633 c 0
 522 648 459 637 408 607 c 1
 469 571 518 527 546 482 c 0
262 699 m 1
 240 728 l 1
 225 717 211 704 197 691 c 1
 222 665 l 1
 235 677 248 689 262 699 c 1
204 647 m 1
 178 671 l 1
 165 657 153 642 142 627 c 1
 172 607 l 1
 182 621 193 634 204 647 c 1
158 585 m 1
 127 604 l 1
 117 587 109 571 101 554 c 1
 134 539 l 1
 141 555 149 570 158 585 c 1
124 515 m 1
 91 527 l 1
 84 510 79 492 75 473 c 1
 110 465 l 1
 114 482 119 499 124 515 c 1
477 777 m 1
 475 812 l 1
 456 812 437 809 419 806 c 1
 426 770 l 1
 443 774 460 776 477 777 c 1
400 765 m 1
 392 800 l 1
 374 795 355 789 338 782 c 1
 351 749 l 1
 367 755 384 761 400 765 c 1
328 739 m 1
 312 771 l 1
 295 763 279 754 263 744 c 1
 283 714 l 1
 297 723 312 731 328 739 c 1
105 440 m 1
 70 446 l 1
 67 427 65 408 65 390 c 1
 101 389 l 1
 101 406 103 423 105 440 c 1
176 146 m 1
 147 125 l 1
 157 110 169 96 182 82 c 1
 209 107 l 1
 197 119 186 132 176 146 c 1
227 88 m 1
 202 62 l 1
 216 49 231 37 246 26 c 1
 267 56 l 1
 253 66 239 77 227 88 c 1
137 213 m 1
 104 198 l 1
 112 181 121 165 131 149 c 1
 161 168 l 1
 152 182 144 198 137 213 c 1
112 286 m 1
 77 278 l 1
 81 260 86 242 93 224 c 1
 127 237 l 1
 121 253 115 270 112 286 c 1
101 363 m 1
 65 361 l 1
 66 343 68 324 71 305 c 1
 106 312 l 1
 103 328 102 346 101 363 c 1
896 406 m 1
 932 409 l 1
 930 427 928 446 924 464 c 1
 889 457 l 1
 892 441 895 423 896 406 c 1
815 621 m 1
 844 642 l 1
 832 657 820 672 807 685 c 1
 781 659 l 1
 793 647 805 634 815 621 c 1
856 555 m 1
 888 571 l 1
 880 588 870 604 860 619 c 1
 830 599 l 1
 840 585 848 570 856 555 c 1
883 483 m 1
 918 492 l 1
 913 510 907 528 900 545 c 1
 867 531 l 1
 873 516 879 499 883 483 c 1
897 379 m 2
 897 362 896 345 894 329 c 1
 929 324 l 1
 932 342 933 361 933 379 c 2
 933 381 l 1
 897 381 l 1
 897 379 l 2
845 183 m 1
 876 165 l 1
 886 181 894 198 901 216 c 1
 868 229 l 1
 861 213 854 198 845 183 c 1
925 297 m 1
 889 303 l 1
 886 287 882 270 876 254 c 1
 911 242 l 1
 917 260 921 278 925 297 c 1
786 704 m 1
 772 717 757 728 742 739 c 1
 722 709 l 1
 736 699 749 689 762 677 c 1
 786 704 l 1
559 809 m 1
 541 811 522 813 503 813 c 1
 503 777 l 1
 520 777 537 776 554 773 c 1
 559 809 l 1
641 789 m 1
 624 795 605 800 587 804 c 1
 580 769 l 1
 596 765 613 761 629 755 c 1
 641 789 l 1
718 754 m 1
 702 763 685 772 668 779 c 1
 654 746 l 1
 669 739 685 731 700 723 c 1
 718 754 l 1
743 43 m 1
 932 102 l 1
 786 236 l 1
 743 43 l 1
219 343 m 0
 300 307 382 292 444 302 c 0
 454 304 461 309 464 317 c 2
 465 318 l 1
 447 325 l 2
 438 330 434 340 438 349 c 2
 477 436 l 2
 479 440 482 443 487 445 c 0
 492 447 496 447 501 445 c 2
 518 437 l 1
 519 438 l 2
 522 445 521 454 516 462 c 0
 482 516 417 567 336 603 c 0
 327 607 317 611 307 615 c 0
 302 617 297 618 293 618 c 0
 281 618 271 613 267 603 c 2
 173 394 l 2
 167 381 175 365 191 357 c 0
 200 352 210 347 219 343 c 0
478 351 m 1
 502 405 l 1
 740 298 l 1
 716 244 l 1
 478 351 l 1
270 167 m 0
 273 166 285 163 288 163 c 0
 295 161 303 159 310 155 c 0
 322 147 332 83 336 21 c 1
 336 17 l 2
 336 -31 305 -61 283 -123 c 1
 762 -123 l 1
 720 -59 658 13 603 61 c 1
 592 101 591 142 611 179 c 1
 637 189 660 203 681 221 c 1
 498 303 l 1
 497 302 l 1
 489 283 471 270 450 267 c 0
 435 264 419 263 403 263 c 0
 349 263 286 276 225 301 c 1
 218 218 l 2
 217 206 220 195 229 187 c 0
 241 175 256 170 270 167 c 0
EndSplineSet
EndChar

StartChar: realite-augmentee_n
Encoding: 52 59445 51
Width: 1000
LayerCount: 2
Fore
SplineSet
721 52 m 1
 292 52 l 1
 292 187 l 1
 246 190 l 1
 246 -5 l 2
 246 -54 287 -94 336 -94 c 2
 677 -94 l 2
 726 -94 767 -54 767 -5 c 2
 767 199 l 1
 752 197 737 195 721 194 c 1
 721 52 l 1
893 394 m 1
 904 434 l 1
 791 395 l 1
 873 314 l 1
 882 348 l 1
 920 336 931 326 934 322 c 1
 922 305 825 267 595 253 c 1
 597 206 l 1
 703 212 795 224 862 241 c 0
 944 262 982 288 982 322 c 0
 982 360 935 381 893 394 c 1
349 313 m 1
 347 260 l 1
 164 278 69 315 61 327 c 1
 67 336 102 357 207 375 c 1
 199 422 l 1
 32 393 13 354 13 327 c 0
 13 274 148 232 343 213 c 1
 341 160 l 1
 459 229 l 1
 349 313 l 1
677 798 m 2
 336 798 l 2
 287 798 246 758 246 709 c 2
 246 300 l 2
 249 299 292 292 292 292 c 1
 292 652 l 1
 721 652 l 1
 721 284 l 1
 738 285 753 287 767 289 c 1
 767 709 l 2
 767 758 726 798 677 798 c 2
555 714 m 2
 458 714 l 2
 456 714 454 716 454 718 c 0
 454 720 456 722 458 722 c 2
 555 722 l 2
 557 722 559 720 559 718 c 0
 559 716 557 714 555 714 c 2
EndSplineSet
EndChar

StartChar: programmation_n
Encoding: 53 59446 52
Width: 1000
LayerCount: 2
Fore
SplineSet
502 826 m 0
 238 826 23 612 23 347 c 0
 23 82 237 -131 502 -131 c 0
 767 -131 980 83 980 347 c 0
 980 611 766 826 502 826 c 0
368 199 m 2
 373 194 373 187 368 182 c 2
 349 162 l 2
 344 157 336 157 331 162 c 2
 150 343 l 2
 145 348 145 356 150 361 c 2
 331 542 l 2
 336 547 344 547 349 542 c 2
 368 522 l 2
 373 517 373 509 368 504 c 2
 216 352 l 1
 368 199 l 2
598 596 m 2
 453 95 l 2
 451 88 444 84 438 86 c 2
 414 93 l 2
 407 95 403 102 405 108 c 2
 550 609 l 2
 552 616 559 620 565 618 c 2
 589 611 l 2
 596 609 600 602 598 596 c 2
672 162 m 2
 667 157 659 157 654 162 c 2
 635 182 l 2
 630 187 630 194 635 199 c 2
 787 352 l 1
 635 504 l 2
 630 509 630 517 635 522 c 2
 654 542 l 2
 659 547 667 547 672 542 c 2
 853 361 l 2
 858 356 858 348 853 343 c 2
 672 162 l 2
EndSplineSet
EndChar

StartChar: prends-des-notes_n
Encoding: 54 59447 53
Width: 1000
LayerCount: 2
Fore
SplineSet
880 827 m 0
 860 839 837 842 815 836 c 0
 793 830 774 815 763 796 c 2
 526 386 l 2
 524 383 523 379 523 376 c 2
 506 227 l 2
 505 216 510 206 519 201 c 0
 523 199 527 198 532 198 c 0
 537 198 543 199 547 203 c 2
 668 292 l 2
 671 294 673 297 675 300 c 2
 912 709 l 2
 935 751 921 803 880 827 c 0
605 310 m 1
 564 280 l 1
 570 330 l 1
 605 310 l 1
826 664 m 1
 643 348 l 1
 584 382 l 1
 767 699 l 1
 826 664 l 1
867 735 m 2
 852 710 l 1
 793 744 l 1
 808 770 l 2
 812 777 819 783 828 785 c 0
 837 788 846 787 854 782 c 0
 862 778 868 770 870 761 c 0
 872 752 871 743 867 735 c 2
74 417 m 2
 232 417 l 2
 240 417 246 411 246 404 c 2
 246 377 l 2
 246 369 240 363 232 363 c 2
 74 363 l 2
 67 363 61 369 61 377 c 2
 61 404 l 2
 61 411 67 417 74 417 c 2
246 295 m 2
 246 268 l 2
 246 260 240 254 232 254 c 2
 74 254 l 2
 67 254 61 260 61 268 c 2
 61 295 l 2
 61 303 67 309 74 309 c 2
 232 309 l 2
 240 309 246 303 246 295 c 2
246 186 m 2
 246 159 l 2
 246 151 240 145 232 145 c 2
 74 145 l 2
 67 145 61 151 61 159 c 2
 61 186 l 2
 61 194 67 200 74 200 c 2
 232 200 l 2
 240 200 246 194 246 186 c 2
791 433 m 1
 791 -2 l 2
 791 -38 762 -68 725 -68 c 2
 253 -68 l 2
 216 -68 187 -38 187 -2 c 2
 187 619 l 2
 187 655 216 685 253 685 c 2
 660 685 l 1
 700 756 l 1
 253 756 l 2
 177 756 116 694 116 619 c 2
 116 -2 l 2
 116 -77 177 -139 253 -139 c 2
 725 -139 l 2
 801 -139 862 -77 862 -2 c 2
 862 555 l 1
 791 433 l 1
375 64 m 0
 398 89 448 79 478 76 c 0
 505 73 532 74 559 74 c 0
 592 75 625 69 658 69 c 0
 674 70 690 72 706 74 c 0
 719 77 736 83 749 81 c 0
 770 76 779 107 758 112 c 0
 726 119 690 102 658 102 c 0
 619 101 582 108 543 107 c 0
 486 105 395 134 352 87 c 0
 337 71 360 48 375 64 c 0
344 175 m 0
 412 175 479 177 547 173 c 0
 584 170 619 163 656 167 c 0
 673 169 689 172 705 175 c 0
 717 178 734 186 746 183 c 0
 767 179 776 211 755 215 c 0
 727 220 698 206 671 202 c 0
 632 195 594 202 555 205 c 0
 484 209 415 207 344 207 c 0
 324 207 324 175 344 175 c 0
EndSplineSet
EndChar

StartChar: pinceaux_n
Encoding: 55 59448 54
Width: 1000
LayerCount: 2
Fore
SplineSet
376 168 m 0
 366 174 354 169 348 158 c 1
 348 158 327 120 269 117 c 0
 257 116 249 106 249 94 c 0
 250 89 252 85 256 81 c 0
 260 77 265 75 272 75 c 0
 356 81 385 138 387 140 c 0
 391 150 387 163 376 168 c 0
869 699 m 0
 840 729 787 725 751 692 c 2
 437 411 l 1
 436 410 l 1
 421 395 l 1
 535 282 l 1
 509 256 l 1
 396 369 l 1
 366 340 l 1
 479 226 l 1
 454 201 l 1
 342 313 l 1
 340 314 l 1
 316 320 291 322 269 317 c 0
 238 310 214 290 204 261 c 0
 152 120 85 53 85 52 c 2
 56 24 l 1
 95 17 l 2
 105 15 335 -31 422 56 c 0
 449 83 463 117 465 153 c 0
 467 154 468 155 469 156 c 2
 573 260 l 1
 579 266 l 1
 861 581 l 2
 894 617 897 671 869 699 c 0
392 85 m 0
 342 36 215 42 140 52 c 1
 166 86 208 150 243 247 c 0
 249 262 260 272 279 275 c 0
 291 278 306 278 320 275 c 1
 423 172 l 1
 426 141 415 109 392 85 c 0
831 610 m 2
 564 313 l 1
 482 394 l 1
 779 661 l 2
 799 679 826 682 840 669 c 0
 851 657 848 629 831 610 c 2
EndSplineSet
EndChar

StartChar: pastels_n
Encoding: 56 59449 55
Width: 1000
LayerCount: 2
Fore
SplineSet
896 647 m 2
 783 759 l 2
 772 770 758 775 744 775 c 0
 730 775 715 769 704 759 c 2
 628 683 l 1
 819 491 l 1
 896 568 l 2
 917 590 917 625 896 647 c 2
862 602 m 2
 819 560 l 1
 697 682 l 1
 740 724 l 2
 741 726 743 726 744 726 c 0
 745 726 748 726 749 724 c 2
 862 612 l 2
 863 610 864 608 864 607 c 0
 864 606 863 604 862 602 c 2
397 140 m 1
 354 183 l 1
 712 540 l 1
 677 575 l 1
 319 217 l 1
 276 260 l 1
 634 617 l 1
 599 652 l 1
 214 266 l 2
 212 264 210 261 209 258 c 2
 97 -3 l 2
 93 -12 95 -22 102 -29 c 0
 107 -34 113 -37 119 -37 c 0
 122 -37 125 -36 129 -35 c 2
 388 64 l 2
 391 65 394 67 396 69 c 2
 789 463 l 1
 754 497 l 1
 397 140 l 1
246 222 m 1
 361 106 l 1
 219 52 l 1
 188 84 l 1
 246 222 l 1
EndSplineSet
EndChar

StartChar: orientation-et-entrepreneuriat_n
Encoding: 57 59450 56
Width: 1000
LayerCount: 2
Fore
SplineSet
450 296 m 1
 505 226 l 1
 557 292 l 1
 623 271 l 1
 623 105 l 1
 623 105 627 77 604 48 c 1
 604 -23 l 1
 604 -23 607 -84 556 -84 c 2
 450 -84 l 1
 450 -84 405 -74 405 -33 c 2
 405 40 l 1
 405 40 380 58 380 106 c 2
 380 271 l 1
 450 296 l 1
668 57 m 1
 668 212 l 1
 807 322 l 1
 778 358 l 2
 774 363 772 370 773 376 c 0
 773 382 776 388 782 392 c 0
 787 396 793 398 799 397 c 2
 953 379 l 2
 960 379 966 375 970 370 c 0
 974 365 975 359 975 353 c 2
 957 199 l 2
 956 192 953 186 948 182 c 0
 943 178 937 176 930 177 c 0
 924 178 918 181 914 186 c 2
 885 223 l 1
 688 67 l 2
 687 66 686 65 684 65 c 2
 668 57 l 1
691 201 m 1
 691 98 l 1
 888 255 l 1
 932 200 l 1
 934 200 l 1
 952 355 l 1
 952 357 l 1
 951 357 l 1
 797 375 l 2
 795 374 795 373 795 372 c 2
 838 318 l 1
 691 201 l 1
321 57 m 1
 305 65 l 2
 303 65 302 66 300 67 c 2
 104 223 l 1
 75 186 l 2
 71 181 65 178 59 177 c 0
 52 177 46 178 41 182 c 0
 36 186 33 192 32 199 c 2
 14 353 l 2
 14 359 15 365 19 370 c 0
 23 375 29 379 36 379 c 2
 190 397 l 2
 196 398 202 396 207 392 c 0
 213 388 216 382 216 376 c 0
 216 370 215 363 211 358 c 2
 182 322 l 1
 321 212 l 1
 321 57 l 1
100 255 m 1
 298 98 l 1
 298 201 l 1
 151 318 l 1
 194 372 l 2
 194 373 194 374 193 375 c 2
 37 357 l 1
 37 355 l 1
 54 201 l 1
 56 200 l 1
 100 255 l 1
444 519 m 1
 442 537 l 1
 442 616 l 1
 395 616 l 2
 382 616 371 627 371 640 c 0
 371 647 373 653 378 657 c 2
 488 767 l 2
 497 776 513 776 522 767 c 2
 632 657 l 2
 636 653 639 647 639 640 c 0
 639 627 628 616 614 616 c 2
 568 616 l 1
 567 535 l 1
 565 520 l 1
 552 526 l 2
 522 539 487 539 458 526 c 2
 444 519 l 1
496 759 m 1
 504 751 l 1
 394 642 l 2
 393 639 394 639 395 639 c 2
 464 639 l 1
 464 552 l 1
 490 560 519 560 545 552 c 1
 545 639 l 1
 615 639 l 1
 615 639 616 639 616 640 c 2
 506 751 l 1
 496 759 l 1
EndSplineSet
EndChar

StartChar: notions-cles_n
Encoding: 58 59451 57
Width: 1000
LayerCount: 2
Fore
SplineSet
807 311 m 1
 779 312 l 2
 777 311 773 321 772 324 c 0
 733 412 543 387 537 387 c 0
 513 385 475 384 475 384 c 1
 344 384 l 1
 314 380 301 362 300 344 c 0
 300 336 301 329 303 322 c 0
 313 298 336 295 365 295 c 2
 366 295 l 1
 495 297 l 2
 528 297 529 262 506 254 c 0
 487 247 290 198 181 256 c 1
 61 333 l 2
 46 341 27 336 17 322 c 0
 16 321 15 319 14 318 c 0
 4 298 20 279 31 269 c 2
 112 197 l 1
 112 197 224 111 304 93 c 2
 475 60 l 2
 481 59 490 59 494 59 c 0
 499 59 507 59 514 60 c 2
 596 76 l 1
 596 76 l 1
 596 76 l 1
 762 110 l 1
 807 110 l 1
 807 311 l 1
981 84 m 2
 981 337 l 2
 981 341 979 345 975 348 c 0
 972 351 967 353 961 353 c 2
 845 353 l 1
 843 353 l 2
 833 352 825 345 825 337 c 2
 826 84 l 2
 826 81 828 77 831 74 c 0
 835 71 840 69 845 69 c 2
 961 69 l 1
 964 69 l 2
 973 70 981 76 981 84 c 2
900 93 m 0
 888 95 881 107 884 119 c 0
 887 131 898 138 909 135 c 0
 920 132 928 121 926 109 c 0
 923 98 912 90 900 93 c 0
615 565 m 2
 322 565 l 1
 321 566 l 1
 316 587 306 607 291 620 c 0
 276 635 256 643 236 643 c 0
 187 643 147 597 147 540 c 0
 147 483 187 437 236 437 c 0
 255 437 274 444 289 458 c 0
 304 471 314 489 320 508 c 1
 320 510 l 1
 508 510 l 1
 508 453 l 2
 508 441 512 437 524 437 c 2
 537 437 l 1
 537 437 540 437 543 439 c 0
 545 441 545 444 545 445 c 2
 545 453 l 2
 545 462 552 469 561 470 c 1
 561 470 l 1
 570 469 577 462 577 453 c 2
 577 445 l 2
 577 444 577 441 579 439 c 0
 581 437 584 437 584 437 c 1
 596 437 l 2
 608 437 612 441 612 453 c 2
 612 510 l 1
 614 510 l 2
 630 510 642 522 642 537 c 0
 642 552 630 565 615 565 c 2
236 481 m 0
 212 481 192 508 192 540 c 0
 192 572 212 599 236 599 c 0
 259 599 280 572 280 540 c 0
 280 508 259 481 236 481 c 0
EndSplineSet
EndChar

StartChar: narration-dun-texte_n
Encoding: 59 59452 58
Width: 1000
Flags: H
LayerCount: 2
Fore
SplineSet
624 359 m 4
 624 432 690 491 772 491 c 4
 854 491 920 432 920 359 c 4
 920 286 854 227 772 227 c 4
 690 227 624 286 624 359 c 4
5 526 m 2
 5 296 l 2
 5 245 46 204 97 204 c 2
 432 204 l 2
 478 204 516 238 522 282 c 1
 607 342 l 2
 613 347 617 355 617 363 c 0
 617 371 613 378 607 383 c 2
 523 443 l 1
 523 513 l 1
 523 510 l 1
 523 526 l 2
 523 576 483 617 433 617 c 2
 96 617 l 2
 46 617 5 576 5 526 c 2
55 526 m 2
 55 549 74 568 97 568 c 2
 391 568 l 1
 391 568 l 1
 391 568 l 1
 432 568 l 2
 455 568 473 549 473 526 c 2
 473 430 l 2
 473 422 477 414 484 409 c 2
 549 363 l 1
 484 316 l 2
 477 312 473 304 473 296 c 0
 473 273 455 254 432 254 c 2
 97 254 l 2
 74 254 55 273 55 296 c 2
 55 526 l 2
995 85 m 1
 986 155 927 209 855 209 c 2
 679 209 l 2
 607 209 547 155 538 85 c 1
 995 85 l 1
EndSplineSet
EndChar

StartChar: methode-de-travail_n
Encoding: 60 59453 59
Width: 1000
LayerCount: 2
Fore
SplineSet
500 826 m 0
 236 826 22 612 22 347 c 0
 22 82 236 -131 500 -131 c 0
 764 -131 979 83 979 347 c 0
 979 611 764 826 500 826 c 0
769 146 m 2
 769 130 756 117 740 117 c 2
 644 117 l 2
 628 117 615 130 615 146 c 2
 615 242 l 2
 615 258 628 271 644 271 c 2
 673 271 l 1
 673 328 l 1
 519 328 l 1
 519 271 l 1
 548 271 l 2
 564 271 577 258 577 242 c 2
 577 146 l 2
 577 130 564 117 548 117 c 2
 452 117 l 2
 436 117 424 130 424 146 c 2
 424 242 l 2
 424 258 436 271 452 271 c 2
 481 271 l 1
 481 328 l 1
 328 328 l 1
 328 271 l 1
 356 271 l 2
 372 271 385 258 385 242 c 2
 385 146 l 2
 385 130 372 117 356 117 c 2
 260 117 l 2
 244 117 232 130 232 146 c 2
 232 242 l 2
 232 258 244 271 260 271 c 2
 289 271 l 1
 289 328 l 2
 289 349 307 367 328 367 c 2
 481 367 l 1
 481 424 l 1
 452 424 l 2
 436 424 424 437 424 453 c 2
 424 549 l 2
 424 565 436 578 452 578 c 2
 548 578 l 2
 564 578 577 565 577 549 c 2
 577 453 l 2
 577 437 564 424 548 424 c 2
 519 424 l 1
 519 367 l 1
 673 367 l 2
 694 367 711 349 711 328 c 2
 711 271 l 1
 740 271 l 2
 756 271 769 258 769 242 c 2
 769 146 l 2
EndSplineSet
EndChar

StartChar: media_n
Encoding: 61 59454 60
Width: 1000
Flags: H
LayerCount: 2
Fore
SplineSet
441 603 m 4
 441 635 466 661 497 661 c 4
 528 661 553 635 553 603 c 4
 553 571 528 545 497 545 c 4
 466 545 441 571 441 603 c 4
743 418 m 0
 738 417 734 419 730 422 c 2
 704 444 l 2
 698 449 697 459 702 465 c 0
 746 529 740 615 686 671 c 0
 680 677 679 686 685 693 c 2
 707 719 l 2
 710 722 714 724 719 724 c 0
 723 725 727 723 730 720 c 2
 731 720 l 1
 769 681 792 630 796 576 c 0
 801 522 785 468 754 424 c 0
 751 421 747 419 743 418 c 0
841 334 m 0
 836 333 832 334 828 337 c 2
 801 361 l 2
 794 367 793 376 799 383 c 0
 888 500 875 666 769 768 c 0
 763 774 762 783 768 790 c 2
 791 817 l 2
 794 821 798 823 803 823 c 0
 807 823 811 822 814 819 c 2
 815 819 l 1
 879 757 918 675 925 586 c 0
 932 497 906 410 852 340 c 0
 849 336 845 334 841 334 c 0
244 424 m 0
 212 468 197 522 202 576 c 0
 206 630 229 681 267 720 c 2
 267 720 268 720 268 721 c 0
 271 723 275 725 279 724 c 0
 284 724 288 722 291 719 c 2
 318 693 l 2
 323 687 318 677 312 671 c 0
 258 615 252 529 296 466 c 0
 301 459 300 449 294 444 c 2
 268 422 l 2
 264 419 260 417 255 418 c 0
 251 419 247 421 244 424 c 0
146 340 m 0
 92 410 66 497 73 586 c 0
 80 675 119 757 183 819 c 1
 184 819 l 2
 187 822 191 823 195 823 c 0
 199 823 203 821 206 817 c 2
 230 790 l 2
 235 783 235 774 229 768 c 0
 123 665 110 500 199 383 c 0
 205 376 203 367 197 361 c 2
 169 337 l 2
 166 334 162 333 157 334 c 0
 153 334 149 336 146 340 c 0
550 496 m 1
 455 496 l 1
 455 496 479 145 227 -120 c 1
 341 -120 l 1
 341 -120 370 -19 508 -19 c 0
 646 -19 668 -120 668 -120 c 1
 777 -120 l 1
 777 -120 550 154 550 496 c 1
430 47 m 1
 490 147 504 225 504 225 c 1
 525 144 579 47 579 47 c 1
 504 77 430 47 430 47 c 1
EndSplineSet
EndChar

StartChar: lunettes-realitevirtuelle_n
Encoding: 62 59455 61
Width: 1000
LayerCount: 2
Fore
SplineSet
744 466 m 2
 531 486 l 2
 522 487 508 488 494 488 c 0
 480 488 467 487 457 486 c 2
 244 466 l 2
 218 464 195 439 194 413 c 2
 190 285 l 2
 191 284 192 282 193 281 c 2
 276 254 l 2
 278 254 282 253 288 253 c 0
 299 253 309 256 312 257 c 2
 368 285 l 2
 381 292 403 310 412 322 c 2
 431 349 l 2
 447 369 469 381 493 381 c 0
 517 381 540 369 555 349 c 2
 574 322 l 2
 583 310 605 292 618 285 c 2
 674 257 l 2
 678 256 687 253 698 253 c 0
 704 253 708 254 710 254 c 2
 793 281 l 2
 794 282 796 284 796 285 c 2
 792 413 l 2
 792 439 769 464 744 466 c 2
749 519 m 2
 535 539 l 2
 513 541 475 541 452 539 c 2
 239 519 l 2
 187 514 143 467 142 415 c 2
 138 287 l 2
 137 264 154 239 176 232 c 2
 259 204 l 2
 281 197 315 199 336 210 c 2
 392 238 l 2
 413 249 441 272 454 290 c 2
 454 290 463 302 474 317 c 0
 485 331 502 331 513 317 c 2
 533 290 l 2
 547 272 574 249 594 238 c 2
 651 210 l 2
 672 199 706 197 728 204 c 2
 811 232 l 2
 833 239 850 264 849 287 c 2
 845 415 l 2
 844 467 801 514 749 519 c 2
809 272 m 1
 723 241 l 2
 721 240 716 240 710 240 c 0
 698 240 688 242 685 244 c 2
 626 276 l 2
 613 284 590 304 581 317 c 2
 560 347 l 2
 544 370 520 383 495 383 c 0
 470 383 447 370 431 347 c 2
 410 317 l 2
 401 304 378 283 364 276 c 2
 306 244 l 2
 302 242 292 240 281 240 c 0
 274 240 269 240 267 241 c 2
 181 272 l 2
 180 272 179 275 179 276 c 2
 183 419 l 2
 184 449 208 476 235 479 c 2
 458 501 l 2
 467 501 481 502 496 502 c 0
 511 502 524 501 534 501 c 2
 756 479 l 2
 783 476 807 448 808 419 c 2
 813 276 l 1
 809 272 l 1
909 487 m 2
 835 487 l 1
 852 466 861 441 862 416 c 2
 866 288 l 2
 866 282 865 277 865 272 c 1
 910 272 l 2
 938 272 960 294 960 322 c 2
 960 436 l 2
 959 464 937 487 909 487 c 2
153 487 m 1
 79 487 l 2
 51 487 29 465 29 437 c 2
 29 322 l 2
 29 294 51 272 79 272 c 2
 124 272 l 1
 123 278 123 283 123 288 c 2
 127 417 l 2
 127 441 136 466 153 487 c 1
EndSplineSet
EndChar

StartChar: livre-de-reference-a-se-procurer_n
Encoding: 63 59456 62
Width: 1000
LayerCount: 2
Fore
SplineSet
751 517 m 1
 997 517 l 1
 937 463 l 1
 990 394 l 1
 714 395 l 1
 751 517 l 1
231 490 m 1
 239 482 244 471 244 459 c 2
 244 256 l 1
 258 256 l 1
 258 513 l 2
 258 539 281 561 308 561 c 0
 335 561 358 539 358 513 c 2
 358 256 l 1
 373 256 l 1
 373 459 l 2
 373 485 395 506 423 506 c 0
 451 506 473 485 473 459 c 2
 473 256 l 1
 591 256 l 2
 645 256 656 271 676 336 c 2
 793 721 l 2
 799 741 796 761 785 777 c 0
 775 791 757 800 737 800 c 2
 413 800 l 2
 406 800 399 798 392 796 c 1
 392 798 l 1
 338 813 335 755 317 728 c 0
 310 719 300 710 298 702 c 0
 297 694 301 687 300 680 c 0
 298 658 281 617 271 603 c 0
 264 595 255 590 252 581 c 0
 249 574 254 564 253 555 c 0
 251 539 241 511 231 490 c 1
400 651 m 2
 409 678 l 2
 412 686 420 692 427 692 c 2
 685 692 l 2
 693 692 697 686 695 678 c 2
 686 651 l 2
 683 643 675 637 668 637 c 2
 410 637 l 2
 402 637 398 643 400 651 c 2
365 542 m 2
 374 569 l 2
 377 577 385 583 392 583 c 2
 650 583 l 2
 658 583 662 577 659 569 c 2
 651 542 l 2
 648 534 640 528 633 528 c 2
 374 528 l 2
 367 528 362 534 365 542 c 2
852 652 m 0
 846 660 837 666 827 670 c 1
 828 662 828 654 825 646 c 2
 698 226 l 2
 693 211 675 202 659 202 c 2
 473 202 l 1
 473 148 l 1
 491 148 l 1
 517 181 l 1
 645 181 l 1
 645 180 l 2
 645 168 641 157 634 148 c 1
 659 148 l 2
 695 148 732 176 743 212 c 2
 860 597 l 2
 866 616 863 636 852 652 c 0
416 -108 m 2
 108 -108 l 2
 80 -108 55 -89 50 -62 c 2
 16 110 l 2
 14 121 13 130 13 138 c 2
 13 350 l 2
 13 385 43 413 79 413 c 0
 98 413 116 405 128 393 c 1
 128 459 l 2
 128 494 157 522 194 522 c 0
 213 522 230 514 242 501 c 1
 242 513 l 2
 242 548 272 576 308 576 c 0
 344 576 374 548 374 513 c 2
 374 501 l 1
 386 514 404 522 423 522 c 0
 459 522 489 494 489 459 c 2
 489 171 l 1
 509 196 l 1
 660 196 l 1
 661 182 l 2
 661 164 656 149 646 137 c 2
 474 -80 l 2
 460 -97 438 -108 416 -108 c 2
79 382 m 0
 60 382 45 367 45 350 c 2
 45 138 l 2
 45 132 45 124 47 116 c 2
 81 -56 l 2
 83 -67 95 -76 108 -76 c 2
 416 -76 l 2
 429 -76 441 -70 449 -60 c 2
 621 157 l 2
 623 160 625 162 626 165 c 1
 524 165 l 1
 457 80 l 1
 457 459 l 2
 457 476 442 490 423 490 c 0
 404 490 389 476 389 459 c 2
 389 219 l 1
 343 219 l 1
 343 513 l 2
 343 530 327 545 308 545 c 0
 289 545 274 531 274 513 c 2
 274 219 l 1
 228 219 l 1
 228 459 l 2
 228 476 213 490 194 490 c 0
 175 490 159 476 159 459 c 2
 159 219 l 1
 113 219 l 1
 113 350 l 2
 113 367 98 382 79 382 c 0
EndSplineSet
EndChar

StartChar: laisse-des-traces-demarche_n
Encoding: 64 59457 63
Width: 1000
LayerCount: 2
Fore
SplineSet
983 704 m 0
 976 728 961 748 939 761 c 0
 917 773 892 777 867 770 c 0
 843 764 822 748 810 726 c 2
 686 512 l 1
 418 780 l 1
 126 781 l 2
 65 781 16 732 16 671 c 2
 16 18 l 2
 16 -43 65 -93 126 -93 c 2
 600 -93 l 2
 661 -93 711 -43 711 18 c 2
 711 61 l 1
 655 61 l 1
 655 18 l 2
 655 -12 631 -37 601 -37 c 2
 127 -37 l 2
 97 -37 72 -12 72 18 c 2
 72 671 l 2
 72 701 97 725 127 725 c 2
 366 725 l 1
 366 473 l 2
 366 459 376 446 393 446 c 2
 618 446 l 1
 648 446 l 1
 551 278 l 2
 549 274 548 271 547 267 c 2
 529 103 l 2
 528 92 533 81 543 76 c 0
 547 73 552 72 557 72 c 0
 563 72 569 74 574 77 c 2
 706 175 l 2
 710 177 712 180 714 184 c 2
 973 632 l 2
 986 654 989 679 983 704 c 0
421 498 m 1
 421 697 l 1
 618 498 l 1
 421 498 l 1
593 162 m 1
 599 217 l 1
 638 195 l 1
 593 162 l 1
679 237 m 1
 614 274 l 1
 814 620 l 1
 879 583 l 1
 679 237 l 1
924 660 m 2
 908 632 l 1
 843 670 l 1
 859 698 l 2
 864 707 872 713 882 715 c 0
 892 717 902 717 910 712 c 0
 919 707 925 699 928 689 c 0
 930 679 929 669 924 660 c 2
329 433 m 0
 329 403 304 379 274 379 c 0
 244 379 220 403 220 433 c 0
 220 463 245 487 274 487 c 0
 303 487 329 463 329 433 c 0
265 445 m 0
 214 397 176 336 159 268 c 0
 142 198 162 146 216 100 c 0
 236 84 254 71 280 73 c 0
 315 76 344 102 381 96 c 0
 421 89 446 57 489 60 c 0
 510 61 510 95 489 93 c 0
 457 91 436 112 407 123 c 0
 391 129 374 131 357 129 c 0
 332 127 312 113 288 109 c 0
 255 102 219 137 201 163 c 0
 180 194 184 230 193 265 c 0
 210 325 243 378 289 421 c 0
 304 436 281 459 265 445 c 0
533 57 m 0
 533 27 509 2 479 2 c 0
 449 2 425 27 425 57 c 0
 425 87 449 111 479 111 c 0
 509 111 533 87 533 57 c 0
236 157 m 0
 236 127 212 102 182 102 c 0
 152 102 127 127 127 157 c 0
 127 187 152 211 182 211 c 0
 212 211 236 187 236 157 c 0
EndSplineSet
EndChar

StartChar: jugement-critique_n
Encoding: 65 59458 64
Width: 1000
LayerCount: 2
Fore
SplineSet
557 -141 m 2
 553 -141 l 2
 541 -139 533 -128 535 -116 c 0
 539 -90 552 -69 572 -55 c 0
 619 -21 696 -34 741 -41 c 0
 762 -45 778 -41 787 -31 c 0
 797 -21 799 -4 794 16 c 1
 794 18 l 1
 790 31 783 58 801 74 c 0
 807 79 813 81 817 82 c 0
 818 87 818 92 818 96 c 0
 815 107 821 119 832 122 c 0
 835 123 838 125 842 126 c 1
 841 128 840 129 840 131 c 0
 836 143 832 157 831 170 c 0
 829 183 834 192 838 197 c 0
 848 210 864 211 877 212 c 0
 885 213 895 214 898 217 c 0
 900 224 897 246 838 324 c 0
 814 357 820 405 826 451 c 0
 829 474 832 495 831 514 c 0
 826 597 789 709 642 770 c 0
 476 839 277 735 275 734 c 0
 267 730 93 639 98 409 c 0
 100 396 120 286 166 238 c 0
 228 172 220 -47 153 -118 c 0
 144 -127 131 -127 122 -119 c 0
 113 -111 113 -97 121 -88 c 0
 173 -33 182 158 135 208 c 0
 77 269 56 399 55 404 c 2
 55 407 l 1
 48 666 246 768 255 773 c 0
 263 777 474 887 659 810 c 0
 789 756 866 652 874 516 c 0
 875 494 872 469 869 445 c 0
 864 408 859 369 873 350 c 0
 918 289 957 232 934 195 c 0
 920 173 896 171 880 169 c 2
 874 169 l 1
 876 161 879 152 881 144 c 2
 881 144 882 143 882 142 c 0
 886 135 893 120 884 106 c 0
 880 98 870 92 861 88 c 1
 861 86 l 2
 861 84 860 72 859 68 c 0
 855 48 841 43 833 41 c 1
 834 37 835 31 836 29 c 2
 836 27 l 1
 845 -8 838 -39 819 -60 c 0
 800 -81 770 -90 734 -84 c 0
 698 -78 630 -66 597 -90 c 0
 587 -97 580 -108 578 -123 c 0
 576 -134 567 -141 557 -141 c 2
574 325 m 0
 573 325 571 325 570 326 c 0
 558 328 551 339 553 351 c 0
 563 405 586 433 604 455 c 0
 624 481 639 500 635 555 c 0
 626 654 515 654 511 654 c 0
 506 654 395 654 387 555 c 0
 382 500 397 481 418 455 c 0
 436 433 458 405 469 351 c 0
 471 339 463 328 451 325 c 0
 440 323 428 331 426 343 c 0
 418 386 401 407 384 428 c 0
 361 457 338 487 344 559 c 0
 353 670 457 698 511 697 c 0
 563 697 668 670 678 559 c 0
 684 487 660 457 637 428 c 0
 620 407 604 386 595 343 c 0
 593 332 584 325 574 325 c 0
575 291 m 1
 444 291 l 1
 575 291 l 1
575 269 m 2
 444 269 l 2
 432 269 422 279 422 291 c 0
 422 303 432 312 444 312 c 2
 575 312 l 2
 587 312 596 302 596 291 c 0
 596 280 587 269 575 269 c 2
575 229 m 1
 444 229 l 1
 575 229 l 1
575 207 m 2
 444 207 l 2
 432 207 422 217 422 229 c 0
 422 241 432 250 444 250 c 2
 575 250 l 2
 587 250 596 241 596 229 c 0
 596 217 587 207 575 207 c 2
547 171 m 1
 471 171 l 1
 547 171 l 1
547 149 m 2
 471 149 l 2
 459 149 450 159 450 171 c 0
 450 183 459 192 471 192 c 2
 547 192 l 2
 559 192 569 182 569 171 c 0
 569 160 559 149 547 149 c 2
EndSplineSet
EndChar

StartChar: jette-un-oeil_n
Encoding: 66 59459 65
Width: 1000
LayerCount: 2
Fore
SplineSet
964 310 m 0
 865 148 685 39 495 39 c 0
 305 39 125 148 27 310 c 0
 21 321 16 333 16 347 c 0
 16 361 21 372 27 384 c 0
 125 545 306 655 495 655 c 0
 684 655 865 545 964 384 c 0
 970 372 974 360 974 347 c 0
 974 334 970 321 964 310 c 0
702 535 m 1
 724 499 735 457 735 415 c 0
 735 283 627 176 495 176 c 0
 363 176 256 283 256 415 c 0
 256 457 267 499 288 535 c 1
 205 493 135 425 85 347 c 1
 176 206 324 107 495 107 c 0
 666 107 814 206 906 347 c 1
 855 425 786 493 702 535 c 1
495 578 m 0
 406 578 333 504 333 415 c 0
 333 401 344 389 358 389 c 0
 372 389 384 401 384 415 c 0
 384 476 434 526 495 526 c 0
 509 526 521 538 521 552 c 0
 521 566 509 578 495 578 c 0
EndSplineSet
EndChar

StartChar: intentions_n
Encoding: 67 59460 66
Width: 1000
LayerCount: 2
Fore
SplineSet
450 775 m 0
 558 775 656 735 732 669 c 1
 677 620 l 1
 615 671 536 702 450 702 c 0
 254 702 96 543 96 348 c 0
 96 153 254 -7 450 -7 c 0
 646 -7 804 152 804 348 c 0
 804 394 795 438 779 479 c 1
 843 516 l 1
 865 465 878 408 878 348 c 0
 878 112 686 -80 450 -80 c 0
 214 -80 22 112 22 348 c 0
 22 584 214 775 450 775 c 0
450 602 m 0
 520 602 583 573 629 527 c 1
 567 481 l 1
 536 508 495 525 450 525 c 0
 352 525 273 446 273 348 c 0
 273 250 352 171 450 171 c 0
 548 171 627 250 627 348 c 0
 627 373 622 397 612 419 c 1
 676 463 l 1
 694 428 704 389 704 348 c 0
 704 207 590 94 450 94 c 0
 310 94 196 207 196 348 c 0
 196 489 310 602 450 602 c 0
450 430 m 0
 463 430 476 427 487 421 c 1
 437 384 l 2
 418 370 415 342 432 326 c 0
 446 314 464 316 478 326 c 2
 531 362 l 1
 532 358 532 353 532 348 c 0
 532 302 495 265 450 265 c 0
 405 265 367 302 367 348 c 0
 367 393 404 430 450 430 c 0
858 644 m 1
 866 763 l 1
 680 597 l 1
 678 539 l 1
 448 368 l 2
 431 355 445 326 467 342 c 2
 706 508 l 1
 762 491 l 1
 975 617 l 1
 858 644 l 1
EndSplineSet
EndChar

StartChar: important_n
Encoding: 68 59461 67
Width: 1000
LayerCount: 2
Fore
SplineSet
942 347 m 0
 942 101 743 -98 497 -98 c 0
 251 -98 52 101 52 347 c 0
 52 593 251 792 497 792 c 0
 743 792 942 593 942 347 c 0
580 629 m 2
 580 633 579 637 575 639 c 0
 571 642 566 644 561 644 c 2
 433 644 l 2
 428 644 423 642 419 639 c 0
 415 637 413 633 413 629 c 2
 423 269 l 2
 423 260 432 254 443 254 c 2
 550 254 l 2
 561 254 569 260 570 269 c 2
 580 629 l 2
571 179 m 2
 571 190 563 198 553 198 c 2
 442 198 l 2
 431 198 423 190 423 179 c 2
 423 69 l 2
 423 59 431 50 442 50 c 2
 553 50 l 2
 563 50 571 59 571 69 c 2
 571 179 l 2
EndSplineSet
EndChar

StartChar: gouache_n
Encoding: 69 59462 68
Width: 1000
LayerCount: 2
Fore
SplineSet
642 807 m 1
 558 724 l 1
 838 444 l 1
 815 434 768 413 715 372 c 0
 671 337 651 320 584 263 c 0
 540 226 474 170 365 79 c 1
 227 218 l 1
 317 326 374 392 411 437 c 0
 467 504 485 524 519 568 c 0
 546 602 564 633 576 657 c 1
 546 688 l 1
 535 665 517 631 488 593 c 0
 454 549 437 529 381 463 c 0
 340 417 281 347 184 230 c 0
 181 226 180 223 179 219 c 2
 174 165 l 1
 169 169 l 2
 162 177 149 177 141 169 c 2
 76 104 l 2
 68 97 68 83 76 76 c 0
 84 69 97 68 104 76 c 2
 156 127 l 1
 274 8 l 1
 238 -29 l 1
 217 -8 l 1
 222 -4 l 2
 230 4 230 17 222 24 c 0
 215 32 201 32 194 24 c 2
 174 5 l 2
 167 -3 167 -16 174 -24 c 2
 223 -72 l 2
 231 -80 244 -80 251 -72 c 2
 317 -7 l 2
 320 -4 323 2 323 8 c 0
 323 14 321 18 317 22 c 2
 312 27 l 1
 366 32 l 2
 370 32 374 34 377 37 c 0
 494 134 564 194 610 233 c 0
 676 289 697 306 740 340 c 0
 810 394 867 411 867 411 c 2
 869 412 872 413 873 415 c 2
 953 494 l 1
 642 807 l 1
274 65 m 1
 212 127 l 1
 216 172 l 1
 319 69 l 1
 274 65 l 1
871 469 m 1
 616 724 l 1
 642 749 l 1
 897 494 l 1
 871 469 l 1
173 74 m 0
 165 82 152 82 144 74 c 2
 125 55 l 2
 117 47 117 34 125 26 c 0
 133 18 146 19 154 26 c 2
 173 46 l 2
 181 54 181 66 173 74 c 0
415 267 m 0
 450 232 523 250 581 308 c 0
 640 366 657 439 622 474 c 0
 587 509 513 492 455 434 c 0
 397 376 379 303 415 267 c 0
484 406 m 0
 527 449 577 463 593 446 c 0
 609 430 595 379 553 337 c 0
 510 294 460 280 444 297 c 0
 427 313 441 363 484 406 c 0
EndSplineSet
EndChar

StartChar: gestes-et-materiel_n
Encoding: 70 59463 69
Width: 1000
LayerCount: 2
Fore
SplineSet
954 735 m 2
 954 714 937 696 915 696 c 2
 72 696 l 2
 51 696 34 714 34 735 c 2
 34 773 l 2
 34 794 51 811 72 811 c 2
 915 811 l 2
 937 811 954 794 954 773 c 2
 954 735 l 2
839 -32 m 2
 149 -32 l 2
 107 -32 72 3 72 45 c 2
 72 735 l 2
 72 777 107 811 149 811 c 2
 839 811 l 2
 881 811 915 777 915 735 c 2
 915 45 l 2
 915 3 881 -32 839 -32 c 2
149 735 m 1
 149 45 l 1
 839 45 l 1
 839 735 l 1
 149 735 l 1
494 -108 m 0
 462 -108 436 -82 436 -51 c 0
 436 -20 462 7 494 7 c 0
 526 7 551 -19 551 -51 c 0
 551 -82 526 -108 494 -108 c 0
494 -32 m 0
 483 -32 475 -40 475 -51 c 0
 475 -62 483 -70 494 -70 c 0
 505 -70 513 -61 513 -51 c 0
 513 -41 504 -32 494 -32 c 0
250 434 m 0
 254 430 259 428 264 428 c 0
 269 428 274 430 278 434 c 2
 331 487 l 1
 385 434 l 2
 388 430 393 428 398 428 c 0
 403 428 408 430 412 434 c 0
 419 441 419 453 412 461 c 2
 358 514 l 1
 412 568 l 2
 419 575 419 588 412 595 c 0
 404 603 392 603 385 595 c 2
 331 542 l 1
 278 595 l 2
 270 603 258 603 250 595 c 0
 243 588 243 575 250 568 c 2
 304 514 l 1
 250 461 l 2
 243 453 243 441 250 434 c 0
647 332 m 0
 594 332 551 289 551 237 c 0
 551 184 594 141 647 141 c 0
 700 141 743 184 743 237 c 0
 743 289 700 332 647 332 c 0
647 179 m 0
 615 179 590 205 590 237 c 0
 590 268 615 294 647 294 c 0
 679 294 705 268 705 237 c 0
 705 205 679 179 647 179 c 0
589 546 m 1
 617 527 l 2
 621 525 624 524 628 524 c 0
 634 524 640 527 644 532 c 0
 650 541 647 553 639 559 c 2
 581 597 l 2
 575 602 566 602 560 597 c 2
 502 559 l 2
 494 553 491 541 497 532 c 0
 503 524 515 521 524 527 c 2
 552 546 l 1
 552 545 551 544 551 543 c 0
 551 385 422 256 264 256 c 0
 253 256 245 247 245 237 c 0
 245 227 253 217 264 217 c 0
 443 217 589 363 589 543 c 0
 590 544 589 545 589 546 c 1
EndSplineSet
EndChar

StartChar: exporter-linformation_n
Encoding: 71 59464 70
Width: 1000
LayerCount: 2
Fore
SplineSet
641 420 m 1
 777 420 l 1
 777 284 l 1
 641 284 l 1
 641 420 l 1
816 486 m 1
 908 486 l 1
 908 394 l 1
 816 394 l 1
 816 486 l 1
599 437 m 2
 437 275 l 1
 406 244 l 2
 402 240 397 238 391 238 c 0
 385 238 380 240 376 244 c 2
 345 275 l 1
 264 356 l 2
 260 360 258 366 258 371 c 0
 258 376 260 382 264 386 c 2
 295 417 l 2
 299 421 304 423 310 423 c 0
 316 423 321 421 325 417 c 2
 391 351 l 1
 538 498 l 2
 542 502 548 504 553 504 c 0
 558 504 565 502 569 498 c 2
 599 468 l 2
 603 464 605 458 605 452 c 0
 605 447 603 441 599 437 c 2
784 98 m 1
 79 98 l 1
 9 98 l 1
 9 56 l 2
 9 33 41 14 79 14 c 2
 784 14 l 2
 822 14 854 33 854 56 c 2
 854 98 l 1
 784 98 l 1
467 56 m 2
 396 56 l 2
 392 56 389 59 389 63 c 0
 389 67 392 70 396 70 c 2
 467 70 l 2
 471 70 474 67 474 63 c 0
 474 59 471 56 467 56 c 2
192 127 m 2
 671 127 l 2
 710 127 741 158 741 197 c 2
 741 238 l 1
 685 238 l 1
 685 197 l 2
 685 190 678 183 671 183 c 2
 192 183 l 2
 184 183 178 190 178 197 c 2
 178 507 l 2
 178 514 184 521 192 521 c 2
 671 521 l 2
 678 521 685 514 685 507 c 2
 685 464 l 1
 741 464 l 1
 741 507 l 2
 741 546 710 577 671 577 c 2
 192 577 l 2
 153 577 122 546 122 507 c 2
 122 197 l 2
 122 158 153 127 192 127 c 2
777 625 m 1
 869 625 l 1
 869 532 l 1
 777 532 l 1
 777 625 l 1
908 685 m 1
 981 685 l 1
 981 612 l 1
 908 612 l 1
 908 685 l 1
EndSplineSet
EndChar

StartChar: exploiter-les-technologies_n
Encoding: 72 59465 71
Width: 1000
LayerCount: 2
Fore
SplineSet
686 201 m 0
 683 198 679 196 675 196 c 2
 640 196 l 2
 632 196 625 203 625 211 c 0
 617 351 506 462 366 470 c 0
 358 471 351 477 351 485 c 2
 351 520 l 2
 351 524 353 528 356 531 c 0
 359 534 363 535 367 535 c 1
 367 535 l 1
 452 531 531 495 590 435 c 0
 650 376 686 297 690 212 c 0
 690 208 689 204 686 201 c 0
563 201 m 0
 560 198 556 196 552 196 c 2
 519 196 l 2
 511 196 505 202 504 210 c 0
 497 284 439 342 365 349 c 0
 357 349 351 356 351 364 c 2
 351 396 l 2
 351 401 353 405 357 408 c 0
 359 410 363 412 367 412 c 2
 368 412 l 1
 419 408 468 385 504 349 c 0
 540 313 563 264 567 213 c 0
 567 209 566 204 563 201 c 0
398 196 m 0
 372 196 352 217 352 243 c 0
 352 269 372 289 398 289 c 0
 424 289 444 268 444 243 c 0
 444 217 423 196 398 196 c 0
745 9 m 2
 115 9 l 2
 101 9 103 24 103 33 c 2
 103 91 l 1
 103 506 l 1
 33 506 l 2
 21 506 10 517 10 529 c 0
 10 535 12 540 15 544 c 2
 132 684 l 2
 136 689 143 692 149 692 c 0
 155 692 163 689 167 684 c 2
 283 544 l 2
 287 540 289 535 289 529 c 0
 289 517 278 506 266 506 c 2
 196 506 l 1
 196 102 l 1
 687 102 l 2
 690 102 694 101 696 98 c 2
 754 29 l 2
 756 26 757 24 757 21 c 0
 757 15 751 9 745 9 c 2
984 157 m 2
 868 18 l 2
 863 13 857 9 850 9 c 0
 843 9 836 13 832 18 c 2
 716 157 l 2
 712 161 710 167 710 172 c 0
 710 185 721 195 734 195 c 2
 803 195 l 1
 803 599 l 1
 312 599 l 2
 309 599 305 600 303 603 c 2
 245 673 l 2
 244 675 242 678 242 680 c 0
 242 687 248 692 254 692 c 2
 885 692 l 2
 898 692 896 678 896 669 c 2
 896 611 l 1
 896 196 l 1
 966 196 l 2
 979 196 989 185 989 172 c 0
 989 167 987 161 984 157 c 2
EndSplineSet
EndChar

StartChar: environnement-et-consommation_n
Encoding: 73 59466 72
Width: 1000
LayerCount: 2
Fore
SplineSet
566 231 m 0
 477 231 420 194 362 130 c 0
 359 127 358 124 358 119 c 0
 358 110 365 103 374 103 c 0
 378 103 382 105 385 108 c 0
 397 119 408 131 420 142 c 0
 465 183 504 199 566 199 c 0
 574 199 582 206 582 215 c 0
 582 224 574 231 566 231 c 0
809 583 m 2
 724 583 l 1
 732 523 729 475 729 471 c 0
 727 445 705 425 679 427 c 0
 653 429 633 451 635 477 c 0
 635 478 638 528 628 583 c 1
 372 583 l 1
 361 527 363 477 363 476 c 0
 364 450 343 428 317 427 c 2
 315 427 l 2
 304 427 292 431 284 439 c 0
 274 448 269 460 268 472 c 0
 268 476 267 524 276 583 c 1
 189 583 l 2
 169 583 153 567 153 547 c 2
 153 -73 l 2
 153 -93 169 -109 189 -109 c 2
 809 -109 l 2
 829 -109 845 -93 845 -73 c 2
 845 547 l 2
 845 567 829 583 809 583 c 2
704 216 m 0
 688 139 638 88 569 54 c 0
 535 37 498 27 460 27 c 0
 436 27 411 31 388 38 c 0
 376 42 352 58 342 58 c 0
 330 58 315 7 293 7 c 0
 277 7 272 15 266 26 c 0
 263 31 262 32 262 37 c 0
 262 63 311 84 311 98 c 0
 311 100 305 114 304 119 c 0
 302 127 301 136 301 145 c 0
 301 224 365 281 436 304 c 0
 487 321 596 301 630 334 c 0
 644 347 651 359 672 359 c 0
 700 359 709 286 709 264 c 0
 709 249 708 232 704 216 c 0
682 449 m 2
 680 449 l 2
 667 450 656 462 657 476 c 0
 657 478 666 642 594 719 c 0
 570 744 540 757 502 757 c 0
 464 757 434 744 409 718 c 0
 335 641 341 477 341 475 c 0
 341 461 330 450 317 449 c 0
 302 449 291 459 290 473 c 0
 290 481 284 661 373 753 c 0
 407 789 451 807 502 807 c 0
 554 807 597 789 631 753 c 0
 718 660 708 480 707 473 c 0
 706 459 695 449 682 449 c 2
EndSplineSet
EndChar

StartChar: enregistre-une-video_n
Encoding: 74 59467 73
Width: 1000
LayerCount: 2
Fore
SplineSet
502 835 m 0
 234 835 17 618 17 350 c 0
 17 82 234 -135 502 -135 c 0
 770 -135 987 82 987 350 c 0
 987 618 770 835 502 835 c 0
785 196 m 2
 785 188 780 180 773 177 c 0
 770 176 767 176 765 176 c 0
 759 176 754 177 751 182 c 2
 623 309 l 1
 623 257 l 2
 623 206 583 166 532 166 c 2
 310 166 l 2
 260 166 219 206 219 257 c 2
 219 479 l 2
 219 529 260 570 310 570 c 2
 532 570 l 2
 583 570 623 529 623 479 c 2
 623 427 l 1
 751 554 l 2
 754 558 759 560 765 560 c 0
 767 560 770 559 773 558 c 0
 780 555 785 548 785 539 c 2
 785 196 l 2
EndSplineSet
EndChar

StartChar: enregistre-un-audio_n
Encoding: 75 59468 74
Width: 1000
LayerCount: 2
Fore
SplineSet
503 836 m 0
 235 836 17 618 17 350 c 0
 17 82 235 -136 503 -136 c 0
 771 -136 989 81 989 350 c 0
 989 619 772 836 503 836 c 0
382 563 m 2
 382 630 436 685 503 685 c 0
 570 685 624 630 624 563 c 2
 624 369 l 2
 624 302 570 248 503 248 c 0
 436 248 382 302 382 369 c 2
 382 563 l 2
722 369 m 2
 722 257 637 164 527 152 c 1
 527 102 l 1
 625 102 l 2
 638 102 649 91 649 78 c 0
 649 64 638 53 625 53 c 2
 382 53 l 2
 368 53 357 64 357 78 c 0
 357 91 368 102 382 102 c 2
 479 102 l 1
 479 152 l 1
 370 164 285 257 285 369 c 2
 285 417 l 2
 285 431 296 442 309 442 c 0
 322 442 333 431 333 417 c 2
 333 369 l 2
 333 275 409 199 503 199 c 0
 597 199 673 275 673 369 c 2
 673 417 l 2
 673 431 684 442 698 442 c 0
 712 442 722 431 722 417 c 2
 722 369 l 2
EndSplineSet
EndChar

StartChar: ecoute-la-video_n
Encoding: 76 59469 75
Width: 1000
LayerCount: 2
Fore
SplineSet
503 836 m 0
 235 836 17 618 17 349 c 0
 17 80 235 -137 503 -137 c 0
 771 -137 990 81 990 349 c 0
 990 617 772 836 503 836 c 0
819 170 m 2
 819 161 813 153 805 149 c 0
 802 148 799 148 796 148 c 0
 790 148 784 150 780 154 c 2
 638 296 l 1
 638 238 l 2
 638 182 593 136 537 136 c 2
 289 136 l 2
 233 136 188 182 188 238 c 2
 188 486 l 2
 188 542 233 587 289 587 c 2
 537 587 l 2
 593 587 638 542 638 486 c 2
 638 428 l 1
 780 569 l 2
 784 574 790 576 796 576 c 0
 799 576 802 575 805 574 c 0
 813 570 819 562 819 553 c 2
 819 170 l 2
410 196 m 0
 320 196 247 269 247 358 c 0
 247 448 320 521 410 521 c 0
 500 521 572 448 572 358 c 0
 572 269 499 196 410 196 c 0
410 473 m 0
 346 473 295 422 295 358 c 0
 295 294 346 243 410 243 c 0
 474 243 525 295 525 358 c 0
 525 421 473 473 410 473 c 0
491 347 m 2
 376 279 l 2
 374 278 372 277 369 277 c 0
 367 277 365 278 362 279 c 0
 358 281 356 286 356 290 c 2
 356 426 l 2
 356 431 358 435 362 438 c 0
 367 440 372 440 376 437 c 2
 491 370 l 2
 495 367 498 363 498 358 c 0
 498 353 495 349 491 347 c 2
EndSplineSet
EndChar

StartChar: duree_n
Encoding: 77 59470 76
Width: 1000
LayerCount: 2
Fore
SplineSet
593 -38 m 0
 585 -40 577 -42 569 -43 c 0
 549 -47 535 -67 539 -87 c 0
 541 -97 547 -105 555 -111 c 0
 563 -117 573 -119 583 -117 c 0
 593 -115 602 -113 611 -111 c 0
 631 -106 644 -86 639 -65 c 0
 634 -45 613 -33 593 -38 c 0
872 468 m 0
 875 460 880 454 886 449 c 0
 896 442 908 440 920 444 c 0
 940 451 950 472 944 492 c 0
 941 501 937 510 934 519 c 0
 926 538 904 547 885 540 c 0
 866 532 856 510 864 491 c 0
 867 483 870 476 872 468 c 0
716 16 m 0
 709 12 702 7 695 3 c 0
 677 -7 671 -30 681 -48 c 0
 684 -53 688 -57 692 -60 c 0
 704 -68 720 -70 733 -62 c 2
 757 -47 l 2
 775 -36 779 -12 768 5 c 0
 756 23 733 28 716 16 c 0
967 363 m 0
 966 384 949 400 928 399 c 0
 907 398 891 381 892 360 c 2
 892 336 l 2
 892 323 898 311 908 304 c 0
 914 300 921 297 929 297 c 0
 950 297 967 313 967 334 c 0
 968 344 968 353 967 363 c 0
866 115 m 0
 849 128 826 125 813 108 c 0
 808 101 803 95 798 89 c 0
 785 73 787 49 802 36 c 0
 803 35 804 34 805 34 c 0
 821 23 843 25 856 40 c 0
 862 47 868 55 873 63 c 0
 886 79 883 103 866 115 c 0
921 252 m 0
 902 258 880 247 874 227 c 0
 872 219 869 212 866 204 c 0
 860 188 866 170 880 160 c 0
 882 158 885 157 888 156 c 0
 907 148 929 158 937 177 c 2
 946 204 l 2
 952 224 941 246 921 252 c 0
428 -43 m 0
 395 -37 362 -27 332 -13 c 0
 331 -12 331 -12 330 -12 c 0
 323 -9 316 -5 309 -1 c 1
 309 -1 l 1
 296 6 283 14 271 22 c 0
 94 148 51 394 176 571 c 0
 203 610 236 642 273 668 c 1
 273 668 274 668 274 669 c 0
 404 758 579 764 717 672 c 1
 687 630 l 2
 679 618 684 609 698 610 c 2
 826 622 l 2
 841 623 849 636 845 649 c 2
 811 773 l 2
 807 787 797 789 789 777 c 2
 759 734 l 1
 659 802 538 828 418 807 c 0
 406 805 394 802 382 799 c 1
 382 799 l 1
 381 799 l 1
 277 772 187 712 122 626 c 0
 122 625 121 625 121 624 c 0
 119 621 117 618 114 615 c 0
 111 610 108 605 104 600 c 2
 104 600 104 599 103 599 c 0
 50 516 25 421 29 324 c 1
 29 323 l 2
 30 314 30 304 31 295 c 0
 31 294 32 293 32 293 c 2
 33 283 34 274 36 264 c 0
 53 167 98 80 167 12 c 2
 168 11 l 1
 168 11 l 1
 186 -7 206 -24 228 -39 c 0
 284 -79 347 -106 415 -118 c 0
 436 -121 455 -108 459 -87 c 0
 462 -67 449 -47 428 -43 c 0
475 649 m 0
 458 649 444 636 444 619 c 2
 444 315 l 1
 723 171 l 2
 727 168 732 167 737 167 c 0
 748 167 758 173 764 184 c 0
 772 199 766 217 751 225 c 2
 505 352 l 1
 505 619 l 2
 505 636 492 649 475 649 c 0
EndSplineSet
EndChar

StartChar: document-a-imprimer_n
Encoding: 78 59471 77
Width: 1000
LayerCount: 2
Fore
SplineSet
830 301 m 2
 808 301 789 313 779 332 c 1
 779 -72 l 1
 224 -72 l 1
 224 774 l 1
 557 774 l 1
 557 594 l 2
 557 571 576 552 599 552 c 2
 779 552 l 1
 779 385 l 1
 789 403 808 415 830 415 c 2
 835 415 l 1
 835 594 l 2
 835 617 822 649 806 665 c 2
 670 801 l 2
 654 817 622 830 599 830 c 2
 210 830 l 2
 187 830 168 811 168 788 c 2
 168 -86 l 2
 168 -109 187 -127 210 -127 c 2
 793 -127 l 2
 816 -127 835 -109 835 -86 c 2
 835 301 l 1
 830 301 l 2
952 469 m 2
 38 469 l 2
 24 469 12 457 12 442 c 2
 12 68 l 1
 223 68 l 1
 223 191 l 1
 779 191 l 1
 779 68 l 1
 979 68 l 1
 979 442 l 2
 979 457 967 469 952 469 c 2
830 301 m 0
 798 301 773 327 773 358 c 0
 773 389 798 416 830 416 c 0
 862 416 887 390 887 358 c 0
 887 326 862 301 830 301 c 0
262 143 m 1
 741 143 l 1
 741 109 l 1
 262 109 l 1
 262 143 l 1
262 77 m 1
 741 77 l 1
 741 43 l 1
 262 43 l 1
 262 77 l 1
262 11 m 1
 741 11 l 1
 741 -23 l 1
 262 -23 l 1
 262 11 l 1
EndSplineSet
EndChar

StartChar: demande-un-casque-ecoute-micro_n
Encoding: 79 59473 78
Width: 1000
LayerCount: 2
Fore
SplineSet
514 480 m 4
 514 553 580 612 662 612 c 4
 744 612 810 553 810 480 c 4
 810 407 744 348 662 348 c 4
 580 348 514 407 514 480 c 4
947 605 m 0
 920 605 898 583 898 556 c 2
 898 348 l 1
 827 207 l 1
 812 212 797 214 780 214 c 2
 600 214 l 2
 520 214 465 149 465 68 c 2
 465 30 l 1
 910 30 l 1
 910 30 918 122 905 144 c 1
 988 308 l 2
 990 313 996 337 996 344 c 2
 996 556 l 2
 996 583 974 605 947 605 c 0
455 364 m 2
 450 351 l 1
 398 342 l 1
 390 311 362 288 329 288 c 1
 329 279 l 2
 329 274 325 270 320 270 c 2
 302 270 l 2
 297 270 293 274 293 279 c 2
 293 441 l 2
 293 446 297 450 302 450 c 2
 320 450 l 2
 325 450 329 446 329 441 c 2
 329 432 l 1
 355 432 379 417 391 395 c 1
 410 398 l 1
 415 416 418 434 418 452 c 0
 418 537 334 611 239 611 c 0
 144 611 60 537 60 452 c 0
 60 434 63 416 68 398 c 1
 87 395 l 1
 99 417 122 432 149 432 c 1
 149 441 l 2
 149 446 153 450 158 450 c 2
 176 450 l 2
 181 450 185 446 185 441 c 2
 185 279 l 2
 185 274 181 270 176 270 c 2
 158 270 l 2
 153 270 149 274 149 279 c 2
 149 288 l 1
 116 288 88 311 80 342 c 1
 28 351 l 1
 23 364 l 2
 12 392 6 422 6 452 c 0
 6 567 113 665 239 665 c 0
 365 665 472 567 472 452 c 0
 472 422 466 392 455 364 c 2
156 217 m 0
 149 217 143 215 138 210 c 1
 86 233 58 289 72 343 c 1
 31 357 l 1
 10 279 52 196 131 168 c 0
 133 167 134 167 136 167 c 0
 141 161 148 158 156 158 c 0
 171 158 183 170 183 185 c 2
 183 190 l 2
 183 205 171 217 156 217 c 0
EndSplineSet
EndChar

StartChar: demande-un-cellulaire_n
Encoding: 80 59474 79
Width: 1000
Flags: H
LayerCount: 2
Fore
SplineSet
469 480 m 4
 469 553 535 612 617 612 c 4
 699 612 765 553 765 480 c 4
 765 407 699 348 617 348 c 4
 535 348 469 407 469 480 c 4
936 667 m 0
 905 667 880 641 880 610 c 2
 880 370 l 1
 797 206 l 1
 797 206 l 1
 780 211 762 215 743 215 c 2
 535 215 l 2
 442 215 378 139 378 46 c 2
 378 2 l 1
 893 2 l 1
 893 2 903 108 887 134 c 1
 983 323 l 2
 986 329 993 357 993 364 c 2
 993 610 l 2
 993 641 967 667 936 667 c 0
281 289 m 2
 281 264 261 243 236 243 c 2
 55 243 l 2
 30 243 9 264 9 289 c 2
 9 652 l 2
 9 676 30 697 55 697 c 2
 236 697 l 2
 261 697 281 676 281 652 c 2
 281 289 l 2
247 595 m 2
 247 601 242 606 236 606 c 2
 55 606 l 2
 49 606 43 601 43 595 c 2
 43 345 l 2
 43 339 49 334 55 334 c 2
 236 334 l 2
 242 334 247 339 247 345 c 2
 247 595 l 2
174 652 m 2
 117 652 l 2
 114 652 111 649 111 646 c 0
 111 643 114 640 117 640 c 2
 174 640 l 2
 177 640 179 643 179 646 c 0
 179 649 177 652 174 652 c 2
145 317 m 0
 130 317 117 304 117 289 c 0
 117 274 130 260 145 260 c 0
 160 260 174 273 174 289 c 0
 174 305 161 317 145 317 c 0
EndSplineSet
EndChar

StartChar: demande-une-tablette_n
Encoding: 81 59475 80
Width: 1000
Flags: H
LayerCount: 2
Fore
SplineSet
490 445 m 4
 490 518 556 577 638 577 c 4
 720 577 786 518 786 445 c 4
 786 372 720 313 638 313 c 4
 556 313 490 372 490 445 c 4
937 593 m 0
 907 593 882 569 882 539 c 2
 882 309 l 1
 803 152 l 1
 803 152 l 1
 787 157 769 160 751 160 c 2
 552 160 l 2
 463 160 402 87 402 -2 c 2
 402 -44 l 1
 895 -44 l 1
 895 -44 904 58 889 82 c 1
 981 264 l 2
 984 270 991 296 991 304 c 2
 991 539 l 2
 991 569 966 593 937 593 c 0
363 304 m 2
 363 276 341 254 314 254 c 2
 56 254 l 2
 28 254 6 276 6 304 c 2
 6 641 l 2
 6 669 28 691 56 691 c 2
 314 691 l 2
 341 691 363 669 363 641 c 2
 363 304 l 2
324 641 m 2
 324 647 319 651 314 651 c 2
 56 651 l 2
 50 651 46 647 46 641 c 2
 46 343 l 2
 46 338 50 333 56 333 c 2
 314 333 l 2
 319 333 324 338 324 343 c 2
 324 641 l 2
185 314 m 0
 174 314 165 305 165 294 c 0
 165 283 174 274 185 274 c 0
 196 274 205 283 205 294 c 0
 205 305 196 314 185 314 c 0
EndSplineSet
EndChar

StartChar: demande-une-webcam_n
Encoding: 82 59476 81
Width: 1000
Flags: H
LayerCount: 2
Fore
SplineSet
514 480 m 4
 514 553 580 612 662 612 c 4
 744 612 810 553 810 480 c 4
 810 407 744 348 662 348 c 4
 580 348 514 407 514 480 c 4
938 656 m 0
 909 656 886 633 886 604 c 2
 886 382 l 1
 809 231 l 1
 809 231 l 1
 794 236 777 239 760 239 c 2
 568 239 l 2
 482 239 423 169 423 83 c 2
 423 43 l 1
 898 43 l 1
 898 43 907 141 893 164 c 1
 981 339 l 2
 984 345 990 370 990 377 c 2
 990 604 l 2
 990 633 967 656 938 656 c 0
438 361 m 2
 438 341 422 325 403 325 c 2
 281 325 l 1
 281 306 295 290 295 282 c 0
 295 274 289 268 281 268 c 2
 167 268 l 2
 159 268 152 274 152 282 c 0
 152 290 167 306 167 325 c 1
 45 325 l 2
 25 325 9 341 9 361 c 2
 9 604 l 2
 9 624 25 640 45 640 c 2
 403 640 l 2
 422 640 438 624 438 604 c 2
 438 361 l 2
410 604 m 2
 410 608 406 611 403 611 c 2
 45 611 l 2
 41 611 38 608 38 604 c 2
 38 418 l 2
 38 414 41 411 45 411 c 2
 403 411 l 2
 406 411 410 414 410 418 c 2
 410 604 l 2
341 457 m 2
 341 455 339 453 336 452 c 0
 335 452 334 451 333 451 c 0
 331 451 329 452 328 453 c 2
 279 492 l 1
 279 476 l 2
 279 461 263 448 244 448 c 2
 159 448 l 2
 140 448 124 461 124 476 c 2
 124 543 l 2
 124 558 140 570 159 570 c 2
 244 570 l 2
 263 570 279 558 279 543 c 2
 279 527 l 1
 328 565 l 2
 329 567 331 567 333 567 c 2
 336 567 l 2
 339 566 341 563 341 561 c 2
 341 457 l 2
EndSplineSet
EndChar

StartChar: demande-un-ordinateur_n
Encoding: 83 59477 82
Width: 1000
Flags: H
LayerCount: 2
Fore
SplineSet
514 480 m 4
 514 553 580 612 662 612 c 4
 744 612 810 553 810 480 c 4
 810 407 744 348 662 348 c 4
 580 348 514 407 514 480 c 4
945 576 m 0
 919 576 899 555 899 529 c 2
 899 331 l 1
 830 196 l 1
 830 196 l 1
 816 201 802 204 786 204 c 2
 615 204 l 2
 539 204 486 141 486 65 c 2
 486 29 l 1
 910 29 l 1
 910 29 918 116 905 137 c 1
 983 293 l 2
 986 298 992 321 992 327 c 2
 992 529 l 2
 992 555 971 576 945 576 c 0
523 306 m 1
 523 280 l 2
 523 266 504 255 480 255 c 2
 54 255 l 2
 30 255 11 266 11 280 c 2
 11 306 l 1
 54 306 l 1
 480 306 l 1
 523 306 l 1
79 366 m 2
 79 553 l 2
 79 577 99 596 122 596 c 2
 412 596 l 2
 435 596 455 577 455 553 c 2
 455 366 l 2
 455 342 435 323 412 323 c 2
 122 323 l 2
 99 323 79 342 79 366 c 2
114 366 m 2
 114 361 118 357 122 357 c 2
 412 357 l 2
 417 357 421 361 421 366 c 2
 421 553 l 2
 421 558 417 562 412 562 c 2
 122 562 l 2
 118 562 114 558 114 553 c 2
 114 366 l 2
293 285 m 0
 293 287 291 289 288 289 c 2
 246 289 l 2
 243 289 242 287 242 285 c 0
 242 282 243 280 246 280 c 2
 288 280 l 2
 291 280 293 282 293 285 c 0
EndSplineSet
EndChar

StartChar: nidan
Encoding: 84 59478 83
Width: 1000
LayerCount: 2
Fore
SplineSet
435.821 491.546 m 1
 414.8151 489.93467 l 2
 414.603186 488.77842 414.41178 487.32529 414.41178 485.85459 c 0
 414.41178 484.33213 414.683264 483.0499 415.027014 482.30576 c 0
 418.532874 480.87705 434.806314 480.11533 445.949914 480.11533 c 0
 446.802453 480.11533 447.626674 480.12118938 448.415734 480.12118938 c 1
 435.821 491.546 l 1
411.569 497.041 m 1
 436.8297 498.9785 l 1
 438.40685 499.098617 l 1
 439.5758 498.039047 l 1
 460.2301 479.304647 l 1
 466.98791 473.174767 l 1
 457.87072 472.922814 l 2
 457.8472825 472.922814 452.75744 472.782189 445.94982 472.782189 c 0
 438.77404 472.782189 429.72322 472.93258 422.56312 473.58883 c 0
 419.36976 473.881799 416.5641 474.261682 414.28871 474.85445 c 0
 412.61781 475.289997 410.65492 475.688434 409.19105 477.78121 c 0
 407.40199 480.37496 407.07777 483.32906 407.07777 485.85445 c 0
 407.07777 490.36617 408.28968 494.26949 408.34047 494.43843 c 2
 409.063126 496.84859 l 1
 411.569 497.041 l 1
411.85 493.384 m 1
 437.1166 495.31662 l 1
 457.767 476.58322 l 1
 457.767 476.58322 415.3168 475.4172 412.2172 479.86642 c 0
 409.13419 484.31662 411.850012 493.38402 411.850012 493.38402 c 1
 411.85 493.384 l 1
906.693 570.308 m 1
 885.7838 559.1908 708.709 472.808 506.319 472.808 c 0
 307.34 472.808 101.319 525.3734 79.018 531.1859 c 1
 71.52484 523.2982 67.2182 504.9925 67.2182 487.183 c 0
 67.2182 471.5746 70.62933 457.2992 75.11078 452.3129 c 0
 76.31098 450.97989 84.98383 446.84415 99.60488 442.642 c 0
 117.81488 437.4086 145.10778 431.3725 179.89688 425.5453 c 0
 258.18598 412.434 374.48888 400.3568 511.91788 400.3568 c 0
 758.93288 400.3568 884.25088 472.9955 905.82788 489.2064 c 0
 912.39624 494.12925 915.61304 507.1087 915.61304 522.3353 c 0
 915.61304 542.5072 909.90992 564.7054 906.69214 570.308 c 1
 906.693 570.308 l 1
78.9375 538.788 m 1
 78.9375 538.788 296.8775 480.1415 506.3195 480.1415 c 0
 715.1725 480.1415 898.3335 573.7548 904.7465 577.6024 c 0
 905.448648 578.024275 906.32365 578.290877 907.21525 578.290877 c 0
 910.89494 578.290877 912.3842 575.214707 913.37736 573.401227 c 0
 914.92131 570.582867 916.32072 566.707867 917.63224 561.981327 c 0
 920.57658 551.377827 922.94767 536.554527 922.94767 522.334827 c 0
 922.94767 506.756727 920.35099 490.925627 910.22797 483.339727 c 0
 887.04637 465.923727 760.44497 393.022327 511.91897 393.022327 c 0
 374.04797 393.022327 257.39797 405.128727 178.67897 418.312327 c 0
 143.68577 424.173657 116.19847 430.241027 97.57937 435.592627 c 0
 82.73657 439.858247 73.43387 443.216647 69.65647 447.413927 c 0
 62.71116 455.140487 59.88499 470.904127 59.88499 487.182527 c 0
 59.88499 506.676627 64.0803 528.287027 75.61739 538.047727 c 2
 77.08321 539.287957 l 1
 78.9375 538.788 l 1
77.9834 535.25 m 1
 77.9834 535.25 296.3494 476.4668 506.3164 476.4668 c 0
 716.2834 476.4668 899.6334 570.25 906.6334 574.4502 c 0
 913.6334 578.6504 930.4332 503.0664 908.03281 486.2666 c 0
 885.65001 469.4668 759.68281 396.6836 511.91681 396.6836 c 0
 264.15081 396.6836 84.98281 435.8662 72.38381 449.8662 c 0
 59.79981 463.8662 59.79981 519.8662 77.98342 535.25 c 1
 77.9834 535.25 l 1
573.018 435.191 m 1
 562.3637 432.60311 537.975 426.31209 515.7201 417.9312 c 0
 491.1869 408.69292 472.8334 397.2955 472.8334 389.2242 c 0
 472.8334 388.453692 472.975978 387.67049 473.316798 386.81795 c 0
 482.293358 364.39025 513.206398 352.93705 520.920298 350.38725 c 1
 563.147798 384.68215 l 1
 573.018 435.191 l 1
520.726 342.764 m 1
 520.726 342.764 478.6235 353.8197 466.5043 384.0999 c 0
 465.839261 385.76494 465.50039 387.49345 465.50039 389.2249 c 0
 465.50039 404.7815 490.02679 416.095 513.13909 424.7981 c 0
 543.23769 436.1321 576.81879 443.6243 576.90469 443.6438 c 2
 582.38223 444.86841 l 1
 581.30508 439.35962 l 1
 570.09118 381.97002 l 1
 569.837274 380.66924 l 1
 568.801144 379.82842 l 1
 524.010144 343.45142 l 1
 522.545304 342.26197 l 1
 520.726 342.764 l 1
521.7 346.3 m 1
 521.7 346.3 481.116 357.4836 469.9168 385.467 c 0
 458.7166 413.467 577.6998 440.0666 577.6998 440.0666 c 1
 566.4996 382.6838 l 1
 521.7 346.3 l 1
417.923 411.902 m 1
 421.48159 391.8307 l 2
 425.45718 389.07972 438.36729 380.2438 451.53819 372.2409 c 0
 464.22769 364.53094 477.43859 358.0466 480.87899 358.0466 c 0
 480.9434431 358.0466 481.03231 358.05245938 481.03231 358.05245938 c 2
 488.76571 362.03878938 564.35261 409.79075938 583.80131 422.09155938 c 1
 506.35601 478.90015938 l 1
 417.923 411.902 l 1
414.525 389.048 m 1
 410.31016 412.8273 l 1
 409.917582 415.03726 l 1
 411.708602 416.39468 l 1
 504.108002 486.39758 l 1
 506.283782 488.04602 l 1
 508.484952 486.43176 l 1
 592.469352 424.82726 l 1
 596.803332 421.64757 l 1
 592.262312 418.76964 l 2
 592.12657 418.6837025 493.193912 355.91514 484.162312 351.41714 c 0
 483.023642 350.846828 481.910362 350.714015 480.878132 350.714015 c 0
 473.353722 350.714015 460.559732 358.178855 447.737532 365.968915 c 0
 431.661332 375.736495 416.070532 386.660315 416.035432 386.685715 c 2
 414.789342 387.558762 l 1
 414.525 389.048 l 1
418.134 389.684 m 1
 413.9172 413.4672 l 1
 506.3166 483.4672 l 1
 590.3 421.8666 l 1
 590.3 421.8666 490.9172 358.8842 482.517 354.7006 c 0
 474.11661 350.4838 418.1342 389.684 418.1342 389.684 c 1
 418.134 389.684 l 1
107.393 297.808 m 2
 112.37542 292.09902 123.2475 279.8353 134.3295 268.6117 c 0
 141.01114 261.8451 147.7719 255.4691 153.1801 251.2679 c 0
 157.61565 247.82259 161.09905 246.34407 161.5678 246.34407 c 0
 167.26995 247.05989 218.1742 277.26397 267.2208 307.09607 c 0
 286.047 318.54727 304.7892 329.94667 321.0831 339.63807 c 0
 380.1563 374.80997 524.2641 444.75507 524.3181 444.78207 c 2
 524.3181 444.78207 546.6599 475.87487 546.6599 494.20787 c 0
 546.6599 501.68053 543.63939 506.97247 529.697 506.97247 c 0
 518.1159 506.97247 499.3503 502.60821 471.281 491.27037 c 0
 343.488 439.62197 137.465 315.99437 107.392 297.80837 c 1
 107.393 297.808 l 2
99.874 301.824 m 2
 99.9560312 301.8747812 329.436 441.853 468.539 498.072 c 0
 497.0244 509.5779 516.3964 514.3054 529.6972 514.3054 c 0
 546.5087 514.3054 553.9931 505.70872 553.9931 494.2068 c 0
 553.9931 471.617 527.5322 438.2039 527.5136 438.1804 c 2
 527.5136 438.1804 383.3356 368.1687 324.8246 333.3304 c 0
 308.5766 323.66634 289.85 312.2757 271.0238 300.8245 c 0
 221.6449 270.7903 172.8734 240.3684 162.4378 239.0618 c 0
 162.142878 239.0256672 161.852839 239.0100422 161.567683 239.0100422 c 0
 157.318663 239.0100422 153.282523 241.9026222 148.686783 245.4729322 c 0
 142.806903 250.0403122 135.919183 256.5657322 129.111583 263.4592322 c 0
 113.813683 278.9524322 99.020783 296.2746322 98.989483 296.3108322 c 2
 96.196513 299.5813422 l 1
 99.874 301.824 l 2
101.783 298.684 m 1
 101.783 298.684 331.333 438.667 469.917 494.667 c 0
 608.483 550.6504 525.917 441.4834 525.917 441.4834 c 1
 525.917 441.4834 381.733 371.4834 322.95 336.4834 c 0
 264.1502 301.5 173.167 244.0996 161.983 242.7002 c 0
 150.7828 241.31641 101.7828 298.6836 101.7828 298.6836 c 1
 101.783 298.684 l 1
526.787 500.648 m 1
 525.47059 524.1636 l 1
 522.20204 523.624538 515.43939 521.0552 505.81439 509.8462 c 0
 503.54291 507.19972 503.09564 505.51808 503.09564 504.94483 c 0
 503.09564 503.09913 511.1806 500.54932 522.08494 500.54932 c 0
 523.86912 500.54932 525.47654 500.6479528 526.78709 500.6479528 c 1
 526.787 500.648 l 1
532.604 527.936 m 1
 534.31298 497.4184 l 1
 534.511222 493.87055 l 1
 530.978022 493.55805 l 2
 530.9067329 493.55219062 527.109862 493.216253 522.084472 493.216253 c 0
 515.740722 493.216253 507.385272 493.556097 501.578572 496.533633 c 0
 498.665482 498.027773 495.762162 500.787543 495.762162 504.945743 c 0
 495.762162 508.255313 497.452592 511.364693 500.248492 514.620543 c 0
 512.618592 529.026743 522.015092 531.631243 526.974092 531.631243 c 0
 528.723112 531.631243 529.810032 531.309954 530.149872 531.190813 c 2
 532.466282 530.383196 l 1
 532.604 527.936 l 1
528.95 527.733 m 1
 530.6502 497.2164 l 1
 530.6502 497.2164 486.7996 493.33261 503.033 512.233 c 0
 519.2498 531.1158 528.95 527.733 528.95 527.733 c 1
883.079 261.375 m 1
 887.90908 264.88477 899.4472 273.5088 909.9745 283.1992 c 0
 921.1776 293.5127 929.9667 304.6699 929.9667 310.1601 c 0
 929.9667 310.701116 929.8915047 311.153264 929.760645 311.54584 c 0
 929.390528 312.65522 923.574125 318.10639 913.079945 324.53024 c 0
 900.192245 332.41891 881.250845 342.24114 859.866045 352.46484 c 0
 811.747845 375.46974 751.095045 400.59864 717.946045 411.38184 c 0
 660.396245 430.11914 502.482045 512.34284 485.171045 521.39084 c 1
 422.225745 494.25804 l 1
 446.708145 480.70534 534.006745 432.64474 579.272745 411.20334 c 0
 617.845045 392.92014 679.538745 367.16034 731.831745 345.32734 c 0
 751.385445 337.16425 769.631545 329.54614 784.884445 323.06364 c 0
 834.138345 302.15154 873.509445 269.62714 883.079745 261.37514 c 1
 883.079 261.375 l 1
487.022 528.699 m 1
 487.022 528.699 660.669 437.7439 720.213 418.357 c 0
 753.9405 407.3853 814.5978 382.2349 863.022 359.0845 c 0
 884.5445 348.7954 903.6187 338.9185 916.8999 330.7886 c 0
 927.3403 324.39798 934.8774 319.3902 936.7192 313.8638 c 0
 937.121544 312.65677 937.300255 311.40677 937.300255 310.1597 c 0
 937.300255 299.7408 926.026855 288.0103 914.937955 277.8033 c 0
 900.773855 264.7642 885.020955 253.7437 884.948655 253.6929 c 2
 882.559005 252.02005 l 1
 880.392015 253.97806 l 1
 880.392015 253.97806 837.486715 292.76026 782.019915 316.31106 c 0
 766.800215 322.77883 748.563815 330.39306 729.010115 338.55616 c 0
 676.698615 360.39596 614.999115 386.15186 576.139115 404.57076 c 0
 522.717215 429.87646 412.179115 491.44286 412.140115 491.46526 c 2
 405.629375 495.09026 l 1
 412.471175 498.03948 l 1
 483.874475 528.81778 l 1
 485.477015 529.50821 l 1
 487.022 528.699 l 1
485.316 525.45 m 1
 485.316 525.45 658.883 434.4666 719.083 414.866 c 0
 779.2666 395.283 927.634 329.4998 933.233 312.7 c 0
 938.832 295.9002 882.8492 256.7 882.8492 256.7 c 1
 882.8492 256.7 839.4498 295.9002 783.4498 319.6834 c 0
 727.4664 343.4832 630.8998 382.6834 577.6998 407.8836 c 0
 524.5162 433.0828 413.9168 494.6668 413.9168 494.6668 c 1
 485.316 525.45 l 1
524.77 351.73 m 1
 538.6225 354.55031 584.6821 372.9859 595.0932 381.9654 c 2
 596.47308 383.19782 l 1
 597.48285 390.27692 603.73089 436.46642 603.73089 463.52792 c 0
 603.73089 472.36483 602.749445 479.07672 601.81487 480.71252 c 2
 601.707448 480.883418 l 2
 597.911548 484.678338 579.289448 497.897118 561.847048 508.427318 c 0
 549.647848 515.791578 537.593148 521.724218 532.289448 523.162718 c 1
 531.963276 510.568018 530.793358 466.998618 529.211328 426.523118 c 0
 527.922268 393.536818 526.882228 363.432318 524.769918 351.730118 c 1
 524.77 351.73 l 1
527.077 530.129 m 2
 528.22055 530.702242 529.32993 530.829195 530.36216 530.829195 c 0
 537.95591 530.829195 551.39336 523.303805 565.62876 514.710095 c 0
 583.54766 503.892695 601.83186 491.127095 606.89636 486.063595 c 0
 610.9862 481.964965 611.06335 473.498195 611.06335 463.528395 c 0
 611.06335 435.522495 604.77038 389.437595 603.73132 382.153395 c 0
 603.119015 377.861405 598.97155 375.388745 594.76257 372.710035 c 0
 589.09069 369.100655 581.10927 365.082105 572.40517 361.169035 c 0
 552.76067 352.338955 530.21177 344.032335 521.98817 344.032335 c 0
 521.29774 344.032335 516.49403 344.0401475 516.49403 348.529405 c 0
 516.49403 349.484483 516.764538 350.178815 517.035046 350.717885 c 2
 518.064346 357.771595 l 2
 521.714736 393.066495 525.049696 526.941595 525.049696 526.941595 c 1
 525.1043835 529.141795 l 1
 527.077 530.129 l 2
528.717 526.85 m 1
 537.09981 531.0502 595.9006 491.8666 604.3 483.4672 c 0
 612.70039 475.06681 601.5002 392.4838 600.0998 382.6842 c 0
 598.70039 372.8844 516.0998 340.6842 520.3166 349.0836 c 0
 524.5168 357.48399 528.71699 526.8506 528.71699 526.8506 c 1
 528.717 526.85 l 1
914.591 329.726 m 1
 906.86541 333.85491 l 1
 850.46211 280.43501 l 1
 854.84102 277.68794 855.99238 276.89302 859.57637 274.41255 c 2
 859.802932 274.2563 l 1
 867.294142 275.123488 906.437732 320.2426 914.591032 329.726 c 1
 914.591 329.726 l 1
907.426 337.712 m 1
 918.3313 331.88485 l 1
 920.35278 330.80477 l 1
 918.85766 329.07039 l 1
 918.85766 329.07039 869.68386 272.62409 857.71996 271.23929 c 1
 857.493398 271.39554 l 2
 853.405508 274.22464 852.639878 274.75687 846.512898 278.58011 c 2
 844.499228 279.83695 l 1
 846.221888 281.46781 l 1
 905.303888 337.42481 l 1
 906.262872 338.333013 l 1
 907.426 337.712 l 1
906.566 336.1 m 1
 847.483 280.1342 l 1
 853.7164 276.25041 854.483 275.71721 858.7662 272.75041 c 0
 868.8834 273.9174 917.4664 330.26701 917.4664 330.26701 c 1
 906.566 336.1 l 1
887.279 345.119 m 1
 879.55537 349.26353 l 1
 825.07877 297.36313 l 1
 829.51432 294.57504 830.64322 293.80649 834.41178 291.19907 c 0
 841.86002 292.052586 879.36788 335.80357 887.27898 345.11897 c 2
 887.279 345.119 l 1
880.117 353.124 m 1
 891.0057 347.28025 l 1
 893.00961 346.20505 l 1
 891.53695 344.47653 l 1
 891.53695 344.47653 844.26745 289.54883 832.32895 288.18263 c 0
 828.04672 291.14552 827.32797 291.63087 821.13555 295.5088 c 2
 819.1336 296.76271 l 1
 820.84356 298.39162 l 1
 877.98806 352.83502 l 1
 878.949974 353.750059 l 1
 880.117 353.124 l 1
879.25 351.5 m 1
 822.0996 297.0664 l 1
 828.2998 293.18359 829.083 292.65038 833.3662 289.68359 c 0
 843.4668 290.84961 890.1338 345.66699 890.1338 345.66699 c 1
 879.25 351.5 l 1
EndSplineSet
EndChar

StartChar: Terre-et-espace
Encoding: 85 59479 84
Width: 1000
Flags: W
LayerCount: 2
Fore
SplineSet
524 287 m 0
 524 149 413 37 275 37 c 0
 137 37 26 149 26 287 c 0
 26 424 137 536 275 536 c 0
 413 536 524 424 524 287 c 0
806 216 m 1
 806 213 807 210 807 206 c 1
 806 211 806 214 806 216 c 1
953 145 m 0
 953 66 890 3 811 3 c 0
 733 3 669 66 669 145 c 0
 669 223 733 287 811 287 c 0
 890 287 953 223 953 145 c 0
211 677 m 0
 211 621 165 575 108 575 c 0
 52 575 6 621 6 677 c 0
 6 734 52 780 108 780 c 0
 165 780 211 734 211 677 c 0
973 291 m 0
 973 245 936 208 890 208 c 0
 844 208 807 245 807 291 c 0
 807 337 844 374 890 374 c 0
 936 374 973 337 973 291 c 0
994 42 m 0
 994 -4 957 -41 912 -41 c 0
 866 -41 829 -4 829 42 c 0
 829 88 866 125 912 125 c 0
 957 125 994 88 994 42 c 0
EndSplineSet
EndChar

